<svg id="Layer_1" data-name="Layer 1" xmlns="http://www.w3.org/2000/svg" viewBox="0 0 468 216"><defs><style>.cls-1{fill:none;stroke:gray;stroke-miterlimit:10;stroke-width:2px;}.cls-2{fill:#e6e6e6;}.cls-3{fill:#a44b2e;}.cls-4{fill:#1f1d1d;}.cls-5{fill:#562f26;}.cls-10,.cls-6,.cls-8{font-size:14px;font-family:ITCAvantGardePro-Bk, ITC Avant Garde Gothic Pro;}.cls-6{fill:#b3b3b3;}.cls-11,.cls-6,.cls-8{letter-spacing:0.01em;}.cls-7{letter-spacing:0.03em;}.cls-9{letter-spacing:-0.06em;}.cls-10{letter-spacing:-0.06em;}.cls-12{fill:#1e222c;}</style></defs><title>w-chart</title><line class="cls-1" x1="234" y1="142.13" x2="234" y2="204.08"/><path class="cls-2" d="M284.18,168.72v10.12H237.69V168.72h46.49m1-1H236.69v12.12h48.49V167.72Z"/><rect class="cls-3" x="83.16" y="167.72" width="48.48" height="12.12"/><rect class="cls-4" x="182.82" y="167.72" width="48.48" height="12.12"/><rect class="cls-5" x="132.99" y="167.72" width="48.48" height="12.12"/><path class="cls-2" d="M80.81,168.72v10.12H34.33V168.72H80.81m1-1H33.33v12.12H81.81V167.72Z"/><path class="cls-2" d="M334,168.72v10.12H287.52V168.72H334m1-1H286.52v12.12H335V167.72Z"/><path class="cls-2" d="M383.84,168.72v10.12H337.36V168.72h46.48m1-1H336.36v12.12h48.48V167.72Z"/><path class="cls-2" d="M433.67,168.72v10.12H387.19V168.72h46.48m1-1H386.19v12.12h48.48V167.72Z"/><text class="cls-6" transform="translate(43.2 158.15) rotate(-70)">F<tspan class="cls-7" x="7" y="0">L</tspan><tspan x="13.82" y="0">ASHLIGHTS REQUIRED</tspan></text><text class="cls-8" transform="translate(93.03 158.15) rotate(-70)">TRESS<tspan class="cls-9" x="36.96" y="0">P</tspan><tspan x="44.42" y="0">ASSING</tspan></text><text class="cls-8" transform="translate(142.86 158.15) rotate(-70)">SELF GUIDED</text><text class="cls-8" transform="translate(192.7 158.15) rotate(-70)">HIKING</text><text class="cls-6" transform="translate(434.64 158.15) rotate(-70)">GIFT SHOP</text><text class="cls-6" transform="translate(384.81 158.15) rotate(-70)">ADMISSION FEE</text><text class="cls-6" transform="translate(334.98 158.15) rotate(-70)">TOUR GUIDE</text><text class="cls-10" transform="translate(285.14 158.15) rotate(-70)">P<tspan class="cls-11" x="7.46" y="0">ARKING</tspan></text><line class="cls-1" x1="234" y1="142.13" x2="234" y2="204.08"/><path class="cls-2" d="M284.18,168.72v10.12H237.69V168.72h46.49m1-1H236.69v12.12h48.49V167.72Z"/><rect class="cls-3" x="83.16" y="167.72" width="48.48" height="12.12"/><rect class="cls-4" x="182.82" y="167.72" width="48.48" height="12.12"/><rect class="cls-5" x="132.99" y="167.72" width="48.48" height="12.12"/><path class="cls-2" d="M80.81,168.72v10.12H34.33V168.72H80.81m1-1H33.33v12.12H81.81V167.72Z"/><path class="cls-2" d="M334,168.72v10.12H287.52V168.72H334m1-1H286.52v12.12H335V167.72Z"/><path class="cls-2" d="M383.84,168.72v10.12H337.36V168.72h46.48m1-1H336.36v12.12h48.48V167.72Z"/><path class="cls-2" d="M433.67,168.72v10.12H387.19V168.72h46.48m1-1H386.19v12.12h48.48V167.72Z"/><text class="cls-6" transform="translate(43.2 158.15) rotate(-70)">F<tspan class="cls-7" x="7" y="0">L</tspan><tspan x="13.82" y="0">ASHLIGHTS REQUIRED</tspan></text><text class="cls-8" transform="translate(93.03 158.15) rotate(-70)">TRESS<tspan class="cls-9" x="36.96" y="0">P</tspan><tspan x="44.42" y="0">ASSING</tspan></text><text class="cls-8" transform="translate(142.86 158.15) rotate(-70)">SELF GUIDED</text><text class="cls-8" transform="translate(192.7 158.15) rotate(-70)">HIKING</text><text class="cls-6" transform="translate(434.64 158.15) rotate(-70)">GIFT SHOP</text><text class="cls-6" transform="translate(384.81 158.15) rotate(-70)">ADMISSION FEE</text><text class="cls-6" transform="translate(334.98 158.15) rotate(-70)">TOUR GUIDE</text><text class="cls-10" transform="translate(285.14 158.15) rotate(-70)">P<tspan class="cls-11" x="7.46" y="0">ARKING</tspan></text><line class="cls-1" x1="234" y1="142.13" x2="234" y2="204.08"/><rect class="cls-12" x="236.69" y="167.72" width="48.48" height="12.12"/><rect class="cls-3" x="83.16" y="167.72" width="48.48" height="12.12"/><rect class="cls-4" x="182.82" y="167.72" width="48.48" height="12.12"/><rect class="cls-5" x="132.99" y="167.72" width="48.48" height="12.12"/><path class="cls-2" d="M80.81,168.72v10.12H34.33V168.72H80.81m1-1H33.33v12.12H81.81V167.72Z"/><path class="cls-2" d="M334,168.72v10.12H287.52V168.72H334m1-1H286.52v12.12H335V167.72Z"/><path class="cls-2" d="M383.84,168.72v10.12H337.36V168.72h46.48m1-1H336.36v12.12h48.48V167.72Z"/><path class="cls-2" d="M433.67,168.72v10.12H387.19V168.72h46.48m1-1H386.19v12.12h48.48V167.72Z"/><text class="cls-6" transform="translate(43.2 158.15) rotate(-70)">F<tspan class="cls-7" x="7" y="0">L</tspan><tspan x="13.82" y="0">ASHLIGHTS REQUIRED</tspan></text><text class="cls-8" transform="translate(93.03 158.15) rotate(-70)">TRESS<tspan class="cls-9" x="36.96" y="0">P</tspan><tspan x="44.42" y="0">ASSING</tspan></text><text class="cls-8" transform="translate(142.86 158.15) rotate(-70)">SELF GUIDED</text><text class="cls-8" transform="translate(192.7 158.15) rotate(-70)">HIKING</text><text class="cls-6" transform="translate(434.64 158.15) rotate(-70)">GIFT SHOP</text><text class="cls-6" transform="translate(384.81 158.15) rotate(-70)">ADMISSION FEE</text><text class="cls-6" transform="translate(334.98 158.15) rotate(-70)">TOUR GUIDE</text><text class="cls-10" transform="translate(285.14 158.15) rotate(-70)">P<tspan class="cls-11" x="7.46" y="0">ARKING</tspan></text></svg>