<svg id="Layer_1" data-name="Layer 1" xmlns="http://www.w3.org/2000/svg" viewBox="0 0 669.37 613.91"><defs><style>.cls-1,.cls-11,.cls-12,.cls-13,.cls-14,.cls-15,.cls-16,.cls-17,.cls-18,.cls-19,.cls-2,.cls-3,.cls-4,.cls-5,.cls-6,.cls-7,.cls-8{fill:none;stroke-miterlimit:10;}.cls-1,.cls-11{stroke:#414043;}.cls-1,.cls-2,.cls-3,.cls-4,.cls-5,.cls-6,.cls-7,.cls-8{stroke-width:2px;}.cls-12,.cls-2{stroke:#7f4b41;}.cls-12,.cls-13,.cls-14,.cls-15,.cls-16,.cls-17,.cls-18,.cls-19,.cls-2,.cls-3,.cls-4,.cls-5,.cls-6,.cls-7,.cls-8{stroke-linecap:square;}.cls-15,.cls-3{stroke:#c1d8ea;}.cls-13,.cls-4{stroke:#b04f2f;}.cls-14,.cls-5{stroke:#db775d;}.cls-16,.cls-6{stroke:#6e95af;}.cls-18,.cls-7{stroke:#ccc;}.cls-19,.cls-8{stroke:#999;}.cls-9{fill:#414043;}.cls-10{fill:#fff;}.cls-11,.cls-12,.cls-13,.cls-14,.cls-15,.cls-16,.cls-17,.cls-18,.cls-19{stroke-width:4px;}.cls-17{stroke:#466080;}</style></defs><title>planning-factors</title><path d="M259.5,66.84a1.47,1.47,0,0,0-1.44-1.47,1.43,1.43,0,0,0-1.48,1.42c0,.69.42,1.12,1.58,1.42,1.75.45,2.35,1.36,2.35,2.46a2.41,2.41,0,0,1-2.45,2.39,2.38,2.38,0,0,1-2.51-2.42h.81a1.67,1.67,0,0,0,3.34.06c0-.88-.59-1.37-1.66-1.68s-2.27-.71-2.27-2.2a2.27,2.27,0,0,1,4.54,0Z"/><path d="M262.88,72.91v-7.4H261v-.74h4.55v.74H263.7v7.4Z"/><path d="M271,72.91l-2.76-3.68H269c1.44,0,2.3-.74,2.3-1.85,0-.77-.47-1.87-2.34-1.87h-1.56v7.4h-.81V64.77H269c2.13,0,3.07,1.26,3.07,2.63a2.49,2.49,0,0,1-2.42,2.48l2.3,3Z"/><path d="M278.2,64.77H279v5.16c0,2.06-1.2,3.13-2.77,3.13s-2.77-1-2.77-3.15V64.77h.81V70c0,1.63.88,2.36,2,2.36s2-.58,2-2.35Z"/><path d="M288.49,70.78a4.3,4.3,0,0,1-3.75,2.28,4.21,4.21,0,1,1,3.72-6.2h-.91a3.46,3.46,0,0,0-2.83-1.48,3.47,3.47,0,1,0,2.86,5.4Z"/><path d="M291.06,72.91v-7.4h-1.87v-.74h4.54v.74h-1.86v7.4Z"/><path d="M299.53,64.77h.81v5.16c0,2.06-1.2,3.13-2.77,3.13s-2.78-1-2.78-3.15V64.77h.82V70c0,1.63.88,2.36,2,2.36s2-.58,2-2.35Z"/><path d="M306.49,72.91l-2.76-3.68h.79c1.44,0,2.3-.74,2.3-1.85,0-.77-.47-1.87-2.34-1.87h-1.56v7.4h-.81V64.77h2.45c2.13,0,3.07,1.26,3.07,2.63a2.49,2.49,0,0,1-2.42,2.48l2.3,3Z"/><path d="M309,72.91V64.77h4.46v.74h-3.64v2.93h3.52v.73h-3.52v3h3.64v.73Z"/><path d="M318.43,66.84A1.47,1.47,0,0,0,317,65.37a1.42,1.42,0,0,0-1.47,1.42c0,.69.42,1.12,1.57,1.42,1.76.45,2.36,1.36,2.36,2.46A2.41,2.41,0,0,1,317,73.06a2.37,2.37,0,0,1-2.5-2.42h.81a1.67,1.67,0,0,0,3.33.06c0-.88-.58-1.37-1.65-1.68s-2.28-.71-2.28-2.2a2.28,2.28,0,0,1,4.55,0Z"/><path d="M256.9,86.11v-7.4H255V78h4.54v.74h-1.86v7.4Z"/><path d="M264.59,86.26A4.22,4.22,0,1,1,268.9,82,4.3,4.3,0,0,1,264.59,86.26Zm0-7.69a3.48,3.48,0,1,0,3.51,3.49A3.53,3.53,0,0,0,264.58,78.57Z"/><path d="M273.52,86.11V78H278v.74h-3.64v2.93h3.52v.73h-3.52v3H278v.73Z"/><path d="M284.47,86.11l-2.29-3.47-2.32,3.47h-1L281.66,82l-2.61-4h1l2.17,3.26L284.32,78h.95l-2.62,4,2.79,4.15Z"/><path d="M286.5,86.11V78H289c2.24,0,2.91,1.34,2.91,2.46s-.7,2.41-2.93,2.41h-1.63v3.27Zm2.63-4a1.75,1.75,0,0,0,1.94-1.7c0-.81-.52-1.69-2.12-1.69h-1.63V82.1Z"/><path d="M293.26,86.11V78h.81v7.41h3.37v.73Z"/><path d="M302.37,86.26A4.22,4.22,0,1,1,306.69,82,4.3,4.3,0,0,1,302.37,86.26Zm0-7.69a3.48,3.48,0,1,0,3.51,3.49A3.53,3.53,0,0,0,302.36,78.57Z"/><path d="M312.47,86.11l-2.76-3.68h.79c1.45,0,2.3-.74,2.3-1.85,0-.77-.47-1.87-2.34-1.87h-1.55v7.4h-.82V78h2.46c2.12,0,3.07,1.26,3.07,2.63a2.49,2.49,0,0,1-2.42,2.48l2.3,3Z"/><path d="M314.94,86.11V78h4.45v.74h-3.64v2.93h3.52v.73h-3.52v3h3.64v.73Z"/><path d="M405.09,72.91V65.66h0L402,72.91h-.69l-3-7.25h0v7.25h-.81V64.77h1.25l3,6.93,3-6.93h1.26v8.14Z"/><path d="M407.74,72.91V64.77h.82v8.14Z"/><path d="M410.46,72.91V64.77h.81v7.41h3.37v.73Z"/><path d="M415.58,72.91V64.77H420v.74h-3.64v2.93h3.52v.73h-3.52v3H420v.73Z"/><path d="M425.06,66.84a1.47,1.47,0,0,0-1.44-1.47,1.43,1.43,0,0,0-1.48,1.42c0,.69.42,1.12,1.58,1.42,1.76.45,2.35,1.36,2.35,2.46a2.41,2.41,0,0,1-2.45,2.39,2.38,2.38,0,0,1-2.51-2.42h.81a1.67,1.67,0,0,0,3.34.06c0-.88-.59-1.37-1.65-1.68s-2.28-.71-2.28-2.2a2.27,2.27,0,0,1,4.54,0Z"/><path d="M430.49,72.91V64.77h4.12v.74h-3.3v2.95h3.18v.74h-3.18v3.71Z"/><path d="M440.37,72.91l-2.76-3.68h.79c1.44,0,2.3-.74,2.3-1.85,0-.77-.47-1.87-2.34-1.87H436.8v7.4H436V64.77h2.45c2.13,0,3.07,1.26,3.07,2.63a2.49,2.49,0,0,1-2.42,2.48l2.3,3Z"/><path d="M446.84,73.06a4.22,4.22,0,1,1,4.31-4.22A4.3,4.3,0,0,1,446.84,73.06Zm0-7.69a3.48,3.48,0,1,0,3.51,3.48A3.53,3.53,0,0,0,446.83,65.37Z"/><path d="M460.25,72.91V65.66h0l-3.05,7.25h-.7l-3-7.25h0v7.25h-.82V64.77h1.26l3,6.93,3-6.93h1.25v8.14Z"/><path d="M404.82,86.11V78.86h0l-3,7.25h-.7l-3-7.25h0v7.25h-.81V78h1.25l3,6.93,3-6.93h1.25v8.14Z"/><path d="M413.77,86.11l-1.18-2.73H408.8l-1.18,2.73h-.85L410.25,78h.91l3.5,8.14Zm-3.06-7.21-1.6,3.74h3.16Z"/><path d="M415.78,86.11V78h.81v8.14Z"/><path d="M424.09,86.11,419.26,79h0v7.16h-.81V78h1.1l4.54,6.76h0V78h.81v8.14Z"/><path d="M434.26,86.11l-2.76-3.68h.79c1.44,0,2.3-.74,2.3-1.85,0-.77-.47-1.87-2.34-1.87H430.7v7.4h-.82V78h2.46c2.12,0,3.06,1.26,3.06,2.63A2.49,2.49,0,0,1,433,83.08l2.3,3Z"/><path d="M440.73,86.26A4.22,4.22,0,1,1,445,82,4.3,4.3,0,0,1,440.73,86.26Zm0-7.69a3.48,3.48,0,1,0,3.51,3.49A3.53,3.53,0,0,0,440.72,78.57Z"/><path d="M452.81,86.11l-1.18-2.73h-3.79l-1.18,2.73h-.85L449.29,78h.91l3.5,8.14Zm-3.06-7.21-1.6,3.74h3.16Z"/><path d="M454.8,86.11V78h2.41a5.1,5.1,0,0,1,2.69.72,4.06,4.06,0,0,1,1.77,3.4,3.93,3.93,0,0,1-1.18,2.8,4.42,4.42,0,0,1-3.32,1.22Zm2.31-.73a3.71,3.71,0,0,0,2.85-1,3.45,3.45,0,0,0,.9-2.36,3.24,3.24,0,0,0-1.3-2.64,4.1,4.1,0,0,0-2.49-.69h-1.46v6.67Z"/><path d="M551.15,72.91V69.1h-4.22v3.81h-.81V64.77h.81v3.59h4.22V64.77H552v8.14Z"/><path d="M557.73,73.06a4.22,4.22,0,1,1,4.32-4.22A4.3,4.3,0,0,1,557.73,73.06Zm0-7.69a3.48,3.48,0,1,0,3.51,3.48A3.53,3.53,0,0,0,557.72,65.37Z"/><path d="M569.77,72.91,568,66.24h0l-1.78,6.67h-1l-2.33-8.14h.84l2,7.1h0l1.94-7.1h.76l1.95,7.09h0l2-7.09h.82l-2.33,8.14Z"/><path d="M585.08,72.91V65.66h0l-3,7.25h-.69l-3-7.25h0v7.25h-.81V64.77h1.25l3,6.93,3-6.93h1.25v8.14Z"/><path d="M594,72.91l-1.17-2.73h-3.79l-1.19,2.73H587l3.47-8.14h.92l3.49,8.14ZM591,65.7l-1.59,3.74h3.16Z"/><path d="M601.69,72.91l-4.83-7.16h0v7.16H596V64.77h1.1l4.55,6.76h0V64.77h.81v8.14Z"/><path d="M606.34,72.91V70.2l-2.83-5.43h.91l2.32,4.57,2.39-4.57H610l-2.86,5.43v2.71Z"/><path d="M530.82,86.11V78h2.46c2.25,0,2.92,1.34,2.92,2.46s-.71,2.41-2.93,2.41h-1.64v3.27Zm2.63-4a1.74,1.74,0,0,0,1.93-1.7c0-.81-.51-1.69-2.11-1.69h-1.64V82.1Z"/><path d="M537.44,86.11V78h4.45v.74h-3.64v2.93h3.52v.73h-3.52v3h3.64v.73Z"/><path d="M547.5,86.26A4.22,4.22,0,1,1,551.82,82,4.3,4.3,0,0,1,547.5,86.26Zm0-7.69A3.48,3.48,0,1,0,551,82.06,3.53,3.53,0,0,0,547.49,78.57Z"/><path d="M553.28,86.11V78h2.46c2.25,0,2.92,1.34,2.92,2.46s-.71,2.41-2.93,2.41h-1.64v3.27Zm2.63-4a1.74,1.74,0,0,0,1.93-1.7c0-.81-.51-1.69-2.11-1.69h-1.64V82.1Z"/><path d="M560,86.11V78h.82v7.41h3.36v.73Z"/><path d="M565.15,86.11V78h4.45v.74H566v2.93h3.52v.73H566v3h3.64v.73Z"/><path d="M575.59,86.11v-7.4h-1.87V78h4.54v.74H576.4v7.4Z"/><path d="M583.28,86.26A4.22,4.22,0,1,1,587.59,82,4.3,4.3,0,0,1,583.28,86.26Zm0-7.69a3.48,3.48,0,1,0,3.51,3.49A3.53,3.53,0,0,0,583.26,78.57Z"/><path d="M592.25,86.11V78h2.09c1.71,0,2.62.94,2.62,2.17a1.92,1.92,0,0,1-.89,1.64,2.12,2.12,0,0,1,1.35,2c0,1.11-.63,2.33-2.75,2.33Zm2.1-4.63c1.56,0,1.8-.9,1.8-1.37s-.36-1.4-1.86-1.4h-1.23v2.77Zm.26,3.9c1,0,2-.42,2-1.6,0-.92-.81-1.56-2-1.56h-1.55v3.16Z"/><path d="M603.06,86.11l-2.76-3.68h.8c1.44,0,2.29-.74,2.29-1.85,0-.77-.47-1.87-2.34-1.87H599.5v7.4h-.81V78h2.45c2.12,0,3.07,1.26,3.07,2.63a2.49,2.49,0,0,1-2.42,2.48l2.3,3Z"/><path d="M605.59,86.11V78h.82v8.14Z"/><path d="M613.9,86.11,609.07,79h0v7.16h-.82V78h1.1l4.55,6.76h0V78h.81v8.14Z"/><path d="M619.3,83.11v-.74h5.52a4.26,4.26,0,0,1-4.3,3.89A4.34,4.34,0,0,1,616.15,82a4.36,4.36,0,0,1,8.21-1.9h-1a3.39,3.39,0,0,0-2.89-1.57,3.48,3.48,0,1,0,0,7,3.43,3.43,0,0,0,3.29-2.41Z"/><path d="M518.4,101.57a5.82,5.82,0,0,1,0-10.58v.82a5.2,5.2,0,0,0,0,9Z"/><path d="M519.56,99.31V91.17h.81v8.14Z"/><path d="M527.86,99.31,523,92.15h0v7.16h-.81V91.17h1.1l4.54,6.76h0V91.17h.82v8.14Z"/><path d="M538.16,97.18a4.3,4.3,0,0,1-3.75,2.28,4.21,4.21,0,1,1,3.72-6.2h-.92a3.43,3.43,0,0,0-2.82-1.48,3.47,3.47,0,1,0,2.86,5.4Z"/><path d="M539.69,99.31V91.17h.81v7.41h3.37v.73Z"/><path d="M549.59,91.17h.81v5.16c0,2.06-1.2,3.13-2.77,3.13s-2.77-1-2.77-3.15V91.17h.81v5.19c0,1.63.88,2.36,2,2.36.93,0,2-.58,2-2.35Z"/><path d="M552.22,99.31V91.17h2.41a5.08,5.08,0,0,1,2.69.72,4.06,4.06,0,0,1,1.77,3.4,4,4,0,0,1-1.17,2.8,4.45,4.45,0,0,1-3.33,1.22Zm2.31-.73a3.71,3.71,0,0,0,2.85-1,3.45,3.45,0,0,0,.9-2.36A3.24,3.24,0,0,0,557,92.6a4.1,4.1,0,0,0-2.49-.69H553v6.67Z"/><path d="M560.59,99.31V91.17h.81v8.14Z"/><path d="M568.89,99.31l-4.83-7.16h0v7.16h-.81V91.17h1.1l4.54,6.76h0V91.17h.82v8.14Z"/><path d="M574.29,96.31v-.74h5.53a4.28,4.28,0,0,1-4.31,3.89,4.22,4.22,0,1,1,0-8.43,4.29,4.29,0,0,1,3.85,2.31h-.94a3.41,3.41,0,0,0-2.9-1.57,3.48,3.48,0,1,0,0,7,3.45,3.45,0,0,0,3.29-2.41Z"/><path d="M586.51,99.31V96.6l-2.82-5.43h.9l2.32,4.57,2.39-4.57h.89l-2.86,5.43v2.71Z"/><path d="M595.13,99.46a4.22,4.22,0,1,1,4.31-4.22A4.3,4.3,0,0,1,595.13,99.46Zm0-7.69a3.48,3.48,0,1,0,3.51,3.49A3.53,3.53,0,0,0,595.12,91.77Z"/><path d="M605.63,91.17h.82v5.16c0,2.06-1.2,3.13-2.77,3.13s-2.78-1-2.78-3.15V91.17h.82v5.19c0,1.63.88,2.36,2,2.36s2-.58,2-2.35Z"/><path d="M612.6,99.31l-2.76-3.68h.79c1.44,0,2.3-.74,2.3-1.85,0-.77-.48-1.87-2.35-1.87H609v7.4h-.81V91.17h2.45c2.12,0,3.07,1.26,3.07,2.63a2.49,2.49,0,0,1-2.42,2.48l2.3,3Z"/><path d="M618.48,93.24A1.47,1.47,0,0,0,617,91.77a1.42,1.42,0,0,0-1.47,1.42c0,.69.41,1.12,1.57,1.42,1.76.45,2.35,1.36,2.35,2.46A2.41,2.41,0,0,1,617,99.46,2.38,2.38,0,0,1,614.53,97h.82a1.67,1.67,0,0,0,3.33.06c0-.88-.58-1.37-1.65-1.68s-2.28-.71-2.28-2.2a2.28,2.28,0,0,1,4.55,0Z"/><path d="M620.7,99.31V91.17h4.46v.74h-3.64v2.93H625v.73h-3.52v3h3.64v.73Z"/><path d="M626.89,99.31V91.17h.82v7.41h3.37v.73Z"/><path d="M632,99.31V91.17h4.11v.74h-3.3v3H636v.74h-3.18v3.71Z"/><path d="M636.89,100.78a5.19,5.19,0,0,0,0-9V91a5.83,5.83,0,0,1,0,10.59Z"/><line class="cls-1" x1="314.51" y1="241.41" x2="403.32" y2="528.12"/><line class="cls-1" x1="143.51" y1="128.91" x2="262.26" y2="239.87"/><line class="cls-2" x1="143.51" y1="187.41" x2="261.71" y2="380.65"/><line class="cls-3" x1="456.26" y1="529.41" x2="550.77" y2="493.41"/><line class="cls-2" x1="313.93" y1="386.38" x2="402.26" y2="241.41"/><line class="cls-2" x1="456.26" y1="241.41" x2="550.77" y2="277.41"/><line class="cls-4" x1="143.51" y1="241.41" x2="260.51" y2="313.41"/><line class="cls-4" x1="313.75" y1="313.41" x2="402.26" y2="457.41"/><line class="cls-4" x1="456.26" y1="457.41" x2="550.77" y2="349.41"/><line class="cls-5" x1="402.26" y1="169.41" x2="313.92" y2="527.34"/><line class="cls-5" x1="143.51" y1="295.41" x2="260.92" y2="527.78"/><line class="cls-5" x1="456.26" y1="169.41" x2="550.77" y2="421.41"/><line class="cls-3" x1="143.51" y1="349.41" x2="260.51" y2="241.41"/><line class="cls-3" x1="314.51" y1="241.41" x2="402.26" y2="169.41"/><line class="cls-3" x1="456.26" y1="169.41" x2="551.63" y2="491.89"/><line class="cls-6" x1="143.51" y1="398.91" x2="260.51" y2="529.41"/><line class="cls-6" x1="314.18" y1="528.31" x2="402.26" y2="313.41"/><line class="cls-6" x1="456.26" y1="313.41" x2="550.77" y2="421.8"/><line class="cls-3" x1="143.51" y1="457.41" x2="261.21" y2="531.54"/><line class="cls-3" x1="314.51" y1="529.41" x2="402.26" y2="529.41"/><line class="cls-1" x1="455.22" y1="527.86" x2="551.55" y2="421.94"/><line class="cls-7" x1="143.51" y1="511.41" x2="262.04" y2="381.95"/><line class="cls-7" x1="402.26" y1="169.41" x2="313.9" y2="383.69"/><line class="cls-7" x1="456.26" y1="169.41" x2="560.31" y2="472.83"/><line class="cls-8" x1="143.51" y1="565.41" x2="261.25" y2="168.45"/><line class="cls-8" x1="314.51" y1="169.41" x2="402.26" y2="169.41"/><line class="cls-8" x1="455.76" y1="168.27" x2="558.99" y2="402.03"/><circle class="cls-9" cx="429.26" cy="241.41" r="27"/><path class="cls-10" d="M429.32,250.3V234.81h-2.61v-2.28h5.11V250.3Z"/><circle class="cls-9" cx="429.26" cy="313.41" r="27"/><path class="cls-10" d="M423.76,322.46v-2.08l7.1-7.23a4.1,4.1,0,0,0,1.49-3.12,3.18,3.18,0,0,0-3.05-3.38c-1.9,0-3.14,1.51-3.14,3.81v.34h-2.5v-.31c0-4,2.81-6.12,5.59-6.12a5.61,5.61,0,0,1,5.6,5.73c0,1.75-.53,3-2.5,5l-4.92,5.06h7.44v2.28Z"/><circle class="cls-9" cx="429.26" cy="385.41" r="27"/><path class="cls-10" d="M428.29,385.89V383.4h.82a2.46,2.46,0,1,0,.26-4.92c-1.34,0-2.21.93-2.37,2.49h-2.5a5.38,5.38,0,0,1,1-2.88,5.12,5.12,0,0,1,4-1.89,4.67,4.67,0,0,1,4.77,4.92,4.13,4.13,0,0,1-1.63,3.45A5.11,5.11,0,0,1,435,389a5.47,5.47,0,0,1-5.76,5.64,5.64,5.64,0,0,1-5.73-5.57H426a3.26,3.26,0,1,0,6.51,0,3.18,3.18,0,0,0-3.41-3.2Z"/><circle class="cls-9" cx="429.26" cy="457.41" r="27"/><path class="cls-10" d="M431.14,466.3v-2.79H423v-2.42l8.12-12.56h2.49v12.7h1.87v2.28h-1.87v2.79Zm0-13.61h-.05l-5.19,8.54h5.24Z"/><circle class="cls-9" cx="429.26" cy="529.41" r="27"/><path class="cls-10" d="M420.65,522.65l-.67,3.93a3.92,3.92,0,0,1,2.47-.72A5.92,5.92,0,0,1,428.4,532c0,3.6-2.47,6.48-6.07,6.48-3.24,0-5.64-2.2-6.05-5.71h2.5c.48,2.28,1.82,3.43,3.57,3.43a3.77,3.77,0,0,0,3.55-3.88c0-2.21-1.36-4.16-3.45-4.16a3.49,3.49,0,0,0-3.19,1.85l-2.16-.5,1.48-9.12h8.12v2.28Z"/><path class="cls-10" d="M435,538.13V533.3h-4.8v-2.49H435V526h2.5v4.83h4.8v2.49h-4.8v4.83Z"/><circle class="cls-9" cx="429.26" cy="169.41" r="27"/><path class="cls-10" d="M435,173a5.75,5.75,0,1,1-11.49-.24v-6.6A5.75,5.75,0,1,1,435,166Zm-2.49-7a3.18,3.18,0,0,0-3.24-3.48A3.22,3.22,0,0,0,426,166v6.64c0,2,1.08,3.77,3.27,3.77a3.25,3.25,0,0,0,3.24-3.29Z"/><circle class="cls-9" cx="577.77" cy="205.41" r="27"/><path class="cls-10" d="M577.83,214.3V198.81h-2.62v-2.28h5.12V214.3Z"/><circle class="cls-9" cx="577.77" cy="277.41" r="27"/><path class="cls-10" d="M572.26,286.46v-2.08l7.11-7.23a4.08,4.08,0,0,0,1.48-3.12,3.17,3.17,0,0,0-3-3.38c-1.9,0-3.15,1.51-3.15,3.81v.34h-2.49v-.31c0-4,2.8-6.12,5.59-6.12a5.61,5.61,0,0,1,5.59,5.73c0,1.75-.53,3-2.5,5l-4.92,5.06h7.44v2.28Z"/><circle class="cls-9" cx="577.77" cy="349.41" r="27"/><path class="cls-10" d="M576.8,349.89V347.4h.81a2.46,2.46,0,1,0,.27-4.92c-1.35,0-2.21.93-2.38,2.49H573a5.31,5.31,0,0,1,1-2.88,5.1,5.1,0,0,1,4-1.89,4.68,4.68,0,0,1,4.78,4.92,4.13,4.13,0,0,1-1.63,3.45,5.13,5.13,0,0,1,2.4,4.42,5.48,5.48,0,0,1-5.76,5.64,5.66,5.66,0,0,1-5.74-5.57h2.5a3.25,3.25,0,1,0,6.5,0,3.18,3.18,0,0,0-3.41-3.2Z"/><circle class="cls-9" cx="577.77" cy="421.41" r="27"/><path class="cls-10" d="M579.64,430.3v-2.79h-8.11v-2.42l8.11-12.56h2.5v12.7H584v2.28h-1.87v2.79Zm0-13.61h0l-5.18,8.54h5.23Z"/><circle class="cls-9" cx="577.77" cy="493.41" r="27"/><path class="cls-10" d="M569.15,486.65l-.67,3.93a4,4,0,0,1,2.47-.72,5.92,5.92,0,0,1,6,6.12c0,3.6-2.47,6.48-6.08,6.48-3.24,0-5.64-2.2-6-5.71h2.49c.48,2.28,1.83,3.43,3.58,3.43a3.78,3.78,0,0,0,3.55-3.88c0-2.21-1.37-4.16-3.46-4.16a3.5,3.5,0,0,0-3.19,1.85l-2.16-.5,1.49-9.12h8.11v2.28Z"/><path class="cls-10" d="M583.46,502.13V497.3h-4.8v-2.49h4.8V490H586v4.83h4.8v2.49H586v4.83Z"/><circle class="cls-9" cx="287.51" cy="241.41" r="27"/><path class="cls-10" d="M287.57,250.3V234.81H285v-2.28h5.11V250.3Z"/><circle class="cls-9" cx="287.51" cy="313.41" r="27"/><path class="cls-10" d="M282,322.46v-2.08l7.1-7.23A4.1,4.1,0,0,0,290.6,310a3.18,3.18,0,0,0-3.05-3.38c-1.9,0-3.14,1.51-3.14,3.81v.34h-2.5v-.31c0-4,2.81-6.12,5.59-6.12a5.61,5.61,0,0,1,5.6,5.73c0,1.75-.53,3-2.5,5l-4.92,5.06h7.44v2.28Z"/><circle class="cls-9" cx="287.51" cy="385.41" r="27"/><path class="cls-10" d="M286.54,385.89V383.4h.82a2.46,2.46,0,1,0,.26-4.92c-1.34,0-2.21.93-2.37,2.49h-2.5a5.38,5.38,0,0,1,1-2.88,5.12,5.12,0,0,1,4-1.89,4.67,4.67,0,0,1,4.77,4.92,4.13,4.13,0,0,1-1.63,3.45,5.11,5.11,0,0,1,2.4,4.42,5.47,5.47,0,0,1-5.76,5.64,5.64,5.64,0,0,1-5.73-5.57h2.49a3.26,3.26,0,1,0,6.51,0,3.18,3.18,0,0,0-3.41-3.2Z"/><circle class="cls-9" cx="287.51" cy="457.41" r="27"/><path class="cls-10" d="M289.39,466.3v-2.79h-8.12v-2.42l8.12-12.56h2.49v12.7h1.87v2.28h-1.87v2.79Zm0-13.61h-.05l-5.19,8.54h5.24Z"/><circle class="cls-9" cx="287.51" cy="529.41" r="27"/><path class="cls-10" d="M278.9,522.65l-.67,3.93a3.92,3.92,0,0,1,2.47-.72,5.92,5.92,0,0,1,5.95,6.12c0,3.6-2.47,6.48-6.07,6.48-3.24,0-5.64-2.2-6.05-5.71H277c.48,2.28,1.82,3.43,3.57,3.43a3.77,3.77,0,0,0,3.55-3.88c0-2.21-1.36-4.16-3.45-4.16a3.49,3.49,0,0,0-3.19,1.85l-2.16-.5,1.48-9.12H285v2.28Z"/><path class="cls-10" d="M293.2,538.13V533.3h-4.8v-2.49h4.8V526h2.5v4.83h4.8v2.49h-4.8v4.83Z"/><circle class="cls-9" cx="287.51" cy="169.41" r="27"/><path class="cls-10" d="M293.26,173a5.75,5.75,0,1,1-11.49-.24v-6.6a5.75,5.75,0,1,1,11.49-.16Zm-2.49-7a3.18,3.18,0,0,0-3.24-3.48,3.22,3.22,0,0,0-3.27,3.48v6.64c0,2,1.08,3.77,3.27,3.77a3.25,3.25,0,0,0,3.24-3.29Z"/><rect class="cls-11" x="35.51" y="110.91" width="108" height="45"/><rect class="cls-12" x="35.51" y="164.91" width="108" height="45"/><rect class="cls-13" x="35.51" y="218.91" width="108" height="45"/><rect class="cls-14" x="35.51" y="272.91" width="108" height="45"/><rect class="cls-15" x="35.51" y="326.91" width="108" height="45"/><rect class="cls-16" x="35.51" y="380.91" width="108" height="45"/><rect class="cls-17" x="35.51" y="434.91" width="108" height="45"/><rect class="cls-18" x="35.51" y="488.91" width="108" height="45"/><rect class="cls-19" x="35.51" y="542.91" width="108" height="45"/><path d="M43.33,182.91v-8.14h2.41a5.05,5.05,0,0,1,2.69.72,4.06,4.06,0,0,1,1.77,3.4,4,4,0,0,1-1.17,2.8,4.45,4.45,0,0,1-3.33,1.22Zm2.31-.73a3.71,3.71,0,0,0,2.85-1,3.45,3.45,0,0,0,.9-2.36,3.24,3.24,0,0,0-1.3-2.64,4.08,4.08,0,0,0-2.48-.69H44.14v6.67Z"/><path d="M56.09,182.91V182h0a2,2,0,0,1-1.92,1.08,2.45,2.45,0,0,1-2.61-2.72V176.9h.77v3.35c0,1.37.59,2.11,1.84,2.11A1.9,1.9,0,0,0,56,180.2v-3.3h.77v6Z"/><path d="M58.42,185V176.9h.77v1h0a2.79,2.79,0,0,1,2.34-1.21,3.16,3.16,0,1,1,0,6.32,2.81,2.81,0,0,1-2.34-1.2h0V185Zm3.12-7.59a2.45,2.45,0,0,0-2.39,2.47,2.44,2.44,0,1,0,2.39-2.47Z"/><path d="M65.84,179.94A3.15,3.15,0,1,1,69,183.06,3.18,3.18,0,0,1,65.84,179.94Zm5.53-.07A2.38,2.38,0,1,0,69,182.36,2.42,2.42,0,0,0,71.37,179.87Z"/><path d="M78,182.91v-3.35a1.89,1.89,0,1,0-3.75-.06v3.41h-.77v-6h.77v.77h0a2.15,2.15,0,0,1,1.85-.93,2.56,2.56,0,0,1,2.65,2.82v3.35Z"/><path d="M81.05,182.91v-5.32H79.78v-.69h1.27v-2.13h.77v2.13h1.44v.69H81.82v5.32Z"/><path d="M92.6,182.91V179.1H88.38v3.81h-.81v-8.14h.81v3.59H92.6v-3.59h.81v8.14Z"/><path d="M95.62,180.19A2.39,2.39,0,0,0,98,182.36a2.27,2.27,0,0,0,2.16-1.42h.81a3.14,3.14,0,1,1-3-4.2,3.22,3.22,0,0,1,3.16,3.22c0,.07,0,.15,0,.23Zm4.7-.7a2.37,2.37,0,0,0-4.7,0Z"/><path d="M107.79,182.91v-1h0a2.78,2.78,0,0,1-2.35,1.2,3.16,3.16,0,1,1,0-6.32,2.73,2.73,0,0,1,2.35,1.21h0v-1h.77v6Zm0-3a2.44,2.44,0,0,0-2.42-2.47,2.41,2.41,0,0,0-2.45,2.48,2.39,2.39,0,0,0,2.46,2.44A2.43,2.43,0,0,0,107.83,179.91Z"/><path d="M112,182.91l-2.54-6h.83l2.12,5.06,2.16-5.06h.82l-2.54,6Z"/><path d="M117.13,185l1-2.31-2.34-5.82h.81l1.92,4.79,2-4.79h.82L117.93,185Z"/><path d="M49.6,196.11l-1.79-6.67h0L46,196.11H45L42.64,188h.83l2,7.1h0l1.94-7.1h.76l2,7.09h0l2-7.09H53l-2.34,8.14Z"/><path d="M58.75,196.11v-1.05h0a2.78,2.78,0,0,1-2.34,1.2,3.16,3.16,0,1,1,0-6.32,2.71,2.71,0,0,1,2.34,1.21h0V190.1h.77v6Zm0-3a2.44,2.44,0,0,0-2.42-2.47,2.46,2.46,0,1,0,2.42,2.47Z"/><path d="M61.79,196.11v-5.32H60.52v-.69h1.27V188h.77v2.13H64v.69H62.56v5.32Z"/><path d="M65.47,193.39a2.39,2.39,0,0,0,2.33,2.17A2.27,2.27,0,0,0,70,194.14h.81a3.14,3.14,0,1,1-3-4.2A3.22,3.22,0,0,1,71,193.16c0,.07,0,.15,0,.23Zm4.7-.7a2.37,2.37,0,0,0-4.7,0Z"/><path d="M72.29,196.11v-6h.77V191h0a1.69,1.69,0,0,1,1.7-1v.82h0a1.73,1.73,0,0,0-1.71,1.8v3.55Z"/><path d="M79.09,196.11V188h2.46c2.25,0,2.92,1.34,2.92,2.46s-.71,2.41-2.93,2.41H79.9v3.27Zm2.63-4a1.74,1.74,0,0,0,1.93-1.7c0-.81-.51-1.69-2.11-1.69H79.9v3.39Z"/><path d="M85.66,196.11V188h.77v8.14Z"/><path d="M93.37,196.11v-1.05h0a2.78,2.78,0,0,1-2.35,1.2,3.16,3.16,0,1,1,0-6.32,2.73,2.73,0,0,1,2.35,1.21h0V190.1h.77v6Zm0-3A2.44,2.44,0,0,0,91,190.64a2.46,2.46,0,1,0,2.42,2.47Z"/><path d="M100.22,196.11v-3.35a1.89,1.89,0,1,0-3.75-.06v3.41H95.7v-6h.77v.77h0a2.16,2.16,0,0,1,1.85-.93,2.56,2.56,0,0,1,2.65,2.82v3.35Z"/><path d="M103.28,196.11v-5.32H102v-.69h1.27V188h.77v2.13h1.44v.69h-1.44v5.32Z"/><path d="M43.28,245.41v-8.14h4.46V238H44.1v2.93h3.52v.73H44.1v3h3.64v.73Z"/><path d="M54.64,245.41v-1h0a2.78,2.78,0,0,1-2.35,1.2,3.16,3.16,0,1,1,0-6.32,2.73,2.73,0,0,1,2.35,1.21h0v-1h.77v6Zm0-3a2.45,2.45,0,0,0-2.42-2.47,2.46,2.46,0,1,0,2.42,2.47Z"/><path d="M57.67,245.41v-5.32H56.41v-.69h1.26v-2.13h.77v2.13h1.44v.69H58.44v5.32Z"/><path d="M60.61,242.44a3.15,3.15,0,1,1,3.13,3.12A3.18,3.18,0,0,1,60.61,242.44Zm5.52-.07a2.38,2.38,0,1,0-2.37,2.49A2.42,2.42,0,0,0,66.13,242.37Z"/><path d="M72.75,245.41v-3.35A1.89,1.89,0,1,0,69,242v3.41h-.77v-6H69v.77h0a2.16,2.16,0,0,1,1.85-.93,2.56,2.56,0,0,1,2.65,2.82v3.35Z"/><path d="M77.42,240.88a.92.92,0,0,0-.91-.94.89.89,0,0,0-.91.9c0,.44.31.75,1.05,1,1.46.48,1.75,1.06,1.75,1.92a1.74,1.74,0,0,1-1.9,1.81,1.79,1.79,0,0,1-1.84-1.88v-.05h.77c0,.8.42,1.23,1.07,1.23a1,1,0,0,0,1.13-1.07c0-.59-.38-.91-1.07-1.16-1.06-.38-1.73-.68-1.73-1.72a1.65,1.65,0,0,1,1.72-1.67,1.61,1.61,0,0,1,1.64,1.64Z"/><path d="M84,245.41V238H82.1v-.74h4.55V238H84.79v7.4Z"/><path d="M91.61,245.41v-.93h0a2,2,0,0,1-1.92,1.08,2.45,2.45,0,0,1-2.61-2.72V239.4h.77v3.35c0,1.37.59,2.11,1.84,2.11a1.9,1.9,0,0,0,1.89-2.16v-3.3h.77v6Z"/><path d="M98.47,245.41v-3.35a1.89,1.89,0,1,0-3.75-.06v3.41H94v-6h.77v.77h0a2.16,2.16,0,0,1,1.85-.93,2.56,2.56,0,0,1,2.65,2.82v3.35Z"/><path d="M105.35,245.41v-3.35a1.89,1.89,0,1,0-3.76-.06v3.41h-.77v-6h.77v.77h0a2.13,2.13,0,0,1,1.84-.93,2.56,2.56,0,0,1,2.66,2.82v3.35Z"/><path d="M108.19,242.69a2.4,2.4,0,0,0,2.34,2.17,2.26,2.26,0,0,0,2.15-1.42h.82a3.14,3.14,0,1,1-3-4.2,3.22,3.22,0,0,1,3.15,3.22c0,.07,0,.15,0,.23Zm4.7-.7a2.37,2.37,0,0,0-4.7,0Z"/><path d="M115,245.41v-8.14h.77v8.14Z"/><path d="M43.33,136.56v-8.14h2.09c1.7,0,2.62.93,2.62,2.16a1.92,1.92,0,0,1-.89,1.64,2.15,2.15,0,0,1,1.35,2c0,1.11-.63,2.33-2.75,2.33Zm2.1-4.63c1.56,0,1.79-.91,1.79-1.38s-.35-1.4-1.86-1.4H44.14v2.78Zm.25,3.89c1,0,2-.42,2-1.59,0-.93-.8-1.57-2-1.57H44.14v3.16Z"/><path d="M49.71,136.56v-8.14h.77v8.14Z"/><path d="M56.58,136.56v-.94h0a2,2,0,0,1-1.91,1.08A2.44,2.44,0,0,1,52,134v-3.44h.77v3.36c0,1.36.58,2.11,1.84,2.11a1.91,1.91,0,0,0,1.89-2.17v-3.3h.77v6Z"/><path d="M59.42,133.83A2.4,2.4,0,0,0,61.75,136a2.28,2.28,0,0,0,2.16-1.42h.81a3.14,3.14,0,1,1-3-4.2,3.22,3.22,0,0,1,3.16,3.21c0,.08,0,.15,0,.23Zm4.7-.69a2.41,2.41,0,0,0-2.37-2.06,2.38,2.38,0,0,0-2.33,2.06Z"/><path d="M74.6,136.56v-3.82H70.39v3.82h-.82v-8.14h.82V132H74.6v-3.58h.82v8.14Z"/><path d="M76.88,133.59A3.15,3.15,0,1,1,80,136.7,3.18,3.18,0,0,1,76.88,133.59Zm5.52-.08A2.38,2.38,0,1,0,80,136,2.42,2.42,0,0,0,82.4,133.51Z"/><path d="M84.5,136.56v-8.14h.77v8.14Z"/><path d="M87.36,133.83A2.4,2.4,0,0,0,89.69,136a2.28,2.28,0,0,0,2.16-1.42h.81a3.14,3.14,0,1,1-3-4.2,3.22,3.22,0,0,1,3.16,3.21c0,.08,0,.15,0,.23Zm4.7-.69a2.41,2.41,0,0,0-2.37-2.06,2.38,2.38,0,0,0-2.33,2.06Z"/><path d="M43.42,290.91v-8.14h.81v7.41H47.6v.73Z"/><path d="M53.82,290.91v-1.05h0a2.75,2.75,0,0,1-2.34,1.2,3.16,3.16,0,1,1,0-6.32A2.7,2.7,0,0,1,53.8,286h0V284.9h.77v6Zm0-3a2.45,2.45,0,0,0-2.42-2.47,2.46,2.46,0,1,0,2.42,2.47Z"/><path d="M59.93,290.91l-2-2.37-1,1.23v1.14h-.77v-8.14H57v5.8h0l2.81-3.67h1l-2.38,3,2.5,3Z"/><path d="M62.12,288.19a2.37,2.37,0,0,0,2.33,2.17,2.26,2.26,0,0,0,2.15-1.42h.82a3.14,3.14,0,1,1-3-4.2A3.22,3.22,0,0,1,67.61,288c0,.07,0,.15,0,.23Zm4.69-.7a2.37,2.37,0,0,0-4.69,0Z"/><path d="M75.62,284.84a1.47,1.47,0,0,0-1.44-1.47,1.42,1.42,0,0,0-1.47,1.42c0,.69.42,1.12,1.57,1.42,1.76.45,2.36,1.36,2.36,2.46a2.41,2.41,0,0,1-2.46,2.39,2.37,2.37,0,0,1-2.5-2.42h.81a1.67,1.67,0,0,0,3.33.06c0-.88-.58-1.37-1.65-1.68s-2.28-.71-2.28-2.2a2.28,2.28,0,0,1,4.55,0Z"/><path d="M82.28,290.91v-3.35a1.89,1.89,0,1,0-3.75-.06v3.41h-.77v-8.14h.77v2.9h0a2.15,2.15,0,0,1,1.85-.93,2.56,2.56,0,0,1,2.65,2.82v3.35Z"/><path d="M90,290.91v-1.05h0a2.75,2.75,0,0,1-2.34,1.2,3.16,3.16,0,1,1,0-6.32A2.7,2.7,0,0,1,90,286h0V284.9h.77v6Zm0-3a2.45,2.45,0,0,0-2.42-2.47,2.46,2.46,0,1,0,2.42,2.47Z"/><path d="M97.48,290.91l-1.27-4h0l-1.25,4h-.87l-2.29-6h.81l1.89,5h0l1.37-4.32h.68l1.38,4.32h0l1.92-5h.79l-2.3,6Z"/><path d="M106.17,290.91v-3.35a1.89,1.89,0,1,0-3.75-.06v3.41h-.77v-6h.77v.77h0a2.16,2.16,0,0,1,1.85-.93,2.56,2.56,0,0,1,2.65,2.82v3.35Z"/><path d="M109,288.19a2.39,2.39,0,0,0,2.33,2.17,2.27,2.27,0,0,0,2.16-1.42h.81a3.14,3.14,0,1,1-3-4.2,3.22,3.22,0,0,1,3.16,3.22c0,.07,0,.15,0,.23Zm4.7-.7a2.37,2.37,0,0,0-4.7,0Z"/><path d="M116.33,288.19a2.39,2.39,0,0,0,2.34,2.17,2.26,2.26,0,0,0,2.15-1.42h.82a3.14,3.14,0,1,1-3-4.2,3.22,3.22,0,0,1,3.15,3.22c0,.07,0,.15,0,.23Zm4.7-.7a2.37,2.37,0,0,0-4.7,0Z"/><path d="M49.64,304.11l-1.17-2.73H44.68l-1.19,2.73h-.84L46.12,296H47l3.49,8.14Zm-3.06-7.21L45,300.64h3.16Z"/><path d="M59.64,304.11v-3.53c0-1.14-.55-1.94-1.64-1.94s-1.64.79-1.64,2v3.51h-.77v-3.52c0-1.17-.57-1.95-1.64-1.95s-1.64.78-1.64,1.95v3.52h-.77v-6h.77v.69a1.9,1.9,0,0,1,1.64-.85,2.26,2.26,0,0,1,2,1.16,2.3,2.3,0,0,1,2-1.16,2.36,2.36,0,0,1,2.41,2.57v3.6Z"/><path d="M66.53,304.11v-.93h0a2,2,0,0,1-1.92,1.08A2.44,2.44,0,0,1,62,301.54V298.1h.77v3.35c0,1.37.59,2.11,1.84,2.11a1.9,1.9,0,0,0,1.89-2.16v-3.3h.77v6Z"/><path d="M71.18,299.58a.91.91,0,0,0-.9-.94.89.89,0,0,0-.92.9c0,.44.31.75,1,1,1.46.48,1.75,1.07,1.75,1.92a1.73,1.73,0,0,1-1.89,1.81,1.79,1.79,0,0,1-1.85-1.88v-.05h.77c0,.81.43,1.23,1.08,1.23a1,1,0,0,0,1.12-1.07c0-.59-.38-.91-1.07-1.16-1-.38-1.73-.68-1.73-1.72a1.65,1.65,0,0,1,1.72-1.67A1.61,1.61,0,0,1,72,299.58Z"/><path d="M73.8,301.39a2.37,2.37,0,0,0,2.33,2.17,2.28,2.28,0,0,0,2.16-1.42h.81a3.14,3.14,0,1,1-3-4.2,3.22,3.22,0,0,1,3.16,3.22c0,.07,0,.15,0,.23Zm4.69-.7a2.37,2.37,0,0,0-4.69,0Z"/><path d="M88.73,304.11v-3.53c0-1.14-.55-1.94-1.64-1.94s-1.64.79-1.64,2v3.51h-.77v-3.52c0-1.17-.58-1.95-1.64-1.95s-1.64.78-1.64,1.95v3.52h-.77v-6h.77v.69a1.89,1.89,0,0,1,1.64-.85,2.24,2.24,0,0,1,2,1.16,2.31,2.31,0,0,1,2-1.16,2.36,2.36,0,0,1,2.41,2.57v3.6Z"/><path d="M91.6,301.39a2.37,2.37,0,0,0,2.33,2.17,2.26,2.26,0,0,0,2.15-1.42h.82a3.14,3.14,0,1,1-3-4.2,3.22,3.22,0,0,1,3.16,3.22c0,.07,0,.15,0,.23Zm4.69-.7a2.37,2.37,0,0,0-4.69,0Z"/><path d="M102.94,304.11v-3.35a1.89,1.89,0,1,0-3.75-.06v3.41h-.77v-6h.77v.77h0a2.14,2.14,0,0,1,1.85-.93,2.56,2.56,0,0,1,2.65,2.82v3.35Z"/><path d="M106,304.11v-5.32h-1.26v-.69H106V296h.77v2.13h1.45v.69h-1.45v5.32Z"/><path d="M112.51,304.11V296H115c2.25,0,2.92,1.34,2.92,2.46s-.71,2.41-2.93,2.41h-1.64v3.27Zm2.63-4a1.74,1.74,0,0,0,1.93-1.7c0-.81-.52-1.69-2.11-1.69h-1.64v3.39Z"/><path d="M124.42,304.11v-1.05h0a2.78,2.78,0,0,1-2.35,1.2,3.16,3.16,0,1,1,0-6.32,2.73,2.73,0,0,1,2.35,1.21h0v-1h.77v6Zm0-3a2.44,2.44,0,0,0-2.42-2.47,2.46,2.46,0,1,0,2.42,2.47Z"/><path d="M126.75,304.11v-6h.77V299h0a1.69,1.69,0,0,1,1.7-1v.82h0a1.72,1.72,0,0,0-1.71,1.8v3.55Z"/><path d="M134.32,304.11l-2-2.37-1,1.23v1.14h-.77V296h.77v5.8h0l2.81-3.67h1l-2.38,3,2.5,3Z"/><path d="M51,344.91v-7.25h0l-3.05,7.25h-.69l-3-7.25h0v7.25h-.81v-8.14H44.6l3,6.93,3-6.93h1.26v8.14Z"/><path d="M53.25,341.94a3.15,3.15,0,1,1,3.14,3.12A3.18,3.18,0,0,1,53.25,341.94Zm5.52-.07a2.42,2.42,0,0,0-2.38-2.43,2.46,2.46,0,0,0,0,4.92A2.41,2.41,0,0,0,58.77,341.87Z"/><path d="M65.38,344.91V344h0a2,2,0,0,1-1.91,1.08,2.44,2.44,0,0,1-2.61-2.72V338.9h.77v3.35c0,1.37.58,2.11,1.84,2.11a1.9,1.9,0,0,0,1.89-2.16v-3.3h.77v6Z"/><path d="M72.25,344.91v-3.35a1.89,1.89,0,1,0-3.75-.06v3.41h-.77v-6h.77v.77h0a2.14,2.14,0,0,1,1.85-.93A2.56,2.56,0,0,1,73,341.56v3.35Z"/><path d="M79.91,344.91v-1.05h0a2.79,2.79,0,0,1-2.34,1.2,3.16,3.16,0,1,1,0-6.32,2.84,2.84,0,0,1,2.34,1.19h0v-3.16h.77v8.14Zm0-3a2.44,2.44,0,0,0-2.42-2.47A2.46,2.46,0,1,0,80,341.91Z"/><path d="M84.61,340.38a.91.91,0,0,0-.9-.94.89.89,0,0,0-.91.9c0,.44.3.75,1,1,1.46.48,1.75,1.06,1.75,1.92a1.73,1.73,0,0,1-1.89,1.81,1.79,1.79,0,0,1-1.85-1.88v-.05h.77c0,.81.43,1.23,1.08,1.23a1,1,0,0,0,1.12-1.07c0-.59-.37-.91-1.07-1.16-1-.38-1.72-.68-1.72-1.72a1.64,1.64,0,0,1,1.71-1.67,1.61,1.61,0,0,1,1.64,1.64Z"/><path d="M88.64,344.91l-2.54-6h.82L89,344l2.16-5.06H92l-2.55,6Z"/><path d="M93,338.16v-1.39h.77v1.39Zm0,6.75v-6h.77v6Z"/><path d="M95.36,344.91v-8.14h.77v8.14Z"/><path d="M97.72,344.91v-8.14h.77v8.14Z"/><path d="M100.58,342.19a2.39,2.39,0,0,0,2.33,2.17,2.27,2.27,0,0,0,2.16-1.42h.82a3.14,3.14,0,1,1-3-4.2,3.22,3.22,0,0,1,3.16,3.22c0,.07,0,.15,0,.23Zm4.7-.7a2.37,2.37,0,0,0-4.7,0Z"/><path d="M43.34,358.11V350H45.8c2.25,0,2.92,1.34,2.92,2.46s-.71,2.41-2.93,2.41H44.15v3.27Zm2.63-4a1.74,1.74,0,0,0,1.93-1.7c0-.81-.51-1.69-2.11-1.69H44.15v3.39Z"/><path d="M50.4,355.39a2.39,2.39,0,0,0,2.33,2.17,2.27,2.27,0,0,0,2.16-1.42h.81a3.14,3.14,0,1,1-3-4.2,3.22,3.22,0,0,1,3.16,3.22c0,.07,0,.15,0,.23Zm4.7-.7a2.37,2.37,0,0,0-4.7,0Z"/><path d="M61.74,358.11v-3.35A1.89,1.89,0,1,0,58,354.7v3.41h-.77v-6H58v.77h0a2.16,2.16,0,0,1,1.85-.93,2.56,2.56,0,0,1,2.65,2.82v3.35Z"/><path d="M64.59,355.39a2.39,2.39,0,0,0,2.33,2.17,2.27,2.27,0,0,0,2.16-1.42h.81a3.14,3.14,0,1,1-3-4.2,3.22,3.22,0,0,1,3.16,3.22c0,.07,0,.15,0,.23Zm4.7-.7a2.37,2.37,0,0,0-4.7,0Z"/><path d="M72.12,358.11v-5.32H70.85v-.69h1.27V350h.77v2.13h1.44v.69H72.89v5.32Z"/><path d="M75.8,355.39a2.39,2.39,0,0,0,2.33,2.17,2.27,2.27,0,0,0,2.16-1.42h.81a3.14,3.14,0,1,1-3-4.2,3.22,3.22,0,0,1,3.16,3.22c0,.07,0,.15,0,.23Zm4.7-.7a2.37,2.37,0,0,0-4.7,0Z"/><path d="M87.14,358.11v-3.35a1.89,1.89,0,1,0-3.75-.06v3.41h-.77v-6h.77v.77h0a2.16,2.16,0,0,1,1.85-.93,2.56,2.56,0,0,1,2.65,2.82v3.35Z"/><path d="M90.2,358.11v-5.32H88.93v-.69H90.2V350H91v2.13h1.44v.69H91v5.32Z"/><path d="M93.39,351.36V350h.77v1.39Zm0,6.75v-6h.77v6Z"/><path d="M101.1,358.11v-1.05h0a2.78,2.78,0,0,1-2.35,1.2,3.16,3.16,0,1,1,0-6.32,2.72,2.72,0,0,1,2.35,1.21h0v-1h.77v6Zm0-3a2.44,2.44,0,0,0-2.42-2.47,2.46,2.46,0,1,0,2.42,2.47Z"/><path d="M103.43,358.11v-6h.77V353h0a1.69,1.69,0,0,1,1.7-1v.82h0a1.73,1.73,0,0,0-1.71,1.8v3.55Z"/><path d="M107.66,360.23l1-2.31-2.34-5.82h.81l1.92,4.79,2-4.79H112l-3.49,8.13Z"/><path d="M44.45,398.91v-7.4H42.58v-.74h4.54v.74H45.26v7.4Z"/><path d="M47.26,395.94a3.15,3.15,0,1,1,3.13,3.12A3.18,3.18,0,0,1,47.26,395.94Zm5.52-.07a2.38,2.38,0,1,0-2.38,2.49A2.42,2.42,0,0,0,52.78,395.87Z"/><path d="M60,398.91l-1.28-4h0l-1.26,4h-.87l-2.28-6h.8l1.89,5h0l1.38-4.32h.67l1.39,4.32h0l1.91-5h.79l-2.29,6Z"/><path d="M68.71,398.91v-3.35A1.89,1.89,0,1,0,65,395.5v3.41h-.77v-6H65v.77h0a2.13,2.13,0,0,1,1.84-.93,2.56,2.56,0,0,1,2.66,2.82v3.35Z"/><path d="M74,395.94a3.15,3.15,0,1,1,3.13,3.12A3.18,3.18,0,0,1,74,395.94Zm5.52-.07a2.38,2.38,0,1,0-2.38,2.49A2.42,2.42,0,0,0,79.54,395.87Z"/><path d="M82.07,398.91v-5.32h-.94v-.69h.94c0-1.65.78-2.24,2.31-2.27v.72h0c-1.07,0-1.52.44-1.52,1.5v0h1.54v.69H82.84v5.32Z"/><path d="M46,412.11,42.6,404h.9l2.88,7.13L49.26,404h.88l-3.38,8.14Z"/><path d="M49.72,409.14a3.15,3.15,0,1,1,3.13,3.12A3.18,3.18,0,0,1,49.72,409.14Zm5.52-.07a2.38,2.38,0,1,0-2.37,2.49A2.42,2.42,0,0,0,55.24,409.07Z"/><path d="M57.34,412.11V404h.77v8.14Z"/><path d="M65.67,410.34a3.19,3.19,0,0,1-3,1.92,3.15,3.15,0,0,1-3.24-3.21,3.22,3.22,0,0,1,3.24-3.11,3.16,3.16,0,0,1,3,2h-.85a2.37,2.37,0,0,0-2.12-1.27,2.46,2.46,0,1,0,0,4.92,2.29,2.29,0,0,0,2.12-1.22Z"/><path d="M72.34,412.11v-1.05h0a2.75,2.75,0,0,1-2.34,1.2,3.16,3.16,0,1,1,0-6.32,2.7,2.7,0,0,1,2.34,1.21h0v-1h.77v6Zm0-3A2.45,2.45,0,0,0,70,406.64a2.46,2.46,0,1,0,2.42,2.47Z"/><path d="M79.19,412.11v-3.35a1.89,1.89,0,1,0-3.75-.06v3.41h-.77v-6h.77v.77h0a2.15,2.15,0,0,1,1.85-.93A2.56,2.56,0,0,1,80,408.76v3.35Z"/><path d="M81.29,409.14a3.15,3.15,0,1,1,3.13,3.12A3.18,3.18,0,0,1,81.29,409.14Zm5.52-.07a2.38,2.38,0,1,0-2.38,2.49A2.42,2.42,0,0,0,86.81,409.07Z"/><path d="M96.56,412.11l-2.76-3.68h.79c1.44,0,2.3-.74,2.3-1.85,0-.77-.48-1.87-2.35-1.87H93v7.4h-.81V404h2.45c2.13,0,3.07,1.26,3.07,2.63a2.49,2.49,0,0,1-2.42,2.48l2.3,3Z"/><path d="M103.48,412.11v-.93h0a2,2,0,0,1-1.91,1.08,2.44,2.44,0,0,1-2.61-2.72V406.1h.77v3.35c0,1.37.59,2.11,1.84,2.11a1.9,1.9,0,0,0,1.89-2.16v-3.3h.77v6Z"/><path d="M105.82,405.36V404h.77v1.39Zm0,6.75v-6h.77v6Z"/><path d="M112.71,412.11v-3.35a1.89,1.89,0,1,0-3.76-.06v3.41h-.77v-6H109v.77h0a2.13,2.13,0,0,1,1.84-.93,2.56,2.56,0,0,1,2.66,2.82v3.35Z"/><path d="M117.37,407.58a.92.92,0,0,0-.9-.94.89.89,0,0,0-.92.9c0,.44.31.75,1,1,1.46.48,1.75,1.07,1.75,1.92a1.73,1.73,0,0,1-1.89,1.81,1.79,1.79,0,0,1-1.85-1.88v-.05h.77c0,.81.43,1.23,1.08,1.23a1,1,0,0,0,1.12-1.07c0-.59-.38-.91-1.07-1.16-1.06-.38-1.73-.68-1.73-1.72a1.65,1.65,0,0,1,1.72-1.67,1.61,1.61,0,0,1,1.64,1.64Z"/><path d="M46.1,449.91v-.74h5.52a4.26,4.26,0,0,1-4.3,3.89A4.35,4.35,0,0,1,43,448.84a4.36,4.36,0,0,1,8.21-1.9h-.94a3.42,3.42,0,0,0-2.9-1.57,3.48,3.48,0,1,0,0,6.95,3.43,3.43,0,0,0,3.29-2.41Z"/><path d="M57.47,452.91v-3.35a1.89,1.89,0,1,0-3.75-.06v3.41H53v-8.14h.77v2.9h0a2.16,2.16,0,0,1,1.85-.93,2.56,2.56,0,0,1,2.65,2.82v3.35Z"/><path d="M59.61,449.94a3.15,3.15,0,1,1,3.13,3.12A3.18,3.18,0,0,1,59.61,449.94Zm5.52-.07a2.38,2.38,0,1,0-2.38,2.49A2.42,2.42,0,0,0,65.13,449.87Z"/><path d="M69.54,448.38a.91.91,0,0,0-.9-.94.89.89,0,0,0-.91.9c0,.44.3.75,1,1,1.46.48,1.75,1.06,1.75,1.92a1.73,1.73,0,0,1-1.89,1.81,1.79,1.79,0,0,1-1.85-1.88v-.05h.77c0,.81.43,1.23,1.08,1.23a1,1,0,0,0,1.12-1.07c0-.59-.37-.91-1.07-1.16-1.05-.38-1.72-.68-1.72-1.72a1.64,1.64,0,0,1,1.71-1.67,1.61,1.61,0,0,1,1.64,1.64Z"/><path d="M72.37,452.91v-5.32H71.1v-.69h1.27v-2.13h.77v2.13h1.44v.69H73.14v5.32Z"/><path d="M80,452.91v-7.4H78.12v-.74h4.54v.74H80.8v7.4Z"/><path d="M82.8,449.94a3.15,3.15,0,1,1,3.13,3.12A3.18,3.18,0,0,1,82.8,449.94Zm5.52-.07a2.38,2.38,0,1,0-2.38,2.49A2.42,2.42,0,0,0,88.32,449.87Z"/><path d="M95.56,452.91l-1.28-4h0l-1.26,4h-.87l-2.28-6h.8l1.89,5h0l1.38-4.32h.67L96,451.94h0l1.91-5h.79l-2.29,6Z"/><path d="M104.25,452.91v-3.35a1.89,1.89,0,1,0-3.76-.06v3.41h-.77v-6h.77v.77h0a2.14,2.14,0,0,1,1.85-.93,2.56,2.56,0,0,1,2.65,2.82v3.35Z"/><path d="M109.56,449.94a3.15,3.15,0,1,1,3.13,3.12A3.18,3.18,0,0,1,109.56,449.94Zm5.52-.07a2.38,2.38,0,1,0-2.38,2.49A2.42,2.42,0,0,0,115.08,449.87Z"/><path d="M117.61,452.91v-5.32h-.93v-.69h.93c0-1.65.78-2.24,2.31-2.27v.72h0c-1.07,0-1.52.44-1.52,1.5v0h1.54v.69h-1.54v5.32Z"/><path d="M44.45,466.11v-7.4H42.58V458h4.54v.74H45.26v7.4Z"/><path d="M52.57,466.11v-3.35a1.89,1.89,0,1,0-3.75-.06v3.41h-.77V458h.77v2.9h0a2.15,2.15,0,0,1,1.85-.93,2.56,2.56,0,0,1,2.65,2.82v3.35Z"/><path d="M59.47,466.11v-.93h0a2,2,0,0,1-1.91,1.08,2.44,2.44,0,0,1-2.61-2.72V460.1h.77v3.35c0,1.37.58,2.11,1.84,2.11a1.9,1.9,0,0,0,1.89-2.16v-3.3h.77v6Z"/><path d="M61.81,466.11v-6h.77V461h0a1.68,1.68,0,0,1,1.69-1v.82h0a1.72,1.72,0,0,0-1.7,1.8v3.55Z"/><path d="M73.7,466.11v-3.53c0-1.14-.55-1.94-1.64-1.94s-1.64.79-1.64,2v3.51h-.77v-3.52c0-1.17-.57-1.95-1.64-1.95s-1.64.78-1.64,1.95v3.52H65.6v-6h.77v.69a1.9,1.9,0,0,1,1.64-.85,2.26,2.26,0,0,1,2,1.16,2.3,2.3,0,0,1,2-1.16,2.36,2.36,0,0,1,2.41,2.57v3.6Z"/><path d="M75.82,463.14A3.15,3.15,0,1,1,79,466.26,3.18,3.18,0,0,1,75.82,463.14Zm5.52-.07A2.42,2.42,0,0,0,79,460.64a2.46,2.46,0,0,0,0,4.92A2.41,2.41,0,0,0,81.34,463.07Z"/><path d="M88,466.11v-3.35a1.89,1.89,0,1,0-3.76-.06v3.41h-.77v-6h.77v.77h0a2.13,2.13,0,0,1,1.84-.93,2.56,2.56,0,0,1,2.66,2.82v3.35Z"/><path d="M95.63,466.11v-1.05h0a2.79,2.79,0,0,1-2.34,1.2,3.16,3.16,0,1,1,0-6.32,2.85,2.85,0,0,1,2.34,1.19h0V458h.77v8.14Zm.05-3a2.44,2.44,0,0,0-2.42-2.47,2.46,2.46,0,1,0,2.42,2.47Z"/><path d="M44.45,506.91v-7.4H42.58v-.74h4.54v.74H45.26v7.4Z"/><path d="M47.75,506.91v-6h.77v.87h0a1.69,1.69,0,0,1,1.7-1v.82h0a1.72,1.72,0,0,0-1.71,1.8v3.55Z"/><path d="M56.5,506.91v-1.05h0a2.75,2.75,0,0,1-2.34,1.2,3.16,3.16,0,1,1,0-6.32A2.7,2.7,0,0,1,56.47,502h0V500.9h.77v6Zm0-3a2.45,2.45,0,0,0-2.42-2.47,2.46,2.46,0,1,0,2.42,2.47Z"/><path d="M63.35,506.91v-3.35a1.89,1.89,0,1,0-3.75-.06v3.41h-.77v-6h.77v.77h0a2.15,2.15,0,0,1,1.85-.93,2.56,2.56,0,0,1,2.65,2.82v3.35Z"/><path d="M68,502.38a.91.91,0,0,0-.9-.94.89.89,0,0,0-.91.9c0,.44.3.75,1,1,1.47.48,1.75,1.06,1.75,1.92a1.73,1.73,0,0,1-1.89,1.81,1.79,1.79,0,0,1-1.85-1.88v-.05H66c0,.81.43,1.23,1.08,1.23a1,1,0,0,0,1.12-1.07c0-.59-.37-.91-1.07-1.16-1.05-.38-1.72-.68-1.72-1.72a1.64,1.64,0,0,1,1.71-1.67,1.6,1.6,0,0,1,1.64,1.64Z"/><path d="M69.75,504.19v-.74h3v.74Z"/><path d="M80.37,506.91l-1.18-2.73H75.4l-1.18,2.73h-.85l3.48-8.14h.91l3.5,8.14Zm-3.06-7.21-1.6,3.74h3.16Z"/><path d="M82.26,506.91v-8.14H83v8.14Z"/><path d="M84.62,506.91v-8.14h.77v8.14Z"/><path d="M87.48,504.19a2.39,2.39,0,0,0,2.33,2.17A2.27,2.27,0,0,0,92,504.94h.81a3.14,3.14,0,1,1-3-4.2A3.22,3.22,0,0,1,93,504c0,.07,0,.15,0,.23Zm4.7-.7a2.37,2.37,0,0,0-4.7,0Z"/><path d="M99.48,505.81h0a2.59,2.59,0,0,1-2.32,1.25A3.13,3.13,0,0,1,94,503.93a3.18,3.18,0,0,1,3.15-3.19A2.67,2.67,0,0,1,99.46,502h0V500.9h.77v5.38a2.81,2.81,0,0,1-2.93,3,3,3,0,0,1-3.08-2.21h.81a2.32,2.32,0,0,0,2.25,1.52,2.06,2.06,0,0,0,2.18-2.2Zm0-1.9a2.39,2.39,0,1,0-2.39,2.45A2.45,2.45,0,0,0,99.53,503.91Z"/><path d="M106.36,506.91v-3.35a1.89,1.89,0,1,0-3.75-.06v3.41h-.77v-8.14h.77v2.9h0a2.15,2.15,0,0,1,1.85-.93,2.56,2.56,0,0,1,2.65,2.82v3.35Z"/><path d="M109.24,504.19a2.39,2.39,0,0,0,2.33,2.17,2.27,2.27,0,0,0,2.16-1.42h.81a3.14,3.14,0,1,1-3-4.2,3.22,3.22,0,0,1,3.16,3.22c0,.07,0,.15,0,.23Zm4.7-.7a2.37,2.37,0,0,0-4.7,0Z"/><path d="M120.58,506.91v-3.35a1.89,1.89,0,1,0-3.75-.06v3.41h-.77v-6h.77v.77h0a2.16,2.16,0,0,1,1.85-.93,2.56,2.56,0,0,1,2.65,2.82v3.35Z"/><path d="M123.68,509l1-2.31-2.35-5.82h.82l1.91,4.79,2-4.79H128L124.49,509Z"/><path d="M43.42,520.11V512h.81v7.41H47.6v.73Z"/><path d="M53,520.11v-.93h0a2,2,0,0,1-1.91,1.08,2.44,2.44,0,0,1-2.61-2.72V514.1h.77v3.35c0,1.37.59,2.11,1.84,2.11a1.9,1.9,0,0,0,1.89-2.16v-3.3h.77v6Z"/><path d="M59.85,520.11v-3.35a1.89,1.89,0,1,0-3.75-.06v3.41h-.77v-6h.77v.77h0a2.16,2.16,0,0,1,1.85-.93,2.56,2.56,0,0,1,2.65,2.82v3.35Z"/><path d="M67.55,520.11v-1.05h0a2.78,2.78,0,0,1-2.35,1.2,3.16,3.16,0,1,1,0-6.32,2.72,2.72,0,0,1,2.35,1.21h0v-1h.77v6Zm0-3a2.44,2.44,0,0,0-2.42-2.47,2.46,2.46,0,1,0,2.42,2.47Z"/><path d="M70.59,520.11v-5.32H69.32v-.69h1.27V512h.77v2.13H72.8v.69H71.36v5.32Z"/><path d="M73.78,513.36V512h.77v1.39Zm0,6.75v-6h.77v6Z"/><path d="M82.1,518.34a3.25,3.25,0,0,1-6.22-1.29,3.21,3.21,0,0,1,3.23-3.11,3.16,3.16,0,0,1,3,2h-.84a2.38,2.38,0,0,0-2.13-1.27,2.46,2.46,0,1,0,0,4.92,2.3,2.3,0,0,0,2.13-1.22Z"/><path d="M93.05,520.11l-1.18-2.73H88.09l-1.19,2.73h-.85L89.53,512h.91l3.5,8.14ZM90,512.9l-1.6,3.74h3.16Z"/><path d="M97.25,515.58a.91.91,0,0,0-.9-.94.89.89,0,0,0-.92.9c0,.44.31.75,1,1,1.46.48,1.75,1.07,1.75,1.92a1.73,1.73,0,0,1-1.89,1.81,1.79,1.79,0,0,1-1.85-1.88v0h.77c0,.81.43,1.23,1.08,1.23a1,1,0,0,0,1.12-1.07c0-.59-.38-.91-1.07-1.16-1-.38-1.73-.68-1.73-1.72a1.65,1.65,0,0,1,1.72-1.67A1.61,1.61,0,0,1,98,515.58Z"/><path d="M100.12,522.23l1-2.31-2.35-5.82h.82l1.91,4.79,2-4.79h.81l-3.49,8.13Z"/><path d="M105.43,520.11V512h.77v8.14Z"/><path d="M112.31,520.11v-.93h0a2,2,0,0,1-1.92,1.08,2.45,2.45,0,0,1-2.61-2.72V514.1h.77v3.35c0,1.37.59,2.11,1.84,2.11a1.9,1.9,0,0,0,1.89-2.16v-3.3H113v6Z"/><path d="M122.76,520.11v-3.53c0-1.14-.55-1.94-1.64-1.94s-1.64.79-1.64,2v3.51h-.77v-3.52c0-1.17-.57-2-1.64-2s-1.64.78-1.64,2v3.52h-.77v-6h.77v.69a1.9,1.9,0,0,1,1.64-.85,2.26,2.26,0,0,1,2,1.16,2.3,2.3,0,0,1,2-1.16,2.36,2.36,0,0,1,2.41,2.57v3.6Z"/><path d="M49.6,560.91l-1.79-6.67h0L46,560.91H45l-2.32-8.14h.83l2,7.1h0l1.94-7.1h.76l2,7.09h0l2-7.09H53l-2.34,8.14Z"/><path d="M53.9,558.19a2.39,2.39,0,0,0,2.33,2.17,2.27,2.27,0,0,0,2.16-1.42h.81a3.14,3.14,0,1,1-3-4.2A3.22,3.22,0,0,1,59.39,558c0,.07,0,.15,0,.23Zm4.7-.7a2.37,2.37,0,0,0-4.7,0Z"/><path d="M63,556.38a.91.91,0,0,0-.9-.94.89.89,0,0,0-.92.9c0,.44.31.75,1,1,1.46.48,1.75,1.06,1.75,1.92a1.73,1.73,0,0,1-1.89,1.81,1.79,1.79,0,0,1-1.85-1.88v0H61c0,.81.43,1.23,1.08,1.23a1,1,0,0,0,1.12-1.07c0-.59-.38-.91-1.07-1.16-1.05-.38-1.73-.68-1.73-1.72a1.65,1.65,0,0,1,1.72-1.67,1.61,1.61,0,0,1,1.64,1.64Z"/><path d="M65.86,560.91v-5.32H64.59v-.69h1.27v-2.13h.77v2.13h1.44v.69H66.63v5.32Z"/><path d="M76.69,560.91l-2.76-3.68h.79c1.44,0,2.3-.74,2.3-1.85,0-.77-.47-1.87-2.34-1.87H73.13v7.4h-.82v-8.14h2.46c2.12,0,3.07,1.26,3.07,2.63a2.49,2.49,0,0,1-2.42,2.48l2.29,3Z"/><path d="M83.61,560.91V560h0a2,2,0,0,1-1.92,1.08,2.44,2.44,0,0,1-2.6-2.72V554.9h.77v3.35c0,1.37.58,2.11,1.83,2.11a1.91,1.91,0,0,0,1.9-2.16v-3.3h.77v6Z"/><path d="M90.47,560.91v-3.35a1.89,1.89,0,1,0-3.75-.06v3.41H86v-6h.77v.77h0a2.16,2.16,0,0,1,1.85-.93,2.56,2.56,0,0,1,2.65,2.82v3.35Z"/><path d="M51,572a4.33,4.33,0,0,1-3.76,2.28,4.21,4.21,0,1,1,3.72-6.2h-.91a3.46,3.46,0,0,0-2.83-1.48,3.47,3.47,0,1,0,2.86,5.4Z"/><path d="M52.83,571.39a2.39,2.39,0,0,0,2.33,2.17,2.27,2.27,0,0,0,2.16-1.42h.82a3.14,3.14,0,1,1-3-4.2,3.22,3.22,0,0,1,3.16,3.22c0,.07,0,.15,0,.23Zm4.7-.7a2.37,2.37,0,0,0-4.7,0Z"/><path d="M67.76,574.11v-3.53c0-1.14-.55-1.94-1.64-1.94s-1.64.79-1.64,2v3.51h-.77v-3.52c0-1.17-.57-2-1.64-2s-1.64.78-1.64,2v3.52h-.77v-6h.77v.69a1.9,1.9,0,0,1,1.64-.85,2.26,2.26,0,0,1,2,1.16,2.3,2.3,0,0,1,2-1.16,2.36,2.36,0,0,1,2.41,2.57v3.6Z"/><path d="M70.63,571.39A2.39,2.39,0,0,0,73,573.56a2.27,2.27,0,0,0,2.16-1.42h.81a3.14,3.14,0,1,1-3-4.2,3.22,3.22,0,0,1,3.16,3.22c0,.07,0,.15,0,.23Zm4.7-.7a2.37,2.37,0,0,0-4.7,0Z"/><path d="M78.15,574.11v-5.32H76.89v-.69h1.26V566h.77v2.13h1.45v.69H78.92v5.32Z"/><path d="M81.84,571.39a2.37,2.37,0,0,0,2.33,2.17,2.27,2.27,0,0,0,2.16-1.42h.81a3.14,3.14,0,1,1-3-4.2,3.22,3.22,0,0,1,3.16,3.22c0,.07,0,.15,0,.23Zm4.7-.7a2.37,2.37,0,0,0-4.7,0Z"/><path d="M88.66,574.11v-6h.77V569h0a1.68,1.68,0,0,1,1.69-1v.82h0a1.72,1.72,0,0,0-1.7,1.8v3.55Z"/><path d="M92.88,576.23l1.05-2.31-2.35-5.82h.82l1.91,4.79,2-4.79h.81l-3.48,8.13Z"/><path d="M36.77,63.55l1.81,0a1.27,1.27,0,0,1,.28,0,5.4,5.4,0,0,1,0,10.8h-.28V78H36.77Zm1.81,1.85v7.17h.28a3.59,3.59,0,1,0,0-7.18Z"/><path d="M46.49,63.55H48.3v12.6h5.42V78H46.49Z"/><path d="M57.12,78H55.24l5.3-14.4L65.9,78H64l-1.44-3.6H58.54Zm2-5.4H62l-1.47-4.19Z"/><path d="M69.36,67.1V78H67.55V63.55h1.84l6.25,10.78V63.55h1.8V78h-1.8Z"/><path d="M82,67.1V78h-1.8V63.55h1.83l6.25,10.78V63.55h1.8V78h-1.8Z"/><path d="M92.9,63.55h1.8V78H92.9Z"/><path d="M99.29,67.1V78h-1.8V63.55h1.84l6.24,10.78V63.55h1.8V78h-1.8Z"/><path d="M121.86,78h-1.8V76.69a6.9,6.9,0,0,1-4,1.26,7.2,7.2,0,1,1,5.39-12l-1.33,1.19a5.42,5.42,0,1,0-4,9,5.18,5.18,0,0,0,4-1.82h-4.88v-1.8l6.68,0Z"/><path d="M132.12,63.55h8.1v1.8h-6.3v7.2h4.5v1.8h-4.5V78h-1.8Z"/><path d="M141.66,78h-1.87l5.29-14.4L150.45,78h-1.87l-1.45-3.6h-4Zm2-5.4h2.88l-1.48-4.19Z"/><path d="M157.79,76.19a5.37,5.37,0,0,0,4.05-1.82l1.32,1.17a7.2,7.2,0,1,1,0-9.58l-1.34,1.19a5.34,5.34,0,0,0-4-1.8,5.42,5.42,0,1,0,0,10.84Z"/><path d="M164.66,63.55h7.21v1.8h-2.71V78h-1.8V65.35h-2.7Z"/><path d="M179.43,63.55a7.2,7.2,0,1,1-7.21,7.2A7.2,7.2,0,0,1,179.43,63.55Zm0,12.64A5.42,5.42,0,1,0,174,70.77,5.4,5.4,0,0,0,179.44,76.19Z"/><path d="M188.84,63.55l1.8,0a1.32,1.32,0,0,1,.29,0,5.4,5.4,0,0,1,2.84,10L196.31,78h-2.09l-2.14-3.72a4.94,4.94,0,0,1-1.15.12h-.29V78h-1.8Zm1.8,1.85v7.17h.29a3.59,3.59,0,1,0,0-7.18Z"/><path d="M204,64.63l-1.33,1.06a1.73,1.73,0,0,0-1.26-.54,1.68,1.68,0,0,0-1.77,1.57v.09c0,.79.56,1.33,1.64,1.4,4.14.25,6,2.2,6,4.77v.18a5.35,5.35,0,0,1-9.22,3.1l1.39-1.06a3.29,3.29,0,0,0,2.54,1,3.39,3.39,0,0,0,3.56-3.1V73c0-2.41-2.38-2.86-4.43-3.06s-3.27-1.37-3.27-3.08v-.09a3.48,3.48,0,0,1,3.56-3.22A3.38,3.38,0,0,1,204,64.63Z"/></svg>