<svg id="Layer_1" data-name="Layer 1" xmlns="http://www.w3.org/2000/svg" viewBox="0 0 523.85 368.63"><defs><style>.cls-1{fill:#f2f2f2;}.cls-2{fill:#964327;}.cls-3{fill:#1f1d1d;}.cls-4{fill:#562f26;}.cls-5{fill:#d8633d;}.cls-6{fill:#1e222c;}.cls-7{fill:#1c2336;}.cls-8{fill:#31465f;}.cls-9{fill:#6e95af;}.cls-10{fill:none;stroke:#000;stroke-miterlimit:10;stroke-width:2px;}.cls-11{fill:#a44b2e;}.cls-12{fill:#353e55;}.cls-13{fill:#466080;}.cls-14{fill:#999;}</style></defs><title>spookiness-factor</title><rect class="cls-1" x="470.46" y="112.65" width="36" height="242"/><rect class="cls-1" x="396.46" y="112.65" width="36" height="242"/><rect class="cls-1" x="319.46" y="112.65" width="36" height="242"/><rect class="cls-1" x="245.46" y="112.65" width="36" height="242"/><rect class="cls-2" x="245.46" y="174.65" width="36" height="9"/><rect class="cls-3" x="319.46" y="174.65" width="36" height="9"/><rect class="cls-4" x="282.46" y="174.65" width="36" height="9"/><rect class="cls-5" x="208.46" y="174.65" width="36" height="9"/><rect class="cls-6" x="359.46" y="228.65" width="36" height="9"/><rect class="cls-7" x="396.46" y="228.65" width="36" height="9"/><rect class="cls-8" x="433.46" y="228.65" width="36" height="9"/><rect class="cls-9" x="470.46" y="228.65" width="36" height="9"/><line class="cls-10" x1="357.46" y1="112.65" x2="357.46" y2="354.65"/><rect class="cls-3" x="319.46" y="120.65" width="36" height="9"/><rect class="cls-4" x="282.46" y="120.65" width="36" height="9"/><rect class="cls-6" x="359.46" y="147.65" width="36" height="9"/><rect class="cls-11" x="245.46" y="147.65" width="36" height="9"/><rect class="cls-3" x="319.46" y="147.65" width="36" height="9"/><rect class="cls-4" x="282.46" y="147.65" width="36" height="9"/><rect class="cls-6" x="359.46" y="174.65" width="36" height="9"/><rect class="cls-2" x="245.46" y="201.65" width="36" height="9"/><rect class="cls-3" x="319.46" y="201.65" width="36" height="9"/><rect class="cls-4" x="282.46" y="201.65" width="36" height="9"/><rect class="cls-5" x="208.46" y="201.65" width="36" height="9"/><path d="M142.49,128.79v-8.15h2.09c1.7,0,2.62.94,2.62,2.17a1.94,1.94,0,0,1-.89,1.64,2.13,2.13,0,0,1,1.35,2c0,1.11-.63,2.34-2.75,2.34Zm2.1-4.64c1.56,0,1.79-.9,1.79-1.37s-.35-1.4-1.86-1.4H143.3v2.77Zm.25,3.9c1,0,2-.42,2-1.6,0-.92-.8-1.56-2-1.56H143.3v3.16Z"/><path d="M148.87,128.79v-8.15h.77v8.15Z"/><path d="M155.74,128.79v-.94h0a2,2,0,0,1-1.91,1.08,2.44,2.44,0,0,1-2.61-2.72v-3.44H152v3.35c0,1.37.58,2.11,1.84,2.11a1.9,1.9,0,0,0,1.89-2.16v-3.3h.77v6Z"/><path d="M158.58,126.06a2.39,2.39,0,0,0,2.33,2.17,2.27,2.27,0,0,0,2.16-1.41h.81a3.14,3.14,0,1,1-3-4.21,3.22,3.22,0,0,1,3.16,3.22c0,.07,0,.15,0,.23Zm4.7-.7a2.37,2.37,0,0,0-4.7,0Z"/><path d="M173.76,128.79V125h-4.21v3.82h-.82v-8.15h.82v3.59h4.21v-3.59h.82v8.15Z"/><path d="M176,125.81a3.15,3.15,0,1,1,3.13,3.12A3.18,3.18,0,0,1,176,125.81Zm5.52-.07a2.38,2.38,0,1,0-2.38,2.49A2.42,2.42,0,0,0,181.56,125.74Z"/><path d="M183.66,128.79v-8.15h.77v8.15Z"/><path d="M186.52,126.06a2.39,2.39,0,0,0,2.33,2.17,2.27,2.27,0,0,0,2.16-1.41h.81a3.14,3.14,0,1,1-3-4.21,3.22,3.22,0,0,1,3.16,3.22c0,.07,0,.15,0,.23Zm4.7-.7a2.37,2.37,0,0,0-4.7,0Z"/><path d="M47.78,155.79v-8.15h2.41a5.05,5.05,0,0,1,2.69.72,4.07,4.07,0,0,1,1.78,3.4,4,4,0,0,1-1.18,2.8,4.44,4.44,0,0,1-3.32,1.23Zm2.31-.74a3.7,3.7,0,0,0,2.85-1,3.41,3.41,0,0,0,.9-2.36,3.24,3.24,0,0,0-1.3-2.64,4.08,4.08,0,0,0-2.48-.69H48.59v6.67Z"/><path d="M60.54,155.79v-.94h0a2,2,0,0,1-1.92,1.08,2.44,2.44,0,0,1-2.6-2.72v-3.44h.77v3.35c0,1.37.58,2.11,1.83,2.11a1.91,1.91,0,0,0,1.9-2.16v-3.3h.77v6Z"/><path d="M62.87,157.9v-8.13h.77v1h0A2.8,2.8,0,0,1,66,149.61a3.16,3.16,0,1,1,0,6.32,2.81,2.81,0,0,1-2.35-1.2h0v3.17ZM66,150.31a2.45,2.45,0,0,0-2.4,2.47A2.41,2.41,0,0,0,66,155.23a2.46,2.46,0,1,0,0-4.92Z"/><path d="M70.3,152.81a3.15,3.15,0,1,1,3.13,3.12A3.18,3.18,0,0,1,70.3,152.81Zm5.52-.07a2.38,2.38,0,1,0-2.38,2.49A2.42,2.42,0,0,0,75.82,152.74Z"/><path d="M82.44,155.79v-3.36a1.89,1.89,0,1,0-3.75-.06v3.42h-.77v-6h.77v.77h0a2.16,2.16,0,0,1,1.85-.93,2.56,2.56,0,0,1,2.65,2.82v3.36Z"/><path d="M85.5,155.79v-5.33H84.23v-.69H85.5v-2.13h.77v2.13h1.44v.69H86.27v5.33Z"/><path d="M97.05,155.79V152H92.84v3.82H92v-8.15h.82v3.59h4.21v-3.59h.81v8.15Z"/><path d="M100.07,153.06a2.39,2.39,0,0,0,2.34,2.17,2.27,2.27,0,0,0,2.15-1.41h.82a3.18,3.18,0,0,1-3,2.11,3.16,3.16,0,0,1,0-6.32,3.22,3.22,0,0,1,3.15,3.22c0,.07,0,.15,0,.23Zm4.7-.7a2.37,2.37,0,0,0-4.7,0Z"/><path d="M112.24,155.79v-1.06h0a2.78,2.78,0,0,1-2.35,1.2,3.16,3.16,0,1,1,0-6.32,2.72,2.72,0,0,1,2.35,1.21h0v-1H113v6Zm0-3a2.44,2.44,0,0,0-2.42-2.47,2.46,2.46,0,1,0,2.42,2.47Z"/><path d="M116.47,155.79l-2.54-6h.83l2.12,5.06,2.16-5.06h.82l-2.54,6Z"/><path d="M121.58,157.9l1-2.31-2.34-5.82h.81l1.92,4.79,2-4.79h.81l-3.49,8.13Z"/><path d="M136.47,155.79l-1.79-6.68h0l-1.78,6.68h-1l-2.32-8.15h.84l2,7.1h0l1.93-7.1h.76l1.95,7.09h0l2-7.09h.83l-2.33,8.15Z"/><path d="M145.63,155.79v-1.06h0a2.75,2.75,0,0,1-2.34,1.2,3.16,3.16,0,1,1,0-6.32,2.7,2.7,0,0,1,2.34,1.21h0v-1h.77v6Zm0-3a2.45,2.45,0,0,0-2.42-2.47,2.46,2.46,0,1,0,2.42,2.47Z"/><path d="M148.66,155.79v-5.33H147.4v-.69h1.26v-2.13h.77v2.13h1.44v.69h-1.44v5.33Z"/><path d="M152.35,153.06a2.37,2.37,0,0,0,2.33,2.17,2.27,2.27,0,0,0,2.15-1.41h.82a3.14,3.14,0,1,1-3-4.21,3.22,3.22,0,0,1,3.16,3.22c0,.07,0,.15,0,.23Zm4.69-.7a2.37,2.37,0,0,0-4.69,0Z"/><path d="M159.17,155.79v-6h.77v.87h0a1.67,1.67,0,0,1,1.69-1v.82h0a1.72,1.72,0,0,0-1.7,1.8v3.56Z"/><path d="M166,155.79v-8.15h2.47c2.24,0,2.91,1.34,2.91,2.46s-.7,2.41-2.92,2.41h-1.64v3.28Zm2.63-4a1.74,1.74,0,0,0,1.94-1.69c0-.82-.52-1.7-2.11-1.7h-1.64v3.39Z"/><path d="M172.53,155.79v-8.15h.77v8.15Z"/><path d="M180.24,155.79v-1.06h0a2.75,2.75,0,0,1-2.34,1.2,3.16,3.16,0,1,1,0-6.32,2.7,2.7,0,0,1,2.34,1.21h0v-1H181v6Zm0-3a2.45,2.45,0,0,0-2.42-2.47,2.46,2.46,0,1,0,2.42,2.47Z"/><path d="M187.1,155.79v-3.36a1.89,1.89,0,1,0-3.76-.06v3.42h-.77v-6h.77v.77h0a2.13,2.13,0,0,1,1.84-.93,2.57,2.57,0,0,1,2.66,2.82v3.36Z"/><path d="M190.15,155.79v-5.33h-1.26v-.69h1.26v-2.13h.77v2.13h1.44v.69h-1.44v5.33Z"/><path d="M119.25,182.79v-8.15h4.45v.74h-3.64v2.93h3.52V179h-3.52v3h3.64v.74Z"/><path d="M130.6,182.79v-1.06h0a2.78,2.78,0,0,1-2.35,1.2,3.16,3.16,0,1,1,0-6.32,2.73,2.73,0,0,1,2.35,1.21h0v-1h.77v6Zm0-3a2.44,2.44,0,0,0-2.42-2.47,2.41,2.41,0,0,0-2.45,2.48,2.39,2.39,0,0,0,2.46,2.44A2.42,2.42,0,0,0,130.64,179.78Z"/><path d="M133.63,182.79v-5.33h-1.26v-.69h1.26v-2.13h.77v2.13h1.45v.69H134.4v5.33Z"/><path d="M136.57,179.81a3.15,3.15,0,1,1,3.14,3.12A3.18,3.18,0,0,1,136.57,179.81Zm5.52-.07a2.42,2.42,0,0,0-2.38-2.43,2.46,2.46,0,0,0,0,4.92A2.41,2.41,0,0,0,142.09,179.74Z"/><path d="M148.72,182.79v-3.36a1.89,1.89,0,1,0-3.76-.06v3.42h-.77v-6H145v.77h0a2.13,2.13,0,0,1,1.84-.93,2.56,2.56,0,0,1,2.66,2.82v3.36Z"/><path d="M153.38,178.25a.91.91,0,0,0-.9-.94.89.89,0,0,0-.92.9c0,.44.31.75,1.05,1,1.46.48,1.75,1.07,1.75,1.92a1.73,1.73,0,0,1-1.89,1.81,1.79,1.79,0,0,1-1.85-1.88V181h.77c0,.81.43,1.23,1.08,1.23a1,1,0,0,0,1.12-1.07c0-.59-.38-.91-1.07-1.16-1.05-.38-1.73-.68-1.73-1.71a1.65,1.65,0,0,1,1.72-1.68,1.62,1.62,0,0,1,1.64,1.64Z"/><path d="M159.93,182.79v-7.41h-1.87v-.74h4.55v.74h-1.86v7.41Z"/><path d="M167.57,182.79v-.94h0a2,2,0,0,1-1.92,1.08,2.44,2.44,0,0,1-2.6-2.72v-3.44h.77v3.35c0,1.37.58,2.11,1.83,2.11a1.91,1.91,0,0,0,1.9-2.16v-3.3h.77v6Z"/><path d="M174.43,182.79v-3.36a1.89,1.89,0,1,0-3.75-.06v3.42h-.77v-6h.77v.77h0a2.16,2.16,0,0,1,1.85-.93,2.56,2.56,0,0,1,2.65,2.82v3.36Z"/><path d="M181.31,182.79v-3.36a1.89,1.89,0,1,0-3.75-.06v3.42h-.77v-6h.77v.77h0a2.15,2.15,0,0,1,1.85-.93,2.56,2.56,0,0,1,2.65,2.82v3.36Z"/><path d="M184.16,180.06a2.37,2.37,0,0,0,2.33,2.17,2.28,2.28,0,0,0,2.16-1.41h.81a3.14,3.14,0,1,1-3-4.21,3.22,3.22,0,0,1,3.16,3.22c0,.07,0,.15,0,.23Zm4.69-.7a2.37,2.37,0,0,0-4.69,0Z"/><path d="M191,182.79v-8.15h.77v8.15Z"/><path d="M17.39,209.79v-8.15h.81v7.41h3.37v.74Z"/><path d="M27.79,209.79v-1.06h0a2.75,2.75,0,0,1-2.34,1.2,3.16,3.16,0,1,1,0-6.32,2.7,2.7,0,0,1,2.34,1.21h0v-1h.77v6Zm.05-3a2.45,2.45,0,0,0-2.42-2.47,2.46,2.46,0,1,0,2.42,2.47Z"/><path d="M33.9,209.79l-2-2.38-1,1.23v1.15h-.77v-8.15H31v5.8h0l2.81-3.67h1l-2.38,3,2.5,3Z"/><path d="M36.09,207.06a2.37,2.37,0,0,0,2.33,2.17,2.27,2.27,0,0,0,2.16-1.41h.81a3.14,3.14,0,1,1-3-4.21,3.22,3.22,0,0,1,3.16,3.22c0,.07,0,.15,0,.23Zm4.7-.7a2.37,2.37,0,0,0-4.7,0Z"/><path d="M49.6,203.71a1.47,1.47,0,0,0-1.44-1.47,1.43,1.43,0,0,0-1.48,1.42c0,.69.42,1.12,1.57,1.42,1.76.45,2.36,1.36,2.36,2.46a2.41,2.41,0,0,1-2.45,2.39,2.37,2.37,0,0,1-2.51-2.42h.81a1.63,1.63,0,0,0,1.7,1.68,1.62,1.62,0,0,0,1.63-1.62c0-.88-.58-1.37-1.65-1.68s-2.27-.71-2.27-2.2a2.27,2.27,0,0,1,4.54,0Z"/><path d="M56.25,209.79v-3.36a1.89,1.89,0,1,0-3.75-.06v3.42h-.77v-8.15h.77v2.9h0a2.16,2.16,0,0,1,1.85-.93A2.56,2.56,0,0,1,57,206.43v3.36Z"/><path d="M64,209.79v-1.06h0a2.75,2.75,0,0,1-2.34,1.2,3.16,3.16,0,1,1,0-6.32A2.7,2.7,0,0,1,64,204.82h0v-1h.77v6Zm.05-3a2.45,2.45,0,0,0-2.42-2.47A2.46,2.46,0,1,0,64,206.78Z"/><path d="M71.45,209.79l-1.27-4h0l-1.26,4H68l-2.29-6h.81l1.89,5h0l1.38-4.32h.67l1.38,4.32h0l1.91-5h.79l-2.3,6Z"/><path d="M80.14,209.79v-3.36a1.89,1.89,0,1,0-3.75-.06v3.42h-.77v-6h.77v.77h0a2.16,2.16,0,0,1,1.85-.93,2.56,2.56,0,0,1,2.65,2.82v3.36Z"/><path d="M83,207.06a2.39,2.39,0,0,0,2.33,2.17,2.27,2.27,0,0,0,2.16-1.41h.81a3.14,3.14,0,1,1-3-4.21,3.22,3.22,0,0,1,3.16,3.22c0,.07,0,.15,0,.23Zm4.7-.7a2.37,2.37,0,0,0-4.7,0Z"/><path d="M90.31,207.06a2.37,2.37,0,0,0,2.33,2.17,2.28,2.28,0,0,0,2.16-1.41h.81a3.14,3.14,0,1,1-3-4.21,3.22,3.22,0,0,1,3.16,3.22c0,.07,0,.15,0,.23Zm4.69-.7a2.37,2.37,0,0,0-4.69,0Z"/><path d="M106.75,209.79l-1.17-2.74h-3.79l-1.19,2.74h-.84l3.47-8.15h.91l3.5,8.15Zm-3.06-7.22-1.59,3.74h3.16Z"/><path d="M116.75,209.79v-3.54c0-1.14-.55-1.94-1.64-1.94s-1.64.79-1.64,2v3.51h-.77v-3.53c0-1.17-.57-1.95-1.64-1.95s-1.64.78-1.64,1.95v3.53h-.77v-6h.77v.69a1.9,1.9,0,0,1,1.64-.85,2.26,2.26,0,0,1,2,1.16,2.3,2.3,0,0,1,2-1.16,2.36,2.36,0,0,1,2.41,2.57v3.61Z"/><path d="M123.64,209.79v-.94h0a2,2,0,0,1-1.92,1.08,2.44,2.44,0,0,1-2.61-2.72v-3.44h.77v3.35c0,1.37.59,2.11,1.84,2.11a1.9,1.9,0,0,0,1.89-2.16v-3.3h.77v6Z"/><path d="M128.29,205.25a.91.91,0,0,0-.9-.94.89.89,0,0,0-.92.9c0,.44.31.75,1,1,1.46.48,1.75,1.07,1.75,1.92a1.73,1.73,0,0,1-1.89,1.81,1.79,1.79,0,0,1-1.85-1.88V208h.77c0,.81.43,1.23,1.08,1.23a1,1,0,0,0,1.12-1.07c0-.59-.38-.91-1.07-1.16-1.05-.38-1.73-.68-1.73-1.71a1.65,1.65,0,0,1,1.72-1.68,1.62,1.62,0,0,1,1.64,1.64Z"/><path d="M130.91,207.06a2.37,2.37,0,0,0,2.33,2.17,2.27,2.27,0,0,0,2.16-1.41h.81a3.14,3.14,0,1,1-3-4.21,3.22,3.22,0,0,1,3.16,3.22c0,.07,0,.15,0,.23Zm4.7-.7a2.37,2.37,0,0,0-4.7,0Z"/><path d="M145.84,209.79v-3.54c0-1.14-.55-1.94-1.64-1.94s-1.64.79-1.64,2v3.51h-.77v-3.53c0-1.17-.57-1.95-1.64-1.95s-1.64.78-1.64,1.95v3.53h-.77v-6h.77v.69a1.89,1.89,0,0,1,1.64-.85,2.24,2.24,0,0,1,2,1.16,2.32,2.32,0,0,1,2-1.16,2.36,2.36,0,0,1,2.41,2.57v3.61Z"/><path d="M148.7,207.06a2.39,2.39,0,0,0,2.34,2.17,2.27,2.27,0,0,0,2.15-1.41H154a3.14,3.14,0,1,1-3-4.21,3.22,3.22,0,0,1,3.16,3.22c0,.07,0,.15,0,.23Zm4.7-.7a2.37,2.37,0,0,0-4.7,0Z"/><path d="M160.05,209.79v-3.36a1.89,1.89,0,1,0-3.75-.06v3.42h-.77v-6h.77v.77h0a2.14,2.14,0,0,1,1.85-.93,2.56,2.56,0,0,1,2.65,2.82v3.36Z"/><path d="M163.1,209.79v-5.33h-1.26v-.69h1.26v-2.13h.77v2.13h1.45v.69h-1.45v5.33Z"/><path d="M169.62,209.79v-8.15h2.46c2.24,0,2.92,1.34,2.92,2.46s-.71,2.41-2.93,2.41h-1.64v3.28Zm2.63-4a1.74,1.74,0,0,0,1.93-1.69c0-.82-.52-1.7-2.11-1.7h-1.64v3.39Z"/><path d="M181.53,209.79v-1.06h0a2.78,2.78,0,0,1-2.35,1.2,3.16,3.16,0,1,1,0-6.32,2.72,2.72,0,0,1,2.35,1.21h0v-1h.77v6Zm0-3a2.44,2.44,0,0,0-2.42-2.47,2.46,2.46,0,1,0,2.42,2.47Z"/><path d="M183.86,209.79v-6h.77v.87h0a1.69,1.69,0,0,1,1.7-1v.82h0a1.73,1.73,0,0,0-1.71,1.8v3.56Z"/><path d="M191.43,209.79l-2-2.38-1,1.23v1.15h-.77v-8.15h.77v5.8h0l2.81-3.67h1l-2.38,3,2.5,3Z"/><path d="M64,236.79v-7.25h0l-3,7.25H60.2l-3-7.25h0v7.25h-.81v-8.15h1.25l3,6.94,3-6.94h1.26v8.15Z"/><path d="M66.24,233.81a3.15,3.15,0,1,1,3.13,3.12A3.18,3.18,0,0,1,66.24,233.81Zm5.52-.07a2.38,2.38,0,1,0-2.38,2.49A2.42,2.42,0,0,0,71.76,233.74Z"/><path d="M78.37,236.79v-.94h0a2,2,0,0,1-1.92,1.08,2.44,2.44,0,0,1-2.6-2.72v-3.44h.77v3.35c0,1.37.58,2.11,1.83,2.11a1.91,1.91,0,0,0,1.9-2.16v-3.3h.77v6Z"/><path d="M85.24,236.79v-3.36a1.89,1.89,0,1,0-3.76-.06v3.42h-.77v-6h.77v.77h0a2.13,2.13,0,0,1,1.84-.93A2.56,2.56,0,0,1,86,233.43v3.36Z"/><path d="M92.9,236.79v-1.06h0a2.79,2.79,0,0,1-2.34,1.2,3.16,3.16,0,1,1,0-6.32,2.85,2.85,0,0,1,2.34,1.19h0v-3.16h.77v8.15Zm0-3a2.44,2.44,0,0,0-2.42-2.47A2.46,2.46,0,1,0,93,233.78Z"/><path d="M97.6,232.25a.91.91,0,0,0-.9-.94.89.89,0,0,0-.92.9c0,.44.31.75,1,1,1.46.48,1.75,1.07,1.75,1.92a1.73,1.73,0,0,1-1.89,1.81,1.79,1.79,0,0,1-1.85-1.88V235h.77c0,.81.43,1.23,1.08,1.23a1,1,0,0,0,1.12-1.07c0-.59-.38-.91-1.07-1.16-1.06-.38-1.73-.68-1.73-1.71a1.65,1.65,0,0,1,1.72-1.68,1.62,1.62,0,0,1,1.64,1.64Z"/><path d="M101.62,236.79l-2.54-6h.83l2.12,5.06,2.16-5.06H105l-2.54,6Z"/><path d="M106,230v-1.39h.77V230Zm0,6.76v-6h.77v6Z"/><path d="M108.35,236.79v-8.15h.77v8.15Z"/><path d="M110.71,236.79v-8.15h.77v8.15Z"/><path d="M113.57,234.06a2.39,2.39,0,0,0,2.33,2.17,2.27,2.27,0,0,0,2.16-1.41h.81a3.14,3.14,0,1,1-3-4.21,3.22,3.22,0,0,1,3.16,3.22c0,.07,0,.15,0,.23Zm4.7-.7a2.37,2.37,0,0,0-4.7,0Z"/><path d="M123.71,236.79v-8.15h2.47c2.24,0,2.91,1.34,2.91,2.46s-.7,2.41-2.92,2.41h-1.64v3.28Zm2.63-4a1.74,1.74,0,0,0,1.94-1.69c0-.82-.52-1.7-2.11-1.7h-1.64v3.39Z"/><path d="M130.77,234.06a2.39,2.39,0,0,0,2.34,2.17,2.27,2.27,0,0,0,2.15-1.41h.82a3.14,3.14,0,1,1-3-4.21,3.22,3.22,0,0,1,3.15,3.22c0,.07,0,.15,0,.23Zm4.7-.7a2.37,2.37,0,0,0-4.7,0Z"/><path d="M142.12,236.79v-3.36a1.89,1.89,0,1,0-3.76-.06v3.42h-.77v-6h.77v.77h0a2.13,2.13,0,0,1,1.84-.93,2.56,2.56,0,0,1,2.66,2.82v3.36Z"/><path d="M145,234.06a2.39,2.39,0,0,0,2.34,2.17,2.27,2.27,0,0,0,2.15-1.41h.82a3.14,3.14,0,1,1-3-4.21,3.22,3.22,0,0,1,3.15,3.22c0,.07,0,.15,0,.23Zm4.7-.7a2.37,2.37,0,0,0-4.7,0Z"/><path d="M152.49,236.79v-5.33h-1.27v-.69h1.27v-2.13h.77v2.13h1.44v.69h-1.44v5.33Z"/><path d="M156.17,234.06a2.39,2.39,0,0,0,2.34,2.17,2.27,2.27,0,0,0,2.15-1.41h.82a3.18,3.18,0,0,1-3,2.11,3.16,3.16,0,0,1,0-6.32,3.22,3.22,0,0,1,3.15,3.22c0,.07,0,.15,0,.23Zm4.7-.7a2.37,2.37,0,0,0-4.7,0Z"/><path d="M167.52,236.79v-3.36a1.89,1.89,0,1,0-3.76-.06v3.42H163v-6h.77v.77h0a2.13,2.13,0,0,1,1.84-.93,2.57,2.57,0,0,1,2.66,2.82v3.36Z"/><path d="M170.57,236.79v-5.33h-1.26v-.69h1.26v-2.13h.77v2.13h1.44v.69h-1.44v5.33Z"/><path d="M173.76,230v-1.39h.77V230Zm0,6.76v-6h.77v6Z"/><path d="M181.47,236.79v-1.06h0a2.75,2.75,0,0,1-2.34,1.2,3.16,3.16,0,1,1,0-6.32,2.7,2.7,0,0,1,2.34,1.21h0v-1h.77v6Zm.05-3a2.45,2.45,0,0,0-2.42-2.47,2.46,2.46,0,1,0,2.42,2.47Z"/><path d="M183.81,236.79v-6h.77v.87h0a1.67,1.67,0,0,1,1.69-1v.82h0a1.72,1.72,0,0,0-1.7,1.8v3.56Z"/><path d="M188,238.9l1-2.31-2.34-5.82h.82l1.91,4.79,2-4.79h.81l-3.49,8.13Z"/><rect class="cls-6" x="359.46" y="255.65" width="36" height="9"/><rect class="cls-11" x="245.46" y="255.65" width="36" height="9"/><rect class="cls-3" x="319.46" y="255.65" width="36" height="9"/><rect class="cls-4" x="282.46" y="255.65" width="36" height="9"/><path d="M73.06,263.79v-7.41H71.19v-.74h4.54v.74H73.87v7.41Z"/><path d="M75.86,260.81A3.15,3.15,0,1,1,79,263.93,3.18,3.18,0,0,1,75.86,260.81Zm5.52-.07A2.42,2.42,0,0,0,79,258.31a2.46,2.46,0,0,0,0,4.92A2.41,2.41,0,0,0,81.38,260.74Z"/><path d="M88.62,263.79l-1.27-4h0l-1.25,4H85.2l-2.29-6h.81l1.89,5h0L87,258.49h.67l1.38,4.32h0l1.92-5h.79l-2.3,6Z"/><path d="M97.31,263.79v-3.36a1.89,1.89,0,1,0-3.75-.06v3.42h-.77v-6h.77v.77h0a2.16,2.16,0,0,1,1.85-.93,2.56,2.56,0,0,1,2.65,2.82v3.36Z"/><path d="M102.62,260.81a3.15,3.15,0,1,1,3.14,3.12A3.19,3.19,0,0,1,102.62,260.81Zm5.53-.07a2.38,2.38,0,1,0-2.38,2.49A2.42,2.42,0,0,0,108.15,260.74Z"/><path d="M110.68,263.79v-5.33h-.94v-.69h.94c0-1.65.78-2.24,2.31-2.27v.72h0c-1.07,0-1.52.44-1.52,1.5v0H113v.69h-1.54v5.33Z"/><path d="M119.81,263.79l-3.36-8.15h.9l2.88,7.13,2.88-7.13H124l-3.38,8.15Z"/><path d="M123.57,260.81a3.15,3.15,0,1,1,3.13,3.12A3.18,3.18,0,0,1,123.57,260.81Zm5.52-.07a2.38,2.38,0,1,0-2.37,2.49A2.42,2.42,0,0,0,129.09,260.74Z"/><path d="M131.19,263.79v-8.15H132v8.15Z"/><path d="M139.52,262a3.19,3.19,0,0,1-3,1.92,3.15,3.15,0,0,1-3.24-3.21,3.23,3.23,0,0,1,3.24-3.11,3.16,3.16,0,0,1,3,2h-.85a2.37,2.37,0,0,0-2.12-1.27,2.46,2.46,0,1,0,0,4.92,2.29,2.29,0,0,0,2.12-1.22Z"/><path d="M146.19,263.79v-1.06h0a2.75,2.75,0,0,1-2.34,1.2,3.16,3.16,0,1,1,0-6.32,2.7,2.7,0,0,1,2.34,1.21h0v-1.05H147v6Zm0-3a2.45,2.45,0,0,0-2.42-2.47,2.46,2.46,0,1,0,2.42,2.47Z"/><path d="M153,263.79v-3.36a1.89,1.89,0,1,0-3.75-.06v3.42h-.77v-6h.77v.77h0a2.15,2.15,0,0,1,1.85-.93,2.56,2.56,0,0,1,2.65,2.82v3.36Z"/><path d="M155.14,260.81a3.15,3.15,0,1,1,3.13,3.12A3.18,3.18,0,0,1,155.14,260.81Zm5.52-.07a2.38,2.38,0,1,0-2.37,2.49A2.42,2.42,0,0,0,160.66,260.74Z"/><path d="M170.41,263.79l-2.76-3.69h.79c1.44,0,2.3-.74,2.3-1.85,0-.77-.47-1.87-2.35-1.87h-1.55v7.41H166v-8.15h2.45c2.13,0,3.07,1.26,3.07,2.63a2.49,2.49,0,0,1-2.42,2.48l2.3,3Z"/><path d="M177.33,263.79v-.94h0a2,2,0,0,1-1.91,1.08,2.44,2.44,0,0,1-2.61-2.72v-3.44h.77v3.35c0,1.37.59,2.11,1.84,2.11a1.9,1.9,0,0,0,1.89-2.16v-3.3h.77v6Z"/><path d="M179.67,257v-1.39h.77V257Zm0,6.76v-6h.77v6Z"/><path d="M186.56,263.79v-3.36a1.89,1.89,0,1,0-3.76-.06v3.42H182v-6h.77v.77h0a2.13,2.13,0,0,1,1.84-.93,2.56,2.56,0,0,1,2.66,2.82v3.36Z"/><path d="M191.22,259.25a.91.91,0,0,0-.9-.94.89.89,0,0,0-.92.9c0,.44.31.75,1,1,1.46.48,1.75,1.07,1.75,1.92a1.73,1.73,0,0,1-1.89,1.81,1.79,1.79,0,0,1-1.85-1.88V262h.77c0,.81.43,1.23,1.08,1.23a1,1,0,0,0,1.12-1.07c0-.59-.38-.91-1.07-1.16-1.05-.38-1.73-.68-1.73-1.71a1.65,1.65,0,0,1,1.72-1.68,1.62,1.62,0,0,1,1.64,1.64Z"/><rect class="cls-6" x="359.46" y="309.65" width="36" height="9"/><rect class="cls-12" x="396.46" y="309.65" width="36" height="9"/><rect class="cls-13" x="433.46" y="309.65" width="36" height="9"/><rect class="cls-9" x="470.46" y="309.65" width="36" height="9"/><path d="M23.68,317.79v-7.41H21.81v-.74h4.54v.74H24.49v7.41Z"/><path d="M27,317.79v-6h.77v.87h0a1.69,1.69,0,0,1,1.7-1v.82h0a1.72,1.72,0,0,0-1.7,1.8v3.56Z"/><path d="M35.73,317.79v-1.06h0a2.75,2.75,0,0,1-2.34,1.2,3.16,3.16,0,1,1,0-6.32,2.7,2.7,0,0,1,2.34,1.21h0v-1.05h.77v6Zm0-3a2.45,2.45,0,0,0-2.42-2.47,2.46,2.46,0,1,0,2.42,2.47Z"/><path d="M42.58,317.79v-3.36a1.89,1.89,0,1,0-3.75-.06v3.42h-.77v-6h.77v.77h0a2.15,2.15,0,0,1,1.85-.93,2.56,2.56,0,0,1,2.65,2.82v3.36Z"/><path d="M47.24,313.25a.91.91,0,0,0-.9-.94.89.89,0,0,0-.91.9c0,.44.3.75,1,1,1.47.48,1.75,1.07,1.75,1.92a1.73,1.73,0,0,1-1.89,1.81,1.79,1.79,0,0,1-1.85-1.88V316h.77c0,.81.43,1.23,1.08,1.23a1,1,0,0,0,1.12-1.07c0-.59-.37-.91-1.07-1.16-1.05-.38-1.72-.68-1.72-1.71a1.64,1.64,0,0,1,1.71-1.68A1.61,1.61,0,0,1,48,313.25Z"/><path d="M49,315.06v-.74h3v.74Z"/><path d="M59.6,317.79l-1.18-2.74H54.63l-1.18,2.74H52.6l3.48-8.15H57l3.5,8.15Zm-3.06-7.22-1.6,3.74H58.1Z"/><path d="M61.49,317.79v-8.15h.77v8.15Z"/><path d="M63.85,317.79v-8.15h.77v8.15Z"/><path d="M66.71,315.06A2.39,2.39,0,0,0,69,317.23a2.27,2.27,0,0,0,2.16-1.41H72a3.14,3.14,0,1,1-3-4.21,3.22,3.22,0,0,1,3.16,3.22c0,.07,0,.15,0,.23Zm4.7-.7a2.37,2.37,0,0,0-4.7,0Z"/><path d="M78.71,316.69h0a2.6,2.6,0,0,1-2.32,1.24,3.13,3.13,0,0,1-3.15-3.13,3.18,3.18,0,0,1,3.15-3.19,2.67,2.67,0,0,1,2.32,1.24h0v-1.08h.77v5.38a2.8,2.8,0,0,1-2.93,3,3,3,0,0,1-3.08-2.21h.81a2.32,2.32,0,0,0,2.26,1.52,2.06,2.06,0,0,0,2.17-2.2Zm.05-1.91a2.39,2.39,0,1,0-2.39,2.45A2.45,2.45,0,0,0,78.76,314.78Z"/><path d="M85.59,317.79v-3.36a1.89,1.89,0,1,0-3.75-.06v3.42h-.77v-8.15h.77v2.9h0a2.15,2.15,0,0,1,1.85-.93,2.56,2.56,0,0,1,2.65,2.82v3.36Z"/><path d="M88.47,315.06a2.39,2.39,0,0,0,2.33,2.17A2.27,2.27,0,0,0,93,315.82h.81a3.14,3.14,0,1,1-3-4.21A3.22,3.22,0,0,1,94,314.83c0,.07,0,.15,0,.23Zm4.7-.7a2.37,2.37,0,0,0-4.7,0Z"/><path d="M99.81,317.79v-3.36a1.89,1.89,0,1,0-3.75-.06v3.42h-.77v-6h.77v.77h0a2.16,2.16,0,0,1,1.85-.93,2.56,2.56,0,0,1,2.65,2.82v3.36Z"/><path d="M102.91,319.9l1-2.31-2.35-5.82h.82l1.91,4.79,2-4.79h.81l-3.48,8.13Z"/><path d="M111.62,317.79v-8.15h.82v7.41h3.36v.74Z"/><path d="M121.19,317.79v-.94h0a2,2,0,0,1-1.91,1.08,2.44,2.44,0,0,1-2.61-2.72v-3.44h.77v3.35c0,1.37.58,2.11,1.84,2.11a1.9,1.9,0,0,0,1.89-2.16v-3.3h.77v6Z"/><path d="M128.06,317.79v-3.36a1.89,1.89,0,1,0-3.75-.06v3.42h-.77v-6h.77v.77h0a2.15,2.15,0,0,1,1.85-.93,2.56,2.56,0,0,1,2.65,2.82v3.36Z"/><path d="M135.76,317.79v-1.06h0a2.78,2.78,0,0,1-2.35,1.2,3.16,3.16,0,1,1,0-6.32,2.73,2.73,0,0,1,2.35,1.21h0v-1.05h.77v6Zm0-3a2.44,2.44,0,0,0-2.42-2.47,2.41,2.41,0,0,0-2.45,2.48,2.39,2.39,0,0,0,2.46,2.44A2.42,2.42,0,0,0,135.8,314.78Z"/><path d="M138.79,317.79v-5.33h-1.26v-.69h1.26v-2.13h.77v2.13H141v.69h-1.45v5.33Z"/><path d="M142,311v-1.39h.77V311Zm0,6.76v-6h.77v6Z"/><path d="M150.31,316a3.25,3.25,0,0,1-6.22-1.29,3.22,3.22,0,0,1,3.23-3.11,3.16,3.16,0,0,1,3,2h-.84a2.39,2.39,0,0,0-2.13-1.27,2.46,2.46,0,1,0,0,4.92,2.31,2.31,0,0,0,2.13-1.22Z"/><path d="M161.26,317.79l-1.18-2.74H156.3l-1.19,2.74h-.85l3.48-8.15h.91l3.5,8.15Zm-3.06-7.22-1.6,3.74h3.16Z"/><path d="M165.46,313.25a.92.92,0,0,0-.9-.94.89.89,0,0,0-.92.9c0,.44.31.75,1.05,1,1.46.48,1.75,1.07,1.75,1.92a1.74,1.74,0,0,1-1.9,1.81,1.79,1.79,0,0,1-1.84-1.88V316h.77c0,.81.43,1.23,1.07,1.23a1,1,0,0,0,1.13-1.07c0-.59-.38-.91-1.07-1.16-1.06-.38-1.73-.68-1.73-1.71a1.65,1.65,0,0,1,1.72-1.68,1.62,1.62,0,0,1,1.64,1.64Z"/><path d="M168.33,319.9l1-2.31L167,311.77h.81l1.92,4.79,2.05-4.79h.81l-3.49,8.13Z"/><path d="M173.64,317.79v-8.15h.77v8.15Z"/><path d="M180.52,317.79v-.94h0a2,2,0,0,1-1.92,1.08,2.44,2.44,0,0,1-2.61-2.72v-3.44h.77v3.35c0,1.37.59,2.11,1.84,2.11a1.9,1.9,0,0,0,1.89-2.16v-3.3h.77v6Z"/><path d="M191,317.79v-3.54c0-1.14-.55-1.94-1.64-1.94s-1.64.79-1.64,2v3.51h-.77v-3.53c0-1.17-.57-1.95-1.64-1.95s-1.64.78-1.64,1.95v3.53h-.77v-6h.77v.69a1.89,1.89,0,0,1,1.64-.85,2.23,2.23,0,0,1,2,1.16,2.32,2.32,0,0,1,2-1.16,2.36,2.36,0,0,1,2.41,2.57v3.61Z"/><rect class="cls-6" x="359.46" y="336.65" width="36" height="9"/><rect class="cls-11" x="245.46" y="336.65" width="36" height="9"/><rect class="cls-3" x="319.46" y="336.65" width="36" height="9"/><rect class="cls-4" x="282.46" y="336.65" width="36" height="9"/><path d="M91.93,344.78l-1.79-6.67h0l-1.78,6.67h-1L85,336.64h.84l2,7.1h0l1.94-7.1h.76l1.94,7.09h0l2-7.09h.82L93,344.78Z"/><path d="M96.23,342.06a2.39,2.39,0,0,0,2.34,2.17,2.27,2.27,0,0,0,2.15-1.41h.82a3.14,3.14,0,1,1-3-4.21,3.22,3.22,0,0,1,3.15,3.22c0,.07,0,.15,0,.23Zm4.7-.7a2.37,2.37,0,0,0-4.7,0Z"/><path d="M105.36,340.25a.91.91,0,0,0-.9-.94.89.89,0,0,0-.91.9c0,.44.31.75,1,1,1.47.48,1.75,1.07,1.75,1.92a1.73,1.73,0,0,1-1.89,1.81,1.8,1.8,0,0,1-1.85-1.88V343h.77c0,.81.43,1.23,1.08,1.23a1,1,0,0,0,1.12-1.07c0-.59-.37-.91-1.06-1.16-1.06-.38-1.73-.68-1.73-1.71a1.65,1.65,0,0,1,1.72-1.68,1.61,1.61,0,0,1,1.63,1.64Z"/><path d="M108.19,344.78v-5.32h-1.26v-.69h1.26v-2.13H109v2.13h1.44v.69H109v5.32Z"/><path d="M119,344.78l-2.76-3.68h.79c1.44,0,2.3-.74,2.3-1.85,0-.77-.48-1.87-2.35-1.87h-1.55v7.4h-.81v-8.14h2.45c2.13,0,3.07,1.26,3.07,2.63a2.49,2.49,0,0,1-2.42,2.48l2.3,3Z"/><path d="M126,344.78v-.93h0a2,2,0,0,1-1.91,1.08,2.44,2.44,0,0,1-2.61-2.72v-3.44h.77v3.35c0,1.37.59,2.11,1.84,2.11a1.9,1.9,0,0,0,1.89-2.16v-3.3h.77v6Z"/><path d="M132.81,344.78v-3.35a1.89,1.89,0,1,0-3.75-.06v3.41h-.77v-6h.77v.77h0a2.15,2.15,0,0,1,1.85-.93,2.56,2.56,0,0,1,2.65,2.82v3.35Z"/><path d="M146.14,342.65a4.3,4.3,0,0,1-3.75,2.28,4.21,4.21,0,1,1,3.72-6.2h-.91a3.46,3.46,0,0,0-2.83-1.48,3.47,3.47,0,1,0,2.86,5.4Z"/><path d="M148,342.06a2.37,2.37,0,0,0,2.33,2.17,2.27,2.27,0,0,0,2.16-1.41h.81a3.14,3.14,0,1,1-3-4.21,3.22,3.22,0,0,1,3.16,3.22c0,.07,0,.15,0,.23Zm4.7-.7a2.37,2.37,0,0,0-4.7,0Z"/><path d="M162.91,344.78v-3.53c0-1.14-.55-1.94-1.64-1.94s-1.64.79-1.64,2v3.5h-.77v-3.52c0-1.17-.57-1.95-1.64-1.95s-1.64.78-1.64,1.95v3.52h-.77v-6h.77v.69a1.89,1.89,0,0,1,1.64-.85,2.24,2.24,0,0,1,2,1.16,2.32,2.32,0,0,1,2-1.16,2.36,2.36,0,0,1,2.41,2.57v3.6Z"/><path d="M165.78,342.06a2.37,2.37,0,0,0,2.33,2.17,2.27,2.27,0,0,0,2.15-1.41h.82a3.14,3.14,0,1,1-3-4.21,3.22,3.22,0,0,1,3.16,3.22c0,.07,0,.15,0,.23Zm4.69-.7a2.37,2.37,0,0,0-4.69,0Z"/><path d="M173.3,344.78v-5.32H172v-.69h1.27v-2.13h.77v2.13h1.44v.69h-1.44v5.32Z"/><path d="M177,342.06a2.39,2.39,0,0,0,2.34,2.17,2.27,2.27,0,0,0,2.15-1.41h.82a3.14,3.14,0,1,1-3-4.21,3.22,3.22,0,0,1,3.15,3.22c0,.07,0,.15,0,.23Zm4.7-.7a2.37,2.37,0,0,0-4.7,0Z"/><path d="M183.8,344.78v-6h.77v.87h0a1.67,1.67,0,0,1,1.69-1v.82h0a1.73,1.73,0,0,0-1.71,1.8v3.55Z"/><path d="M188,346.9l1-2.31-2.34-5.82h.81l1.92,4.79,2-4.79h.81l-3.49,8.13Z"/><rect class="cls-6" x="359.46" y="282.65" width="36" height="9"/><rect class="cls-11" x="245.46" y="282.65" width="36" height="9"/><rect class="cls-3" x="319.46" y="282.65" width="36" height="9"/><rect class="cls-4" x="282.46" y="282.65" width="36" height="9"/><path d="M60.64,287.78V287h5.52a4.26,4.26,0,0,1-4.3,3.89,4.34,4.34,0,0,1-4.37-4.22,4.36,4.36,0,0,1,8.21-1.9h-1a3.39,3.39,0,0,0-2.89-1.57,3.48,3.48,0,1,0,0,6.95,3.43,3.43,0,0,0,3.29-2.41Z"/><path d="M72,290.79v-3.36a1.89,1.89,0,1,0-3.75-.06v3.42h-.77v-8.15h.77v2.9h0a2.16,2.16,0,0,1,1.85-.93,2.56,2.56,0,0,1,2.65,2.82v3.36Z"/><path d="M74.15,287.81a3.15,3.15,0,1,1,3.13,3.12A3.18,3.18,0,0,1,74.15,287.81Zm5.52-.07a2.38,2.38,0,1,0-2.38,2.49A2.42,2.42,0,0,0,79.67,287.74Z"/><path d="M84.08,286.25a.91.91,0,0,0-.9-.94.89.89,0,0,0-.92.9c0,.44.31.75,1,1,1.46.48,1.75,1.07,1.75,1.92a1.73,1.73,0,0,1-1.89,1.81,1.79,1.79,0,0,1-1.85-1.88V289h.77c0,.81.43,1.23,1.08,1.23a1,1,0,0,0,1.12-1.07c0-.59-.38-.91-1.07-1.16-1-.38-1.73-.68-1.73-1.71a1.65,1.65,0,0,1,1.72-1.68,1.62,1.62,0,0,1,1.64,1.64Z"/><path d="M86.91,290.79v-5.33H85.64v-.69h1.27v-2.13h.77v2.13h1.44v.69H87.68v5.33Z"/><path d="M94.53,290.79v-7.41H92.66v-.74H97.2v.74H95.34v7.41Z"/><path d="M97.33,287.81a3.15,3.15,0,1,1,3.14,3.12A3.18,3.18,0,0,1,97.33,287.81Zm5.53-.07a2.38,2.38,0,1,0-2.38,2.49A2.42,2.42,0,0,0,102.86,287.74Z"/><path d="M110.1,290.79l-1.28-4h0l-1.26,4h-.87l-2.28-6h.8l1.89,5h0l1.38-4.32h.67l1.39,4.32h0l1.91-5h.79l-2.3,6Z"/><path d="M118.79,290.79v-3.36a1.89,1.89,0,1,0-3.76-.06v3.42h-.77v-6H115v.77h0a2.13,2.13,0,0,1,1.84-.93,2.57,2.57,0,0,1,2.66,2.82v3.36Z"/><path d="M124.1,287.81a3.15,3.15,0,1,1,3.13,3.12A3.18,3.18,0,0,1,124.1,287.81Zm5.52-.07a2.38,2.38,0,1,0-2.38,2.49A2.42,2.42,0,0,0,129.62,287.74Z"/><path d="M132.15,290.79v-5.33h-.94v-.69h.94c0-1.65.78-2.24,2.31-2.27v.72h0c-1.07,0-1.52.44-1.52,1.5v0h1.54v.69h-1.54v5.33Z"/><path d="M139.77,290.79v-7.41H137.9v-.74h4.55v.74h-1.86v7.41Z"/><path d="M147.89,290.79v-3.36a1.89,1.89,0,1,0-3.75-.06v3.42h-.77v-8.15h.77v2.9h0a2.16,2.16,0,0,1,1.85-.93,2.56,2.56,0,0,1,2.65,2.82v3.36Z"/><path d="M154.79,290.79v-.94h0a2,2,0,0,1-1.92,1.08,2.44,2.44,0,0,1-2.61-2.72v-3.44H151v3.35c0,1.37.59,2.11,1.84,2.11a1.9,1.9,0,0,0,1.89-2.16v-3.3h.77v6Z"/><path d="M157.13,290.79v-6h.77v.87h0a1.69,1.69,0,0,1,1.7-1v.82h0a1.72,1.72,0,0,0-1.71,1.8v3.56Z"/><path d="M169,290.79v-3.54c0-1.14-.55-1.94-1.64-1.94s-1.64.79-1.64,2v3.51H165v-3.53c0-1.17-.57-1.95-1.64-1.95s-1.63.78-1.63,1.95v3.53h-.77v-6h.77v.69a1.88,1.88,0,0,1,1.63-.85,2.26,2.26,0,0,1,2,1.16,2.3,2.3,0,0,1,2-1.16,2.36,2.36,0,0,1,2.41,2.57v3.61Z"/><path d="M171.14,287.81a3.15,3.15,0,1,1,3.14,3.12A3.18,3.18,0,0,1,171.14,287.81Zm5.53-.07a2.38,2.38,0,1,0-2.38,2.49A2.42,2.42,0,0,0,176.67,287.74Z"/><path d="M183.29,290.79v-3.36a1.89,1.89,0,1,0-3.75-.06v3.42h-.77v-6h.77v.77h0a2.15,2.15,0,0,1,1.85-.93,2.56,2.56,0,0,1,2.65,2.82v3.36Z"/><path d="M191,290.79v-1.06h0a2.77,2.77,0,0,1-2.34,1.2,3.16,3.16,0,1,1,0-6.32,2.82,2.82,0,0,1,2.34,1.19h0v-3.16h.77v8.15Zm0-3a2.44,2.44,0,0,0-2.42-2.47,2.46,2.46,0,1,0,2.42,2.47Z"/><path d="M50.84,37.55,49.5,38.61a1.7,1.7,0,0,0-1.26-.54,1.68,1.68,0,0,0-1.76,1.57v.09c0,.79.56,1.33,1.64,1.4,4.14.25,6.05,2.2,6.05,4.77v.18a5.2,5.2,0,0,1-5.35,4.79A5.13,5.13,0,0,1,45,49.18l1.39-1.06a3.28,3.28,0,0,0,2.53,1,3.39,3.39,0,0,0,3.57-3.09v-.13c0-2.41-2.38-2.86-4.43-3.06s-3.28-1.37-3.28-3.08v-.09a3.5,3.5,0,0,1,3.57-3.22A3.39,3.39,0,0,1,50.84,37.55Z"/><path d="M55.68,36.47l1.8,0a1.32,1.32,0,0,1,.29,0,5.4,5.4,0,1,1,0,10.8h-.29v3.6h-1.8Zm1.8,1.85v7.17h.29a3.6,3.6,0,1,0,0-7.19A1.32,1.32,0,0,0,57.48,38.32Z"/><path d="M71.84,36.47a7.2,7.2,0,1,1-7.2,7.2A7.2,7.2,0,0,1,71.84,36.47Zm0,12.64a5.42,5.42,0,1,0-5.42-5.42A5.41,5.41,0,0,0,71.86,49.11Z"/><path d="M87.74,36.47a7.2,7.2,0,1,1-7.21,7.2A7.2,7.2,0,0,1,87.74,36.47Zm0,12.64a5.42,5.42,0,1,0-5.41-5.42A5.41,5.41,0,0,0,87.75,49.11Z"/><path d="M97.15,36.47H99v9l5.18-9h2.09l-4.14,7.2,4.14,7.2h-2.09L101,45.49,99,49.13v1.74h-1.8Z"/><path d="M108.45,36.47h1.8v14.4h-1.8Z"/><path d="M114.84,40V50.87H113V36.47h1.84l6.25,10.78V36.47h1.8v14.4h-1.8Z"/><path d="M125.71,36.47h8.11v1.8h-6.3v7.2H132v1.8h-4.5v1.8h6.31v1.8h-8.12Z"/><path d="M141.32,37.55,140,38.61a1.73,1.73,0,0,0-1.26-.54A1.67,1.67,0,0,0,137,39.64v.09c0,.79.55,1.33,1.63,1.4,4.15.25,6.05,2.2,6.05,4.77v.18a5.35,5.35,0,0,1-9.22,3.1l1.39-1.06a3.3,3.3,0,0,0,2.54,1,3.38,3.38,0,0,0,3.56-3.09v-.13c0-2.41-2.37-2.86-4.42-3.06s-3.28-1.37-3.28-3.08v-.09a3.48,3.48,0,0,1,3.56-3.22A3.36,3.36,0,0,1,141.32,37.55Z"/><path d="M151.29,37.55,150,38.61a1.71,1.71,0,0,0-1.26-.54,1.67,1.67,0,0,0-1.76,1.57v.09c0,.79.56,1.33,1.64,1.4,4.14.25,6,2.2,6,4.77v.18a5.18,5.18,0,0,1-5.34,4.79,5.13,5.13,0,0,1-3.87-1.69l1.38-1.06a3.3,3.3,0,0,0,2.54,1,3.4,3.4,0,0,0,3.57-3.09v-.13c0-2.41-2.38-2.86-4.43-3.06s-3.28-1.37-3.28-3.08v-.09a3.48,3.48,0,0,1,3.56-3.22A3.36,3.36,0,0,1,151.29,37.55Z"/><path d="M44.73,58.07h8.11v1.8H46.53v7.2H51v1.8H46.53v3.6h-1.8Z"/><path d="M54.27,72.47H52.4l5.3-14.4,5.36,14.4H61.19l-1.44-3.6h-4Zm2-5.4h2.88L57.7,62.88Z"/><path d="M70.4,70.71a5.37,5.37,0,0,0,4-1.82l1.32,1.17a7.2,7.2,0,1,1,0-9.58l-1.33,1.19a5.35,5.35,0,0,0-4-1.8,5.42,5.42,0,0,0,0,10.84Z"/><path d="M77.28,58.07h7.2v1.8h-2.7v12.6H80V59.87h-2.7Z"/><path d="M92,58.07a7.2,7.2,0,1,1-7.2,7.2A7.2,7.2,0,0,1,92,58.07Zm0,12.64a5.42,5.42,0,1,0-5.42-5.42A5.41,5.41,0,0,0,92.06,70.71Z"/><path d="M101.45,58.07l1.8,0a1.32,1.32,0,0,1,.29,0,5.4,5.4,0,0,1,2.84,10l2.54,4.41h-2.09l-2.14-3.72a4.88,4.88,0,0,1-1.15.12h-.29v3.6h-1.8Zm1.8,1.85v7.17h.29a3.59,3.59,0,1,0,0-7.18Z"/><path d="M116.57,59.15l-1.33,1.06a1.73,1.73,0,0,0-1.26-.54,1.67,1.67,0,0,0-1.76,1.57v.09c0,.79.55,1.33,1.63,1.4,4.15.25,6.05,2.2,6.05,4.77v.18a5.35,5.35,0,0,1-9.22,3.1l1.39-1.06a3.3,3.3,0,0,0,2.54,1,3.4,3.4,0,0,0,3.57-3.09v-.13c0-2.41-2.38-2.86-4.43-3.06s-3.28-1.37-3.28-3.08v-.09A3.48,3.48,0,0,1,114,58.07,3.36,3.36,0,0,1,116.57,59.15Z"/><path class="cls-14" d="M213.46,99.92l-5.56-2,1-2.81.5.18-.82,2.26,2,.73.79-2.17.5.18-.79,2.17,2.54.93Z"/><path class="cls-14" d="M214.86,96.07l-5.56-2,.2-.56,5.06,1.84.83-2.29.51.18Z"/><path class="cls-14" d="M217.74,88.16l-2.17.12-.94,2.59,1.58,1.49-.21.58-4.7-4.4.23-.62,6.43-.37Zm-5.69.3,2.16,2,.78-2.15Z"/><path class="cls-14" d="M214.93,83a1.07,1.07,0,0,0-1.37.62,1,1,0,0,0,.6,1.36c.48.17.88,0,1.36-.72.75-1.09,1.52-1.27,2.27-1a1.75,1.75,0,0,1,1,2.27,1.72,1.72,0,0,1-2.27,1.11l.2-.55a1.21,1.21,0,0,0,.87-2.26c-.6-.22-1.08,0-1.56.7s-1.05,1.38-2.07,1a1.65,1.65,0,0,1,1.15-3.09Z"/><path class="cls-14" d="M220.89,79.49l-2.6-.95-1,2.88,2.61,1-.21.56-5.56-2,.21-.55,2.45.89,1-2.88-2.45-.89.21-.56,5.56,2Z"/><path class="cls-14" d="M221.57,77.63l-5.56-2,.2-.56,5.06,1.84.83-2.29.51.18Z"/><path class="cls-14" d="M222.86,74.09l-5.56-2,.2-.56,5.56,2Z"/><path class="cls-14" d="M222.15,69.66l-.5-.19L223,65.7a3.1,3.1,0,0,1,1.58,3.9,3.06,3.06,0,1,1-3.22-4.14l-.24.65a2.48,2.48,0,0,0-1.79,1.58,2.53,2.53,0,1,0,4.76,1.71,2.51,2.51,0,0,0-.83-2.85Z"/><path class="cls-14" d="M227.19,62.18l-2.6-1-1.05,2.88,2.61,1-.21.55-5.56-2,.21-.56,2.45.89,1-2.87-2.45-.89.21-.56,5.56,2Z"/><path class="cls-14" d="M228.13,59.61l-5.06-1.84-.46,1.28-.51-.18,1.13-3.1.51.18-.47,1.27,5.06,1.84Z"/><path class="cls-14" d="M225.75,53.25a1.07,1.07,0,0,0-1.37.62,1,1,0,0,0,.61,1.36c.47.17.87,0,1.36-.72.74-1.09,1.51-1.27,2.26-1a1.75,1.75,0,0,1,1,2.27,1.72,1.72,0,0,1-2.27,1.11l.2-.56a1.21,1.21,0,0,0,.87-2.26c-.6-.21-1.08.06-1.56.71s-1.05,1.38-2.06,1a1.65,1.65,0,0,1,1.14-3.1Z"/><path class="cls-14" d="M232.34,48.05l-3.21,1,.2-.54c.36-1,.07-1.75-.69-2-.53-.19-1.4-.14-1.86,1.14l-.39,1.06,5.06,1.84-.2.55-5.56-2,.61-1.67a2,2,0,0,1,2.56-1.45,1.81,1.81,0,0,1,1.08,2.27l2.65-.81Z"/><path class="cls-14" d="M233,46.37l-5.56-2,1.11-3.05.5.19L228.09,44l2,.73.88-2.4.5.18-.87,2.4,2.05.75.9-2.49.51.19Z"/><path class="cls-14" d="M236.61,36.61a1.63,1.63,0,0,1-.92,1,3.25,3.25,0,0,1-.13,1.85,3.06,3.06,0,1,1-1.74-4,2.92,2.92,0,0,1,1.69,1.65,1.18,1.18,0,0,0,.59-.68l0,0,.5.18Zm-3-.59a2.59,2.59,0,0,0-1.75,4.88,2,2,0,0,0,.67.14,3.56,3.56,0,0,1,.24-1.25A4.15,4.15,0,0,1,235,37.4,2.48,2.48,0,0,0,233.6,36Zm.63,2.54a3.74,3.74,0,0,0-1,1.51,2.24,2.24,0,0,0-.16.91,2.57,2.57,0,0,0,2-1.68,2.18,2.18,0,0,0,.09-1.36A8.08,8.08,0,0,0,234.23,38.56Z"/><path class="cls-14" d="M232.51,30.27l.2-.55L236.24,31a2,2,0,1,1-1.4,3.78l-3.51-1.28.21-.55,3.54,1.29c1.11.4,1.83,0,2.1-.75s.09-1.49-1.12-1.93Z"/><path class="cls-14" d="M238.73,30.48l-5.56-2,.2-.56,5.56,2Z"/><path class="cls-14" d="M240.46,25.73l-3.2,1,.19-.54c.36-1,.07-1.76-.69-2-.52-.2-1.39-.15-1.86,1.13l-.38,1.06,5.06,1.84-.21.56-5.56-2,.61-1.67A1.94,1.94,0,0,1,237,23.58a1.8,1.8,0,0,1,1.09,2.26l2.65-.81Z"/><path class="cls-14" d="M241.08,24l-5.57-2,1.11-3,.51.18-.91,2.49,2,.72.88-2.4.5.18-.88,2.41,2.05.74.91-2.48.5.18Z"/><path class="cls-14" d="M242.59,19.87l-5.56-2,.6-1.65a3.75,3.75,0,0,1,1.16-1.66,3,3,0,0,1,2.76-.37,2.91,2.91,0,0,1,1.63,1.5,3.25,3.25,0,0,1,0,2.58Zm.07-1.76a2.68,2.68,0,0,0,0-2.19,2.43,2.43,0,0,0-1.38-1.2,2.35,2.35,0,0,0-2.12.23,2.94,2.94,0,0,0-1.1,1.52l-.36,1,4.55,1.66Z"/><path class="cls-14" d="M254.94,99.13l-5.06-1.84-.47,1.27-.5-.18,1.13-3.1.5.18-.46,1.27,5.06,1.84Z"/><path class="cls-14" d="M256.94,93.62l-3.2,1,.19-.54c.36-1,.07-1.76-.68-2-.53-.19-1.4-.15-1.87,1.13L251,94.21l5.05,1.84-.2.56-5.56-2,.61-1.67a1.94,1.94,0,0,1,2.56-1.44,1.8,1.8,0,0,1,1.09,2.26l2.65-.81Z"/><path class="cls-14" d="M257.55,91.93l-5.55-2,1.1-3,.51.18-.91,2.49,2,.72.87-2.4.51.18-.88,2.41,2.05.74.91-2.48.5.18Z"/><path class="cls-14" d="M255.77,83.94a1.08,1.08,0,0,0-1.37.62,1,1,0,0,0,.6,1.36c.48.17.87,0,1.36-.72.75-1.09,1.52-1.27,2.27-1a1.75,1.75,0,0,1,1,2.27,1.72,1.72,0,0,1-2.27,1.11l.2-.55a1.21,1.21,0,0,0,.87-2.26c-.6-.22-1.08.06-1.56.71s-1,1.37-2.07,1a1.65,1.65,0,0,1,1.15-3.1Z"/><path class="cls-14" d="M257.17,80.09a1.07,1.07,0,0,0-1.37.62,1,1,0,0,0,.61,1.35c.47.18.87,0,1.36-.72.74-1.09,1.51-1.27,2.27-1a1.76,1.76,0,0,1,1,2.27,1.74,1.74,0,0,1-2.28,1.11l.2-.56a1.21,1.21,0,0,0,.88-2.26c-.61-.22-1.09.06-1.56.71s-1.06,1.38-2.07,1a1.65,1.65,0,0,1,1.14-3.1Z"/><path class="cls-14" d="M261.88,80l-5.56-2,.62-1.69c.55-1.53,1.63-1.66,2.4-1.38s1.47,1.08.91,2.6l-.4,1.12,2.23.81Zm-2.08-2.79a1.28,1.28,0,0,0-.68-1.75c-.56-.2-1.29-.07-1.68,1L257,77.64l2.31.85Z"/><path class="cls-14" d="M264.91,71.73l-2.16.12-.95,2.59,1.58,1.49-.21.58-4.7-4.4.23-.63,6.43-.36Zm-5.69.29,2.16,2,.78-2.15Z"/><path class="cls-14" d="M262.1,66.55a1.07,1.07,0,0,0-1.37.62,1,1,0,0,0,.6,1.36c.48.17.87,0,1.37-.73.74-1.09,1.51-1.26,2.26-1a1.75,1.75,0,0,1,1,2.27,1.72,1.72,0,0,1-2.27,1.11l.2-.56a1.21,1.21,0,0,0,.87-2.26c-.6-.22-1.08.06-1.56.71s-1.05,1.38-2.07,1A1.65,1.65,0,0,1,262.3,66Z"/><path class="cls-14" d="M263.5,62.69a1.07,1.07,0,0,0-1.37.62,1.05,1.05,0,0,0,.61,1.36c.47.17.87,0,1.36-.72.74-1.09,1.52-1.27,2.27-1a1.75,1.75,0,0,1,1,2.27,1.72,1.72,0,0,1-2.28,1.11l.2-.55a1.21,1.21,0,0,0,.88-2.26c-.61-.22-1.09,0-1.56.71s-1.06,1.37-2.07,1a1.65,1.65,0,0,1,1.14-3.09Z"/><path class="cls-14" d="M268.22,62.64l-5.56-2,.2-.55,5.56,2Z"/><path class="cls-14" d="M270.28,57l-6.09,1.52v0l4.89,1.78-.21.55-5.56-2,.28-.75,5.74-1.43h0l-4.62-1.68.2-.56,5.56,2Z"/><path class="cls-14" d="M269.58,52.52l-.51-.18,1.37-3.77a3.09,3.09,0,0,1,1.59,3.9,3.16,3.16,0,0,1-4,1.94,3.17,3.17,0,0,1,.74-6.08l-.23.65a2.46,2.46,0,0,0-1.79,1.58,2.53,2.53,0,1,0,4.75,1.71,2.5,2.5,0,0,0-.83-2.85Z"/><path class="cls-14" d="M291.28,96.08a1.07,1.07,0,0,0-1.37.61,1,1,0,0,0,.61,1.36c.47.18.87,0,1.36-.72.74-1.09,1.51-1.27,2.27-1a1.75,1.75,0,0,1,1,2.27,1.72,1.72,0,0,1-2.27,1.11l.2-.56A1.21,1.21,0,0,0,294,96.9c-.61-.22-1.09.06-1.56.71s-1.06,1.38-2.07,1a1.65,1.65,0,0,1,1.14-3.1Z"/><path class="cls-14" d="M296,96.07l-5.56-2,1.11-3,.5.18-.9,2.49,2,.73L294,92l.5.19-.87,2.4,2.05.75.9-2.49.51.18Z"/><path class="cls-14" d="M297.52,91.83l-5.56-2,.2-.56,5.06,1.84.84-2.29.5.18Z"/><path class="cls-14" d="M298.79,88.34l-5.56-2,1-2.81.51.19-.82,2.25,2,.73.79-2.17.51.19-.8,2.17,2.54.92Z"/><path class="cls-14" d="M299.61,79.71l-.51-.18,1.38-3.77a3.1,3.1,0,0,1,1.58,3.9,3.15,3.15,0,0,1-4,1.94,3.17,3.17,0,0,1,.74-6.08l-.24.65a2.46,2.46,0,0,0-1.79,1.58,2.53,2.53,0,1,0,4.76,1.71,2.51,2.51,0,0,0-.83-2.85Z"/><path class="cls-14" d="M299,70.42l.2-.55,3.52,1.28a2,2,0,1,1-1.39,3.78l-3.51-1.27.2-.56,3.54,1.29c1.12.4,1.83,0,2.1-.75s.09-1.48-1.12-1.92Z"/><path class="cls-14" d="M305.24,70.63l-5.56-2,.2-.56,5.56,2Z"/><path class="cls-14" d="M305.89,68.84l-5.56-2,.6-1.64a3.55,3.55,0,0,1,1.16-1.66,3,3,0,0,1,2.76-.37,2.89,2.89,0,0,1,1.62,1.5,3.25,3.25,0,0,1,0,2.58Zm.07-1.76a2.68,2.68,0,0,0,0-2.19,2.46,2.46,0,0,0-1.38-1.2,2.31,2.31,0,0,0-2.13.23,3,3,0,0,0-1.09,1.52l-.36,1,4.55,1.66Z"/><path class="cls-14" d="M308,63.16l-5.55-2,1.1-3,.51.18-.91,2.49,2,.72.87-2.4.51.18-.88,2.41,2,.74.91-2.48.5.18Z"/><path class="cls-14" d="M309.47,59l-5.56-2,.6-1.65a3.75,3.75,0,0,1,1.16-1.66,2.95,2.95,0,0,1,4.39,1.13,3.25,3.25,0,0,1,0,2.58Zm.07-1.76a2.68,2.68,0,0,0,0-2.19,2.46,2.46,0,0,0-1.38-1.2,2.35,2.35,0,0,0-2.12.23,2.94,2.94,0,0,0-1.1,1.52l-.36,1,4.55,1.66Z"/><path class="cls-14" d="M336.63,96.44,334,95.5l-1,2.87,2.61.95-.21.56-5.56-2,.21-.55,2.45.89,1-2.88-2.45-.89.21-.56,5.56,2Z"/><path class="cls-14" d="M337.29,94.63l-5.56-2,.21-.56,5.56,2Z"/><path class="cls-14" d="M339.11,89.65l-3.09,1,.62,1,1.53.56-.2.55-5.56-2,.2-.56,3.19,1.16h0l-2.27-3.71.26-.71,1.91,3.19L339.36,89Z"/><path class="cls-14" d="M339.61,88.26l-5.56-2,.2-.56,5.56,2Z"/><path class="cls-14" d="M341.68,82.59l-6.1,1.52h0l4.89,1.78-.2.56-5.56-2,.27-.76,5.74-1.42h0l-4.61-1.68.2-.56,5.56,2Z"/><path class="cls-14" d="M341,78.15l-.5-.18,1.37-3.77a3.09,3.09,0,0,1,1.58,3.9A3.06,3.06,0,1,1,340.2,74l-.24.64a2.49,2.49,0,0,0-1.79,1.59,2.53,2.53,0,1,0,4.76,1.7,2.5,2.5,0,0,0-.83-2.84Z"/><path class="cls-14" d="M445.39,95.58l-2.16.12-.94,2.59,1.57,1.49-.21.58L439,96l.22-.62,6.43-.37Zm-5.69.29,2.16,2,.79-2.15Z"/><path class="cls-14" d="M445.89,94.22l-5.56-2,.6-1.64a3.63,3.63,0,0,1,1.16-1.67,3,3,0,0,1,2.76-.36,2.89,2.89,0,0,1,1.62,1.5,3.22,3.22,0,0,1,0,2.57Zm.07-1.76a2.68,2.68,0,0,0,0-2.19,2.55,2.55,0,0,0-1.38-1.21,2.34,2.34,0,0,0-2.13.24,3,3,0,0,0-1.09,1.52l-.36,1,4.55,1.66Z"/><path class="cls-14" d="M449.87,83.29l-5-1.8h0l4.19,3.89-.17.47-5.7.26v0l4.95,1.8-.2.56-5.56-2,.31-.85,5.47-.3-4-3.75.31-.86,5.56,2Z"/><path class="cls-14" d="M450.53,81.47l-5.56-2,.2-.55,5.56,2Z"/><path class="cls-14" d="M447.87,75.86a1.06,1.06,0,0,0-1.36.62,1,1,0,0,0,.6,1.36c.47.17.87,0,1.36-.72.75-1.09,1.52-1.27,2.27-1a1.75,1.75,0,0,1,1,2.27,1.72,1.72,0,0,1-2.28,1.11l.21-.55a1.19,1.19,0,0,0,1.57-.74,1.17,1.17,0,0,0-.7-1.52c-.6-.22-1.08,0-1.56.71s-1.06,1.37-2.07,1a1.65,1.65,0,0,1,1.15-3.09Z"/><path class="cls-14" d="M449.28,72a1.07,1.07,0,0,0-1.37.61,1,1,0,0,0,.6,1.36c.48.17.87,0,1.36-.72.75-1.09,1.52-1.27,2.27-1a1.8,1.8,0,0,1-1.25,3.38l.2-.56a1.21,1.21,0,0,0,.87-2.26c-.6-.22-1.08.06-1.56.71s-1,1.38-2.07,1a1.65,1.65,0,0,1,1.15-3.1Z"/><path class="cls-14" d="M454,72l-5.56-2,.21-.56,5.56,2Z"/><path class="cls-14" d="M455.73,67.48a3.06,3.06,0,1,1-1.81-4A3.13,3.13,0,0,1,455.73,67.48Zm-5.26-1.9a2.53,2.53,0,1,0,4.76,1.72,2.53,2.53,0,1,0-4.76-1.72Z"/><path class="cls-14" d="M458.48,59.63l-6.09,1.52h0l4.89,1.78-.2.56-5.56-2,.27-.75,5.75-1.43h0l-4.61-1.68.2-.56,5.56,2Z"/><path class="cls-14" d="M459.92,55.67l-5.56-2,1-2.81.51.19-.82,2.25,2,.73.79-2.17.5.19-.79,2.17,2.54.92Z"/><path class="cls-14" d="M461.29,51.91l-5.56-2,1.11-3,.5.19-.91,2.48,2,.73.88-2.4.5.18-.87,2.4,2.05.75.9-2.49.51.19Z"/><path class="cls-14" d="M462.8,47.77l-5.56-2,1.1-3,.51.18-.91,2.49,2,.73.88-2.41.5.19-.88,2.4,2.06.75.9-2.49.5.18Z"/><path class="cls-14" d="M409.12,99.13l-5.06-1.84-.47,1.27-.5-.18,1.13-3.1.5.18-.46,1.27,5.06,1.84Z"/><path class="cls-14" d="M411.12,93.91a3.06,3.06,0,1,1-1.8-4A3.11,3.11,0,0,1,411.12,93.91ZM405.87,92a2.53,2.53,0,1,0,3.25-1.53A2.56,2.56,0,0,0,405.87,92Z"/><path class="cls-14" d="M408.08,84.67l.2-.56,3.53,1.29a2,2,0,1,1-1.4,3.78l-3.5-1.28.2-.55,3.54,1.28c1.12.41,1.83,0,2.1-.75s.09-1.48-1.12-1.92Z"/><path class="cls-14" d="M415.37,81.94l-3.2,1,.2-.55c.35-1,.06-1.75-.69-2-.53-.19-1.4-.14-1.86,1.14l-.39,1.06,5.06,1.84-.21.56-5.56-2,.61-1.67a2,2,0,0,1,2.56-1.45A1.81,1.81,0,0,1,413,82.05l2.65-.81Z"/><path class="cls-14" d="M415.43,75.39l-.5-.19,1.37-3.77a3.1,3.1,0,0,1,1.59,3.9,3.16,3.16,0,0,1-4,1.94,3.17,3.17,0,0,1,.74-6.08l-.23.65a2.45,2.45,0,0,0-1.8,1.58,2.53,2.53,0,1,0,4.76,1.71,2.5,2.5,0,0,0-.83-2.85Z"/><path class="cls-14" d="M414.84,66.09l.2-.55,3.53,1.28a2,2,0,1,1-1.4,3.78l-3.5-1.27.2-.56,3.54,1.29c1.12.41,1.83,0,2.1-.75s.09-1.48-1.12-1.92Z"/><path class="cls-14" d="M421.06,66.31l-5.56-2,.2-.55,5.56,2Z"/><path class="cls-14" d="M421.71,64.51l-5.55-2,.59-1.64a3.69,3.69,0,0,1,1.16-1.66,3,3,0,0,1,2.76-.37,2.88,2.88,0,0,1,1.63,1.5,3.29,3.29,0,0,1,0,2.58Zm.08-1.76a2.72,2.72,0,0,0,0-2.19,2.48,2.48,0,0,0-1.39-1.2,2.29,2.29,0,0,0-2.12.23,2.93,2.93,0,0,0-1.09,1.52l-.37,1,4.55,1.66Z"/><path class="cls-14" d="M423.78,58.83l-5.56-2,1.11-3,.5.18-.9,2.49,2,.72.87-2.4.5.18-.87,2.41,2.05.74.9-2.48.51.18Z"/><path class="cls-14" d="M374.05,99.89l-5.56-2,.62-1.68c.55-1.53,1.63-1.66,2.4-1.38s1.47,1.08.91,2.6l-.4,1.11,2.24.82ZM372,97.09a1.26,1.26,0,0,0-.67-1.74c-.56-.2-1.29-.07-1.68,1l-.41,1.12,2.31.84Z"/><path class="cls-14" d="M377.08,91.57l-2.17.13L374,94.28l1.58,1.49-.21.58-4.7-4.4.23-.62L377.3,91Zm-5.69.3,2.16,2,.78-2.16Z"/><path class="cls-14" d="M378.65,87.25l-3.2,1,.2-.54c.35-1,.06-1.75-.7-2-.52-.19-1.39-.14-1.86,1.14l-.38,1,5.06,1.84-.21.56-5.56-2,.61-1.68a1.94,1.94,0,0,1,2.56-1.44,1.81,1.81,0,0,1,1.09,2.27l2.65-.82Z"/><path class="cls-14" d="M380.44,82.35l-3.09,1,.62,1,1.53.56-.2.55-5.56-2,.2-.56,3.19,1.16h0l-2.27-3.71.26-.71L377,82.82l3.65-1.17Z"/><path class="cls-14" d="M380.94,81l-5.56-2,.2-.56,5.56,2Z"/><path class="cls-14" d="M383,75.29l-6.09,1.52h0l4.89,1.78-.2.56-5.56-2,.27-.76L382.05,75h0l-4.61-1.68.2-.56,5.56,2Z"/><path class="cls-14" d="M382.3,70.85l-.51-.18,1.38-3.77a3.1,3.1,0,0,1,1.58,3.9,3.06,3.06,0,1,1-3.22-4.14l-.24.64a2.49,2.49,0,0,0-1.79,1.59,2.52,2.52,0,1,0,4.75,1.7,2.48,2.48,0,0,0-.82-2.84Z"/><path class="cls-14" d="M482.78,97.25l-.5-.18,1.37-3.77a3.09,3.09,0,0,1,1.58,3.9A3.06,3.06,0,1,1,482,93.06l-.24.65A2.46,2.46,0,0,0,480,95.29,2.53,2.53,0,1,0,484.74,97a2.51,2.51,0,0,0-.83-2.85Z"/><path class="cls-14" d="M486.58,93.21l-5.57-2,.21-.56,5.56,2Z"/><path class="cls-14" d="M487.22,91.44l-5.56-2,1-2.81.5.18-.82,2.26,2,.73.79-2.17.5.18L484.88,90l2.54.93Z"/><path class="cls-14" d="M488.88,86.89l-5.06-1.84-.47,1.28-.5-.19L484,83l.5.18L484,84.49l5.06,1.84Z"/><path class="cls-14" d="M487.29,78.33a1.06,1.06,0,0,0-1.36.62,1,1,0,0,0,.6,1.36c.48.17.87,0,1.36-.72.75-1.1,1.52-1.27,2.27-1a1.75,1.75,0,0,1,1,2.27A1.72,1.72,0,0,1,488.91,82l.2-.56a1.21,1.21,0,0,0,.87-2.26c-.6-.21-1.08.06-1.56.71s-1.05,1.38-2.07,1a1.65,1.65,0,0,1,1.15-3.1Z"/><path class="cls-14" d="M493.26,74.84l-2.61-1-1,2.88,2.6,1-.2.55-5.56-2,.2-.56,2.45.9,1-2.88-2.45-.89.2-.56,5.56,2Z"/><path class="cls-14" d="M495,70.37a3.06,3.06,0,1,1-1.81-4A3.12,3.12,0,0,1,495,70.37Zm-5.26-1.9A2.53,2.53,0,1,0,493,66.94,2.57,2.57,0,0,0,489.74,68.47Z"/><path class="cls-14" d="M496.34,66.39l-5.56-2,.61-1.69c.56-1.53,1.63-1.66,2.4-1.38s1.47,1.08.92,2.6L494.3,65l2.24.81Zm-2.09-2.79a1.28,1.28,0,0,0-.68-1.75c-.55-.2-1.28-.07-1.68,1L491.48,64l2.32.84Z"/></svg>