<svg id="Layer_1" data-name="Layer 1" xmlns="http://www.w3.org/2000/svg" viewBox="0 0 555.18 331.68"><defs><style>.cls-1{fill:#f2f2f2;}.cls-2{isolation:isolate;}.cls-3,.cls-5,.cls-9{fill:none;}.cls-3{stroke:#000;}.cls-4,.cls-6{fill:#414043;}.cls-5,.cls-6,.cls-7,.cls-8,.cls-9{stroke:#414043;}.cls-6,.cls-7,.cls-8,.cls-9{stroke-width:2px;}.cls-7{fill:#6e95af;}.cls-7,.cls-8{stroke-miterlimit:10;}.cls-8{fill:#d8633d;}</style></defs><title>years-of-operation</title><rect class="cls-1" x="493.02" y="81.92" width="41.05" height="231.58"/><rect class="cls-1" x="410.92" y="81.92" width="41.05" height="231.58"/><rect class="cls-1" x="329.2" y="81.92" width="41.05" height="231.58"/><rect class="cls-1" x="247.1" y="81.92" width="41.05" height="231.58"/><g class="cls-2"><path d="M121.28,94.9V86.76h4.45v.74h-3.64v2.93h3.52v.73h-3.52v3h3.64v.73Z"/><path d="M132.63,94.9V93.85h0a2.78,2.78,0,0,1-2.35,1.2,3.16,3.16,0,1,1,0-6.32,2.72,2.72,0,0,1,2.35,1.21h0v-1h.77v6Zm0-3a2.45,2.45,0,0,0-2.42-2.48,2.42,2.42,0,0,0-2.45,2.49,2.39,2.39,0,0,0,2.46,2.44A2.42,2.42,0,0,0,132.67,91.9Z"/><path d="M135.67,94.9V89.58H134.4v-.69h1.27V86.76h.77v2.13h1.44v.69h-1.44V94.9Z"/><path d="M138.6,91.93a3.15,3.15,0,1,1,3.14,3.12A3.18,3.18,0,0,1,138.6,91.93Zm5.52-.07a2.42,2.42,0,0,0-2.38-2.44,2.45,2.45,0,0,0-2.37,2.5,2.38,2.38,0,1,0,4.75-.06Z"/><path d="M150.75,94.9V91.55a1.89,1.89,0,1,0-3.75-.06V94.9h-.77v-6H147v.77h0a2.14,2.14,0,0,1,1.85-.93,2.56,2.56,0,0,1,2.65,2.82V94.9Z"/><path d="M155.41,90.37a.92.92,0,0,0-.9-1,.9.9,0,0,0-.92.91c0,.44.31.74,1,1,1.46.48,1.75,1.06,1.75,1.92a1.73,1.73,0,0,1-1.89,1.81,1.8,1.8,0,0,1-1.85-1.89v0h.77c0,.8.43,1.23,1.08,1.23a1,1,0,0,0,1.12-1.07c0-.59-.38-.91-1.07-1.16-1.05-.38-1.73-.68-1.73-1.72a1.65,1.65,0,0,1,1.72-1.67,1.61,1.61,0,0,1,1.64,1.64Z"/><path d="M162,94.9V87.5H160.1v-.74h4.54v.74h-1.86v7.4Z"/><path d="M169.6,94.9V94h0a2,2,0,0,1-1.92,1.08,2.45,2.45,0,0,1-2.6-2.72V88.89h.77v3.35c0,1.37.58,2.11,1.83,2.11a1.91,1.91,0,0,0,1.9-2.16v-3.3h.77v6Z"/><path d="M176.46,94.9V91.55a1.89,1.89,0,1,0-3.75-.06V94.9h-.77v-6h.77v.77h0a2.16,2.16,0,0,1,1.85-.93,2.56,2.56,0,0,1,2.65,2.82V94.9Z"/><path d="M183.34,94.9V91.55a1.89,1.89,0,1,0-3.75-.06V94.9h-.77v-6h.77v.77h0a2.15,2.15,0,0,1,1.85-.93,2.56,2.56,0,0,1,2.65,2.82V94.9Z"/><path d="M186.19,92.17a2.38,2.38,0,0,0,2.33,2.18,2.29,2.29,0,0,0,2.16-1.42h.81a3.14,3.14,0,1,1-3-4.2,3.22,3.22,0,0,1,3.16,3.21c0,.08,0,.16,0,.23Zm4.7-.69a2.37,2.37,0,0,0-4.7,0Z"/><path d="M193,94.9V86.76h.77V94.9Z"/></g><g class="cls-2"><path d="M49.6,125.12V117H52a5.11,5.11,0,0,1,2.7.72,4.08,4.08,0,0,1,1.77,3.4,4,4,0,0,1-1.18,2.81A4.47,4.47,0,0,1,52,125.12Zm2.31-.74a3.7,3.7,0,0,0,2.85-1,3.4,3.4,0,0,0,.9-2.35,3.24,3.24,0,0,0-1.29-2.64,4.07,4.07,0,0,0-2.49-.7H50.42v6.67Z"/><path d="M62.36,125.12v-.94h0a2,2,0,0,1-1.91,1.08,2.44,2.44,0,0,1-2.61-2.72V119.1h.77v3.35c0,1.37.58,2.12,1.84,2.12a1.91,1.91,0,0,0,1.89-2.17v-3.3h.77v6Z"/><path d="M64.69,127.23V119.1h.77v1.05h0a2.78,2.78,0,0,1,2.34-1.21,3.16,3.16,0,1,1,0,6.32,2.78,2.78,0,0,1-2.34-1.2h0v3.17Zm3.13-7.59a2.45,2.45,0,0,0-2.4,2.47,2.42,2.42,0,0,0,2.41,2.46,2.47,2.47,0,1,0,0-4.93Z"/><path d="M72.12,122.15a3.15,3.15,0,1,1,3.13,3.11A3.18,3.18,0,0,1,72.12,122.15Zm5.52-.08a2.38,2.38,0,1,0-2.38,2.5A2.42,2.42,0,0,0,77.64,122.07Z"/><path d="M84.26,125.12v-3.36a1.89,1.89,0,1,0-3.75-.05v3.41h-.77v-6h.77v.77h0a2.16,2.16,0,0,1,1.85-.93A2.56,2.56,0,0,1,85,121.76v3.36Z"/><path d="M87.32,125.12v-5.33H86.05v-.69h1.27V117h.77v2.13h1.44v.69H88.09v5.33Z"/><path d="M98.87,125.12V121.3H94.66v3.82h-.82V117h.82v3.59h4.21V117h.81v8.15Z"/><path d="M101.89,122.39a2.4,2.4,0,0,0,2.34,2.18,2.28,2.28,0,0,0,2.15-1.42h.82a3.14,3.14,0,1,1-3-4.21,3.22,3.22,0,0,1,3.16,3.22c0,.07,0,.15,0,.23Zm4.7-.7a2.37,2.37,0,0,0-4.7,0Z"/><path d="M114.06,125.12v-1.06h0a2.77,2.77,0,0,1-2.34,1.2,3.16,3.16,0,1,1,0-6.32,2.72,2.72,0,0,1,2.34,1.21h0V119.1h.77v6Zm0-3a2.45,2.45,0,0,0-2.42-2.47,2.47,2.47,0,1,0,2.42,2.47Z"/><path d="M118.3,125.12l-2.55-6h.83l2.12,5.06,2.16-5.06h.82l-2.54,6Z"/><path d="M123.4,127.23l1-2.31-2.34-5.82h.82l1.91,4.8,2-4.8h.81l-3.49,8.13Z"/><path d="M138.29,125.12l-1.79-6.68h0l-1.78,6.68h-1L131.33,117h.84l2,7.1h0l1.94-7.1h.76l1.94,7.09h0l2-7.09h.82l-2.33,8.15Z"/><path d="M147.45,125.12v-1.06h0a2.75,2.75,0,0,1-2.34,1.2,3.16,3.16,0,1,1,0-6.32,2.72,2.72,0,0,1,2.34,1.21h0V119.1h.77v6Zm0-3a2.45,2.45,0,0,0-2.42-2.47,2.47,2.47,0,1,0,2.42,2.47Z"/><path d="M150.48,125.12v-5.33h-1.26v-.69h1.26V117h.77v2.13h1.44v.69h-1.44v5.33Z"/><path d="M154.17,122.39a2.38,2.38,0,0,0,2.33,2.18,2.29,2.29,0,0,0,2.16-1.42h.81a3.14,3.14,0,0,1-6.1-1,3.18,3.18,0,0,1,3.13-3.17,3.22,3.22,0,0,1,3.16,3.22c0,.07,0,.15,0,.23Zm4.69-.7a2.37,2.37,0,0,0-4.69,0Z"/><path d="M161,125.12v-6h.77V120h0a1.67,1.67,0,0,1,1.69-1v.82h0a1.72,1.72,0,0,0-1.7,1.8v3.56Z"/><path d="M167.78,125.12V117h2.47c2.24,0,2.91,1.34,2.91,2.46s-.7,2.41-2.92,2.41H168.6v3.28Zm2.63-4a1.74,1.74,0,0,0,1.94-1.69c0-.82-.52-1.7-2.11-1.7H168.6v3.39Z"/><path d="M174.35,125.12V117h.77v8.15Z"/><path d="M182.06,125.12v-1.06h0a2.75,2.75,0,0,1-2.34,1.2,3.16,3.16,0,1,1,0-6.32,2.72,2.72,0,0,1,2.34,1.21h0V119.1h.77v6Zm.05-3a2.45,2.45,0,0,0-2.42-2.47,2.47,2.47,0,1,0,2.42,2.47Z"/><path d="M188.92,125.12v-3.36a1.89,1.89,0,1,0-3.76-.05v3.41h-.77v-6h.77v.77h0a2.13,2.13,0,0,1,1.84-.93,2.56,2.56,0,0,1,2.66,2.82v3.36Z"/><path d="M192,125.12v-5.33h-1.26v-.69H192V117h.77v2.13h1.44v.69h-1.44v5.33Z"/></g><g class="cls-2"><path d="M19,155.33v-8.14h.81v7.4h3.37v.74Z"/><path d="M29.39,155.33v-1.06h0a2.75,2.75,0,0,1-2.34,1.2,3.16,3.16,0,1,1,0-6.31,2.7,2.7,0,0,1,2.34,1.21h0v-1.06h.77v6Zm0-3A2.45,2.45,0,0,0,27,149.85a2.47,2.47,0,1,0,2.42,2.47Z"/><path d="M35.49,155.33l-2-2.38-1,1.23v1.15h-.77v-8.14h.77V153h0l2.81-3.68h1l-2.38,3,2.5,3Z"/><path d="M37.68,152.6A2.39,2.39,0,0,0,40,154.78a2.28,2.28,0,0,0,2.16-1.42H43a3.14,3.14,0,1,1-3-4.2,3.22,3.22,0,0,1,3.16,3.21c0,.08,0,.15,0,.23Zm4.7-.69A2.41,2.41,0,0,0,40,149.85a2.38,2.38,0,0,0-2.33,2.06Z"/><path d="M51.19,149.26a1.48,1.48,0,0,0-1.44-1.48,1.43,1.43,0,0,0-1.48,1.42c0,.69.42,1.12,1.58,1.42,1.76.45,2.35,1.36,2.35,2.46a2.4,2.4,0,0,1-2.45,2.39,2.37,2.37,0,0,1-2.51-2.42h.81a1.67,1.67,0,0,0,3.34.07c0-.88-.59-1.38-1.66-1.69s-2.27-.71-2.27-2.2a2.27,2.27,0,0,1,4.54,0Z"/><path d="M57.84,155.33V152a1.89,1.89,0,1,0-3.75-.05v3.41h-.77v-8.14h.77v2.89h0a2.18,2.18,0,0,1,1.85-.92A2.55,2.55,0,0,1,58.61,152v3.36Z"/><path d="M65.58,155.33v-1.06h0a2.75,2.75,0,0,1-2.34,1.2,3.16,3.16,0,1,1,0-6.31,2.7,2.7,0,0,1,2.34,1.21h0v-1.06h.77v6Zm0-3a2.45,2.45,0,0,0-2.42-2.47,2.47,2.47,0,1,0,2.42,2.47Z"/><path d="M73,155.33l-1.27-4h0l-1.26,4h-.87l-2.29-6h.81l1.89,5h0L71.43,150h.67l1.38,4.31h0l1.91-5h.79l-2.3,6Z"/><path d="M81.73,155.33V152a1.89,1.89,0,1,0-3.75-.05v3.41h-.77v-6H78v.77h0a2.18,2.18,0,0,1,1.85-.92A2.55,2.55,0,0,1,82.5,152v3.36Z"/><path d="M84.58,152.6a2.4,2.4,0,0,0,2.33,2.18,2.28,2.28,0,0,0,2.16-1.42h.82a3.14,3.14,0,1,1-3-4.2,3.22,3.22,0,0,1,3.16,3.21c0,.08,0,.15,0,.23Zm4.7-.69a2.41,2.41,0,0,0-2.37-2.06,2.38,2.38,0,0,0-2.33,2.06Z"/><path d="M91.9,152.6a2.38,2.38,0,0,0,2.33,2.18,2.29,2.29,0,0,0,2.16-1.42h.81a3.14,3.14,0,0,1-6.1-1,3.18,3.18,0,0,1,3.13-3.16,3.22,3.22,0,0,1,3.16,3.21c0,.08,0,.15,0,.23Zm4.69-.69a2.36,2.36,0,0,0-4.69,0Z"/><path d="M108.34,155.33l-1.17-2.74h-3.79l-1.19,2.74h-.84l3.47-8.14h.92l3.49,8.14Zm-3.06-7.22-1.59,3.74h3.16Z"/><path d="M118.34,155.33V151.8c0-1.15-.55-2-1.64-2s-1.64.79-1.64,2v3.51h-.77v-3.52c0-1.18-.57-2-1.64-2s-1.64.78-1.64,2v3.52h-.77v-6H111V150a1.89,1.89,0,0,1,1.64-.84,2.25,2.25,0,0,1,2,1.15,2.29,2.29,0,0,1,2-1.15,2.35,2.35,0,0,1,2.41,2.56v3.61Z"/><path d="M125.23,155.33v-.94h0a2,2,0,0,1-1.91,1.08,2.44,2.44,0,0,1-2.61-2.72v-3.44h.77v3.36c0,1.36.59,2.11,1.84,2.11a1.91,1.91,0,0,0,1.89-2.17v-3.3H126v6Z"/><path d="M129.88,150.8a.91.91,0,0,0-.9-1,.9.9,0,0,0-.92.9c0,.44.31.75,1.05,1,1.46.49,1.75,1.07,1.75,1.93a1.73,1.73,0,0,1-1.89,1.8,1.79,1.79,0,0,1-1.85-1.88v0h.77c0,.8.43,1.23,1.08,1.23a1,1,0,0,0,1.12-1.08c0-.58-.38-.9-1.07-1.15-1.05-.39-1.73-.69-1.73-1.72a1.64,1.64,0,0,1,1.72-1.67,1.61,1.61,0,0,1,1.64,1.64Z"/><path d="M132.5,152.6a2.38,2.38,0,0,0,2.33,2.18,2.29,2.29,0,0,0,2.16-1.42h.81a3.14,3.14,0,0,1-6.1-1,3.18,3.18,0,0,1,3.13-3.16,3.22,3.22,0,0,1,3.16,3.21c0,.08,0,.15,0,.23Zm4.69-.69a2.36,2.36,0,0,0-4.69,0Z"/><path d="M147.43,155.33V151.8c0-1.15-.55-2-1.64-2s-1.64.79-1.64,2v3.51h-.77v-3.52c0-1.18-.58-2-1.64-2s-1.64.78-1.64,2v3.52h-.77v-6h.77V150a1.88,1.88,0,0,1,1.64-.84,2.23,2.23,0,0,1,2,1.15,2.3,2.3,0,0,1,2-1.15,2.35,2.35,0,0,1,2.41,2.56v3.61Z"/><path d="M150.29,152.6a2.4,2.4,0,0,0,2.34,2.18,2.28,2.28,0,0,0,2.15-1.42h.82a3.14,3.14,0,1,1-3-4.2,3.21,3.21,0,0,1,3.15,3.21c0,.08,0,.15,0,.23Zm4.7-.69a2.37,2.37,0,0,0-4.7,0Z"/><path d="M161.64,155.33V152a1.89,1.89,0,1,0-3.75-.05v3.41h-.77v-6h.77v.77h0a2.16,2.16,0,0,1,1.85-.92,2.55,2.55,0,0,1,2.65,2.81v3.36Z"/><path d="M164.69,155.33V150h-1.26v-.69h1.26v-2.12h.77v2.12h1.45V150h-1.45v5.33Z"/><path d="M171.21,155.33v-8.14h2.46c2.24,0,2.92,1.33,2.92,2.45s-.71,2.41-2.93,2.41H172v3.28Zm2.62-4a1.74,1.74,0,0,0,1.94-1.69c0-.82-.52-1.7-2.11-1.7H172v3.39Z"/><path d="M183.12,155.33v-1.06h0a2.78,2.78,0,0,1-2.35,1.2,3.16,3.16,0,1,1,0-6.31,2.72,2.72,0,0,1,2.35,1.21h0v-1.06h.77v6Zm0-3a2.44,2.44,0,1,0-4.87,0,2.39,2.39,0,0,0,2.46,2.44A2.42,2.42,0,0,0,183.16,152.32Z"/><path d="M185.45,155.33v-6h.77v.87h0a1.67,1.67,0,0,1,1.7-1V150h0a1.73,1.73,0,0,0-1.71,1.81v3.55Z"/><path d="M193,155.33,191,153l-1,1.23v1.15h-.77v-8.14h.77V153h0l2.81-3.68h1l-2.38,3,2.5,3Z"/></g><g class="cls-2"><path d="M144.52,185.54V177.4h2.09c1.71,0,2.62.94,2.62,2.17a1.92,1.92,0,0,1-.89,1.64,2.12,2.12,0,0,1,1.35,2c0,1.11-.63,2.33-2.75,2.33Zm2.1-4.63c1.56,0,1.79-.9,1.79-1.38s-.35-1.39-1.86-1.39h-1.22v2.77Zm.25,3.89c1,0,2-.41,2-1.59,0-.93-.81-1.56-2-1.56h-1.54v3.15Z"/><path d="M150.9,185.54V177.4h.77v8.14Z"/><path d="M157.77,185.54v-.93h0a2,2,0,0,1-1.91,1.07,2.44,2.44,0,0,1-2.61-2.71v-3.45H154v3.36c0,1.36.58,2.11,1.84,2.11a1.91,1.91,0,0,0,1.89-2.17v-3.3h.77v6Z"/><path d="M160.61,182.81a2.4,2.4,0,0,0,2.33,2.18,2.28,2.28,0,0,0,2.16-1.42h.81a3.14,3.14,0,1,1-3-4.2,3.22,3.22,0,0,1,3.16,3.21c0,.08,0,.16,0,.23Zm4.7-.69a2.37,2.37,0,0,0-4.7,0Z"/><path d="M175.79,185.54v-3.82h-4.21v3.82h-.82V177.4h.82V181h4.21V177.4h.82v8.14Z"/><path d="M178.07,182.57a3.15,3.15,0,1,1,3.13,3.11A3.18,3.18,0,0,1,178.07,182.57Zm5.52-.08a2.38,2.38,0,1,0-2.37,2.5A2.42,2.42,0,0,0,183.59,182.49Z"/><path d="M185.69,185.54V177.4h.77v8.14Z"/><path d="M188.55,182.81a2.4,2.4,0,0,0,2.33,2.18,2.28,2.28,0,0,0,2.16-1.42h.82a3.14,3.14,0,1,1-3-4.2,3.22,3.22,0,0,1,3.16,3.21c0,.08,0,.16,0,.23Zm4.7-.69a2.37,2.37,0,0,0-4.7,0Z"/></g><g class="cls-2"><path d="M141.78,215.75v-7.4h-1.87v-.74h4.54v.74H142.6v7.4Z"/><path d="M149.9,215.75V212.4a1.89,1.89,0,1,0-3.75-.06v3.41h-.77v-8.14h.77v2.9h0a2.16,2.16,0,0,1,1.85-.93,2.56,2.56,0,0,1,2.65,2.82v3.35Z"/><path d="M156.8,215.75v-.93h0a2,2,0,0,1-1.91,1.08,2.44,2.44,0,0,1-2.61-2.72v-3.44H153v3.35c0,1.37.59,2.11,1.84,2.11a1.9,1.9,0,0,0,1.89-2.16v-3.3h.77v6Z"/><path d="M159.14,215.75v-6h.77v.87h0a1.69,1.69,0,0,1,1.7-1v.82h0a1.72,1.72,0,0,0-1.7,1.8v3.55Z"/><path d="M171,215.75v-3.53c0-1.14-.55-1.94-1.64-1.94s-1.64.79-1.64,2v3.51H167v-3.52c0-1.17-.57-1.95-1.64-1.95s-1.64.78-1.64,1.95v3.52h-.77v-6h.77v.69a1.9,1.9,0,0,1,1.64-.85,2.26,2.26,0,0,1,2,1.16,2.3,2.3,0,0,1,2-1.16,2.36,2.36,0,0,1,2.41,2.57v3.6Z"/><path d="M173.15,212.78a3.15,3.15,0,1,1,3.14,3.12A3.18,3.18,0,0,1,173.15,212.78Zm5.53-.07a2.38,2.38,0,1,0-2.38,2.49A2.42,2.42,0,0,0,178.68,212.71Z"/><path d="M185.3,215.75V212.4a1.89,1.89,0,1,0-3.75-.06v3.41h-.77v-6h.77v.77h0a2.14,2.14,0,0,1,1.85-.93,2.56,2.56,0,0,1,2.65,2.82v3.35Z"/><path d="M193,215.75V214.7h0a2.79,2.79,0,0,1-2.34,1.2,3.16,3.16,0,1,1,0-6.32,2.84,2.84,0,0,1,2.34,1.19h0v-3.16h.77v8.14Zm0-3a2.44,2.44,0,0,0-2.42-2.47,2.46,2.46,0,1,0,2.42,2.47Z"/></g><g class="cls-2"><path d="M65.73,246v-7.25h0l-3,7.25H62l-3-7.25h0V246H58.1v-8.14h1.26l3,6.93,3-6.93h1.25V246Z"/><path d="M68,243a3.15,3.15,0,1,1,3.14,3.11A3.18,3.18,0,0,1,68,243Zm5.53-.08a2.38,2.38,0,1,0-2.38,2.5A2.42,2.42,0,0,0,73.53,242.92Z"/><path d="M80.14,246V245h0a2,2,0,0,1-1.92,1.08,2.44,2.44,0,0,1-2.6-2.72V240h.77v3.36c0,1.36.58,2.11,1.83,2.11a1.91,1.91,0,0,0,1.89-2.17V240h.77v6Z"/><path d="M87,246v-3.36a1.89,1.89,0,1,0-3.75-.05V246h-.77v-6h.77v.77h0a2.18,2.18,0,0,1,1.85-.92,2.55,2.55,0,0,1,2.65,2.81V246Z"/><path d="M94.67,246v-1.06h0a2.8,2.8,0,0,1-2.35,1.2,3.16,3.16,0,1,1,0-6.31A2.87,2.87,0,0,1,94.65,241h0v-3.15h.77V246Zm0-3a2.43,2.43,0,0,0-2.42-2.47A2.47,2.47,0,1,0,94.71,243Z"/><path d="M99.37,241.44a.92.92,0,0,0-.91-.95.89.89,0,0,0-.91.9c0,.44.31.75,1,1,1.46.48,1.75,1.07,1.75,1.93a1.73,1.73,0,0,1-1.9,1.8,1.8,1.8,0,0,1-1.85-1.88v0h.77c0,.8.43,1.23,1.08,1.23a1,1,0,0,0,1.13-1.08c0-.58-.38-.9-1.07-1.16-1.06-.38-1.73-.68-1.73-1.71a1.64,1.64,0,0,1,1.72-1.67,1.61,1.61,0,0,1,1.64,1.64Z"/><path d="M103.39,246l-2.54-6h.83L103.8,245,106,240h.83l-2.54,6Z"/><path d="M107.75,239.21v-1.38h.77v1.38Zm0,6.76v-6h.77v6Z"/><path d="M110.11,246v-8.14h.77V246Z"/><path d="M112.48,246v-8.14h.77V246Z"/><path d="M115.34,243.24a2.38,2.38,0,0,0,2.33,2.18,2.29,2.29,0,0,0,2.16-1.42h.81a3.14,3.14,0,1,1-3-4.2,3.22,3.22,0,0,1,3.16,3.21c0,.07,0,.15,0,.23Zm4.69-.69a2.36,2.36,0,0,0-4.69,0Z"/><path d="M125.48,246v-8.14h2.46c2.25,0,2.92,1.33,2.92,2.45s-.71,2.41-2.93,2.41h-1.64V246Zm2.63-4a1.74,1.74,0,0,0,1.93-1.69c0-.82-.51-1.7-2.11-1.7h-1.64V242Z"/><path d="M132.54,243.24a2.4,2.4,0,0,0,2.33,2.18A2.28,2.28,0,0,0,137,244h.81a3.14,3.14,0,1,1-3-4.2A3.22,3.22,0,0,1,138,243c0,.07,0,.15,0,.23Zm4.7-.69a2.41,2.41,0,0,0-2.37-2.06,2.38,2.38,0,0,0-2.33,2.06Z"/><path d="M143.88,246v-3.36a1.89,1.89,0,1,0-3.75-.05V246h-.77v-6h.77v.77h0a2.18,2.18,0,0,1,1.85-.92,2.55,2.55,0,0,1,2.65,2.81V246Z"/><path d="M146.73,243.24a2.4,2.4,0,0,0,2.33,2.18,2.28,2.28,0,0,0,2.16-1.42H152a3.14,3.14,0,1,1-3-4.2,3.22,3.22,0,0,1,3.16,3.21c0,.07,0,.15,0,.23Zm4.7-.69a2.41,2.41,0,0,0-2.37-2.06,2.38,2.38,0,0,0-2.33,2.06Z"/><path d="M154.25,246v-5.33H153V240h1.26v-2.12H155V240h1.45v.69H155V246Z"/><path d="M157.94,243.24a2.4,2.4,0,0,0,2.33,2.18,2.28,2.28,0,0,0,2.16-1.42h.81a3.14,3.14,0,1,1-3-4.2,3.22,3.22,0,0,1,3.16,3.21c0,.07,0,.15,0,.23Zm4.7-.69a2.41,2.41,0,0,0-2.37-2.06,2.38,2.38,0,0,0-2.33,2.06Z"/><path d="M169.28,246v-3.36a1.89,1.89,0,1,0-3.75-.05V246h-.77v-6h.77v.77h0a2.18,2.18,0,0,1,1.85-.92,2.55,2.55,0,0,1,2.65,2.81V246Z"/><path d="M172.34,246v-5.33h-1.27V240h1.27v-2.12h.77V240h1.44v.69h-1.44V246Z"/><path d="M175.53,239.21v-1.38h.77v1.38Zm0,6.76v-6h.77v6Z"/><path d="M183.24,246v-1.06h0a2.78,2.78,0,0,1-2.35,1.2,3.16,3.16,0,1,1,0-6.31,2.72,2.72,0,0,1,2.35,1.21h0V240H184v6Zm0-3a2.44,2.44,0,0,0-2.42-2.47,2.47,2.47,0,1,0,2.42,2.47Z"/><path d="M185.57,246v-6h.77v.87h0a1.67,1.67,0,0,1,1.7-1v.81h0a1.73,1.73,0,0,0-1.71,1.8V246Z"/><path d="M189.8,248.08l1-2.31L188.5,240h.81l1.92,4.8,2-4.8h.82l-3.49,8.13Z"/></g><g class="cls-2"><path d="M25.71,276.18v-7.4H23.84V268h4.54v.74H26.53v7.4Z"/><path d="M29,276.18v-6h.77V271h0a1.69,1.69,0,0,1,1.7-1v.81h0a1.73,1.73,0,0,0-1.71,1.81v3.55Z"/><path d="M37.76,276.18v-1.06h0a2.75,2.75,0,0,1-2.34,1.2,3.16,3.16,0,1,1,0-6.31,2.7,2.7,0,0,1,2.34,1.21h0v-1.06h.77v6Zm0-3a2.45,2.45,0,0,0-2.42-2.48,2.47,2.47,0,1,0,2.42,2.48Z"/><path d="M44.61,276.18v-3.36a1.89,1.89,0,1,0-3.75-.05v3.41h-.77v-6h.77v.77h0a2.17,2.17,0,0,1,1.85-.92,2.55,2.55,0,0,1,2.65,2.81v3.36Z"/><path d="M49.27,271.65a.91.91,0,0,0-.9-.95.89.89,0,0,0-.91.9c0,.44.31.75,1,1,1.47.49,1.75,1.07,1.75,1.93a1.73,1.73,0,0,1-1.89,1.8,1.79,1.79,0,0,1-1.85-1.88v0h.77c0,.8.43,1.23,1.08,1.23a1,1,0,0,0,1.12-1.08c0-.58-.37-.9-1.07-1.15-1-.39-1.72-.69-1.72-1.72A1.63,1.63,0,0,1,48.4,270,1.6,1.6,0,0,1,50,271.65Z"/><path d="M51,273.45v-.74h3v.74Z"/><path d="M61.63,276.18l-1.18-2.74H56.66l-1.18,2.74h-.85L58.11,268H59l3.5,8.14ZM58.57,269,57,272.7h3.16Z"/><path d="M63.52,276.18V268h.77v8.14Z"/><path d="M65.88,276.18V268h.77v8.14Z"/><path d="M68.74,273.45a2.4,2.4,0,0,0,2.33,2.18,2.28,2.28,0,0,0,2.16-1.42h.82a3.14,3.14,0,1,1-3-4.2,3.22,3.22,0,0,1,3.16,3.21c0,.08,0,.15,0,.23Zm4.7-.69a2.37,2.37,0,0,0-4.7,0Z"/><path d="M80.74,275.08h0a2.6,2.6,0,0,1-2.32,1.24,3.12,3.12,0,0,1-3.15-3.12A3.18,3.18,0,0,1,78.4,270a2.69,2.69,0,0,1,2.32,1.23h0v-1.08h.77v5.38a2.81,2.81,0,0,1-2.93,3,3,3,0,0,1-3.08-2.22h.81a2.32,2.32,0,0,0,2.26,1.52,2.05,2.05,0,0,0,2.17-2.2Zm.05-1.9a2.39,2.39,0,1,0-4.77,0,2.39,2.39,0,1,0,4.77,0Z"/><path d="M87.62,276.18v-3.36a1.89,1.89,0,1,0-3.75-.05v3.41H83.1V268h.77v2.89h0a2.17,2.17,0,0,1,1.85-.92,2.55,2.55,0,0,1,2.65,2.81v3.36Z"/><path d="M90.5,273.45a2.4,2.4,0,0,0,2.33,2.18A2.28,2.28,0,0,0,95,274.21h.81a3.14,3.14,0,1,1-3-4.2A3.22,3.22,0,0,1,96,273.22c0,.08,0,.15,0,.23Zm4.7-.69a2.37,2.37,0,0,0-4.7,0Z"/><path d="M101.84,276.18v-3.36a1.89,1.89,0,1,0-3.75-.05v3.41h-.77v-6h.77v.77h0A2.18,2.18,0,0,1,100,270a2.55,2.55,0,0,1,2.65,2.81v3.36Z"/><path d="M104.94,278.29l1-2.31-2.35-5.82h.82l1.91,4.8,2-4.8h.81l-3.48,8.13Z"/><path d="M113.65,276.18V268h.82v7.4h3.36v.74Z"/><path d="M123.22,276.18v-.94h0a2,2,0,0,1-1.91,1.08,2.44,2.44,0,0,1-2.61-2.71v-3.45h.77v3.36c0,1.36.58,2.11,1.84,2.11a1.91,1.91,0,0,0,1.89-2.17v-3.3H124v6Z"/><path d="M130.09,276.18v-3.36a1.89,1.89,0,1,0-3.75-.05v3.41h-.77v-6h.77v.77h0a2.17,2.17,0,0,1,1.85-.92,2.55,2.55,0,0,1,2.65,2.81v3.36Z"/><path d="M137.79,276.18v-1.06h0a2.78,2.78,0,0,1-2.35,1.2,3.16,3.16,0,1,1,0-6.31,2.73,2.73,0,0,1,2.35,1.21h0v-1.06h.77v6Zm0-3a2.44,2.44,0,1,0-4.87,0,2.39,2.39,0,0,0,2.46,2.44A2.42,2.42,0,0,0,137.83,273.18Z"/><path d="M140.82,276.18v-5.32h-1.26v-.7h1.26V268h.77v2.12H143v.7h-1.45v5.32Z"/><path d="M144,269.43V268h.77v1.39Zm0,6.75v-6h.77v6Z"/><path d="M152.34,274.41a3.26,3.26,0,0,1-6.22-1.3,3.21,3.21,0,0,1,3.23-3.1,3.16,3.16,0,0,1,3,2h-.85a2.36,2.36,0,0,0-2.12-1.28,2.47,2.47,0,1,0,0,4.93,2.3,2.3,0,0,0,2.12-1.22Z"/><path d="M163.29,276.18l-1.18-2.74h-3.78l-1.19,2.74h-.85l3.48-8.14h.91l3.5,8.14ZM160.23,269l-1.6,3.74h3.16Z"/><path d="M167.49,271.65a.92.92,0,0,0-.9-.95.9.9,0,0,0-.92.9c0,.44.31.75,1.05,1,1.46.49,1.75,1.07,1.75,1.93a1.73,1.73,0,0,1-1.9,1.8,1.79,1.79,0,0,1-1.84-1.88v0h.77c0,.8.43,1.23,1.07,1.23a1,1,0,0,0,1.13-1.08c0-.58-.38-.9-1.07-1.15-1.06-.39-1.73-.69-1.73-1.72a1.64,1.64,0,0,1,1.72-1.67,1.61,1.61,0,0,1,1.64,1.64Z"/><path d="M170.36,278.29l1-2.31-2.34-5.82h.81l1.92,4.8,2.05-4.8h.81l-3.49,8.13Z"/><path d="M175.67,276.18V268h.77v8.14Z"/><path d="M182.55,276.18v-.94h0a2,2,0,0,1-1.91,1.08,2.44,2.44,0,0,1-2.61-2.71v-3.45h.77v3.36c0,1.36.59,2.11,1.84,2.11a1.91,1.91,0,0,0,1.89-2.17v-3.3h.77v6Z"/><path d="M193,276.18v-3.53c0-1.15-.55-1.95-1.64-1.95s-1.64.79-1.64,2v3.51H189v-3.52c0-1.18-.57-2-1.64-2s-1.64.78-1.64,2v3.52h-.77v-6h.77v.7a1.86,1.86,0,0,1,1.64-.85,2.25,2.25,0,0,1,2,1.15,2.4,2.4,0,0,1,4.44,1.41v3.61Z"/></g><g class="cls-2"><path d="M75.09,306.39V299H73.22v-.74h4.54V299H75.9v7.4Z"/><path d="M77.89,303.42A3.15,3.15,0,1,1,81,306.54,3.18,3.18,0,0,1,77.89,303.42Zm5.53-.07A2.38,2.38,0,1,0,81,305.84,2.43,2.43,0,0,0,83.42,303.35Z"/><path d="M90.65,306.39l-1.27-4h0l-1.26,4h-.87l-2.29-6h.81l1.89,5h0L89,301.1h.67l1.38,4.31h0l1.91-5h.79l-2.3,6Z"/><path d="M99.34,306.39V303a1.89,1.89,0,1,0-3.75-.06v3.41h-.77v-6h.77v.77h0a2.16,2.16,0,0,1,1.85-.93,2.56,2.56,0,0,1,2.65,2.82v3.35Z"/><path d="M104.66,303.42a3.15,3.15,0,1,1,3.13,3.12A3.18,3.18,0,0,1,104.66,303.42Zm5.52-.07a2.38,2.38,0,1,0-2.38,2.49A2.43,2.43,0,0,0,110.18,303.35Z"/><path d="M112.71,306.39v-5.32h-.94v-.69h.94c0-1.65.78-2.24,2.31-2.27v.71h0c-1.07,0-1.52.44-1.52,1.51v.05H115v.69h-1.54v5.32Z"/><path d="M121.84,306.39l-3.36-8.14h.91l2.87,7.13,2.88-7.13H126l-3.38,8.14Z"/><path d="M125.6,303.42a3.15,3.15,0,1,1,3.14,3.12A3.18,3.18,0,0,1,125.6,303.42Zm5.52-.07a2.42,2.42,0,0,0-2.38-2.44,2.45,2.45,0,0,0-2.37,2.5,2.38,2.38,0,1,0,4.75-.06Z"/><path d="M133.22,306.39v-8.14H134v8.14Z"/><path d="M141.55,304.62a3.26,3.26,0,0,1-6.23-1.3,3.22,3.22,0,0,1,3.24-3.1,3.16,3.16,0,0,1,3,2h-.85a2.36,2.36,0,0,0-2.12-1.28,2.47,2.47,0,1,0,0,4.93,2.29,2.29,0,0,0,2.12-1.22Z"/><path d="M148.22,306.39v-1.05h0a2.75,2.75,0,0,1-2.34,1.2,3.16,3.16,0,1,1,0-6.32,2.7,2.7,0,0,1,2.34,1.21h0v-1.05H149v6Zm0-3a2.45,2.45,0,0,0-2.42-2.48,2.41,2.41,0,0,0-2.45,2.49,2.39,2.39,0,0,0,2.46,2.44A2.43,2.43,0,0,0,148.26,303.39Z"/><path d="M155.07,306.39V303a1.89,1.89,0,1,0-3.75-.06v3.41h-.77v-6h.77v.77h0a2.15,2.15,0,0,1,1.85-.93,2.56,2.56,0,0,1,2.65,2.82v3.35Z"/><path d="M157.17,303.42a3.15,3.15,0,1,1,3.13,3.12A3.18,3.18,0,0,1,157.17,303.42Zm5.52-.07a2.38,2.38,0,1,0-2.37,2.49A2.43,2.43,0,0,0,162.69,303.35Z"/><path d="M172.44,306.39l-2.76-3.68h.79c1.44,0,2.3-.74,2.3-1.85,0-.77-.47-1.87-2.35-1.87h-1.55v7.4h-.81v-8.14h2.45c2.13,0,3.07,1.26,3.07,2.63a2.49,2.49,0,0,1-2.42,2.48l2.3,3Z"/><path d="M179.36,306.39v-.93h0a2,2,0,0,1-1.91,1.08,2.45,2.45,0,0,1-2.61-2.72v-3.44h.77v3.35c0,1.37.59,2.11,1.84,2.11a1.9,1.9,0,0,0,1.89-2.16v-3.3h.77v6Z"/><path d="M181.7,299.64v-1.39h.77v1.39Zm0,6.75v-6h.77v6Z"/><path d="M188.59,306.39V303a1.89,1.89,0,1,0-3.76-.06v3.41h-.77v-6h.77v.77h0a2.13,2.13,0,0,1,1.84-.93,2.56,2.56,0,0,1,2.66,2.82v3.35Z"/><path d="M193.25,301.86a.92.92,0,0,0-.9-.95.9.9,0,0,0-.92.91c0,.44.31.75,1,1,1.46.48,1.75,1.06,1.75,1.92a1.73,1.73,0,0,1-1.89,1.81,1.79,1.79,0,0,1-1.85-1.88v-.05h.77c0,.8.43,1.23,1.08,1.23a1,1,0,0,0,1.12-1.07c0-.59-.38-.91-1.07-1.16-1-.38-1.73-.68-1.73-1.72a1.65,1.65,0,0,1,1.72-1.67,1.61,1.61,0,0,1,1.64,1.64Z"/></g><line class="cls-3" x1="207.71" y1="81.92" x2="207.71" y2="79.9"/><path class="cls-4" d="M202.2,70.87V66.16h-.89v-.47h1.41v5.18Z"/><path class="cls-4" d="M207.84,69.37a1.66,1.66,0,0,1-3.31,0,1.52,1.52,0,0,1,.89-1.39,1.23,1.23,0,0,1-.61-1,1.38,1.38,0,0,1,2.75,0,1.19,1.19,0,0,1-.62,1A1.53,1.53,0,0,1,207.84,69.37Zm-.52,0a1.12,1.12,0,0,0-1.15-1.12,1.14,1.14,0,0,0-1.12,1.1,1.14,1.14,0,1,0,2.27,0Zm-1.13-3.3a.85.85,0,0,0-.86.85.86.86,0,0,0,.86.84.85.85,0,1,0,0-1.69Z"/><path class="cls-4" d="M209.61,67.46a1.09,1.09,0,0,1,.48-.11,1.81,1.81,0,1,1-1.8,1.77,2.32,2.32,0,0,1,.42-1.22l1.49-2.2h.59l-1.2,1.76Zm1.71,1.7a1.26,1.26,0,1,0-1.26,1.34A1.29,1.29,0,0,0,211.32,69.16Z"/><path class="cls-4" d="M215.68,69a1.75,1.75,0,1,1-3.48,0V67.41a1.74,1.74,0,1,1,3.48,0Zm-.52-1.49c0-1.15-.71-1.48-1.23-1.48s-1.21.36-1.21,1.48V69c0,1.19.62,1.53,1.22,1.53s1.22-.32,1.22-1.5Z"/><line class="cls-5" x1="248.76" y1="81.92" x2="248.76" y2="79.9"/><path class="cls-4" d="M243.25,70.87V66.16h-.89v-.47h1.41v5.18Z"/><path class="cls-4" d="M248.89,69.37a1.66,1.66,0,0,1-3.31,0,1.52,1.52,0,0,1,.89-1.39,1.23,1.23,0,0,1-.61-1,1.38,1.38,0,0,1,2.75,0,1.19,1.19,0,0,1-.62,1A1.53,1.53,0,0,1,248.89,69.37Zm-.52,0a1.12,1.12,0,0,0-1.15-1.12,1.14,1.14,0,0,0-1.12,1.1,1.14,1.14,0,1,0,2.27,0Zm-1.13-3.3a.85.85,0,0,0-.86.85.86.86,0,0,0,.86.84.85.85,0,1,0,0-1.69Z"/><path class="cls-4" d="M252.77,69.37a1.66,1.66,0,0,1-3.31,0,1.51,1.51,0,0,1,.89-1.39,1.21,1.21,0,0,1-.61-1,1.38,1.38,0,0,1,2.75,0,1.21,1.21,0,0,1-.62,1A1.53,1.53,0,0,1,252.77,69.37Zm-.52,0a1.14,1.14,0,0,0-2.27,0,1.14,1.14,0,1,0,2.27,0Zm-1.13-3.3a.85.85,0,0,0-.86.85.86.86,0,0,0,.86.84.85.85,0,1,0,0-1.69Z"/><path class="cls-4" d="M256.73,69a1.75,1.75,0,1,1-3.48,0V67.41a1.74,1.74,0,1,1,3.48,0Zm-.52-1.49c0-1.15-.71-1.48-1.23-1.48s-1.21.36-1.21,1.48V69c0,1.19.62,1.53,1.22,1.53s1.22-.32,1.22-1.5Z"/><line class="cls-5" x1="289.82" y1="81.92" x2="289.82" y2="79.9"/><path class="cls-4" d="M284.3,70.87V66.16h-.89v-.47h1.41v5.18Z"/><path class="cls-4" d="M287.56,70.87l1.2-1.75h0a1,1,0,0,1-.49.11,1.81,1.81,0,1,1,1.81-1.77c0,.35,0,.67-.65,1.55l-1.26,1.87Zm2-3.47a1.26,1.26,0,1,0-1.25,1.35A1.29,1.29,0,0,0,289.54,67.4Z"/><path class="cls-4" d="M293.9,69a1.74,1.74,0,1,1-3.47,0V67.41a1.74,1.74,0,1,1,3.47,0Zm-.52-1.49c0-1.15-.7-1.48-1.23-1.48s-1.2.36-1.2,1.48V69c0,1.19.61,1.53,1.21,1.53s1.22-.32,1.22-1.5Z"/><path class="cls-4" d="M297.78,69a1.74,1.74,0,1,1-3.47,0V67.41a1.74,1.74,0,1,1,3.47,0Zm-.52-1.49c0-1.15-.71-1.48-1.23-1.48s-1.21.36-1.21,1.48V69c0,1.19.62,1.53,1.22,1.53s1.22-.32,1.22-1.5Z"/><line class="cls-5" x1="330.87" y1="81.92" x2="330.87" y2="79.9"/><path class="cls-4" d="M325.35,70.87V66.16h-.88v-.47h1.4v5.18Z"/><path class="cls-4" d="M328.61,70.87l1.2-1.75h0a1,1,0,0,1-.49.11,1.81,1.81,0,1,1,1.81-1.77c0,.35,0,.67-.64,1.55l-1.27,1.87Zm2-3.47a1.26,1.26,0,1,0-1.25,1.35A1.29,1.29,0,0,0,330.59,67.4Z"/><path class="cls-4" d="M331.56,70.87V70.4l2.16-2.08a1.67,1.67,0,0,0,.64-1.15,1.12,1.12,0,0,0-1.12-1.1c-.68,0-1.1.48-1.12,1.29h-.52a1.64,1.64,0,1,1,3.28-.18,2.27,2.27,0,0,1-1,1.63l-1.66,1.59h2.59v.47Z"/><path class="cls-4" d="M338.83,69a1.74,1.74,0,1,1-3.47,0V67.41a1.74,1.74,0,1,1,3.47,0Zm-.52-1.49c0-1.15-.71-1.48-1.23-1.48s-1.2.36-1.2,1.48V69c0,1.19.61,1.53,1.21,1.53s1.22-.32,1.22-1.5Z"/><line class="cls-5" x1="371.92" y1="81.92" x2="371.92" y2="79.9"/><path class="cls-4" d="M366.41,70.87V66.16h-.89v-.47h1.4v5.18Z"/><path class="cls-4" d="M369.66,70.87l1.2-1.75h0a1,1,0,0,1-.49.11,1.81,1.81,0,1,1,1.81-1.77c0,.35,0,.67-.64,1.55l-1.27,1.87Zm2-3.47a1.29,1.29,0,0,0-1.26-1.32,1.34,1.34,0,1,0,1.26,1.32Z"/><path class="cls-4" d="M375,70.87v-.94h-2.62v-.47l2.52-3.77h.61v3.77H376v.47h-.47v.94Zm0-4.46h0l-2,3h2Z"/><path class="cls-4" d="M379.88,69a1.74,1.74,0,1,1-3.47,0V67.41a1.74,1.74,0,1,1,3.47,0Zm-.52-1.49c0-1.15-.7-1.48-1.23-1.48s-1.2.36-1.2,1.48V69c0,1.19.61,1.53,1.21,1.53s1.22-.32,1.22-1.5Z"/><line class="cls-5" x1="412.97" y1="81.92" x2="412.97" y2="79.9"/><path class="cls-4" d="M407.46,70.87V66.16h-.89v-.47H408v5.18Z"/><path class="cls-4" d="M410.71,70.87l1.2-1.75h0a1,1,0,0,1-.49.11,1.81,1.81,0,1,1,1.81-1.77c0,.35,0,.67-.64,1.55l-1.27,1.87Zm2-3.47a1.29,1.29,0,0,0-1.26-1.32,1.34,1.34,0,1,0,1.26,1.32Z"/><path class="cls-4" d="M414.86,67.46a1.17,1.17,0,0,1,.49-.11,1.81,1.81,0,1,1-1.8,1.77A2.24,2.24,0,0,1,414,67.9l1.49-2.2h.59l-1.2,1.76Zm1.71,1.7a1.28,1.28,0,0,0-1.26-1.34,1.34,1.34,0,0,0,0,2.68A1.27,1.27,0,0,0,416.57,69.16Z"/><path class="cls-4" d="M420.93,69a1.74,1.74,0,1,1-3.47,0V67.41a1.74,1.74,0,1,1,3.47,0Zm-.52-1.49c0-1.15-.7-1.48-1.23-1.48s-1.2.36-1.2,1.48V69c0,1.19.61,1.53,1.22,1.53s1.21-.32,1.21-1.5Z"/><line class="cls-5" x1="454.02" y1="81.92" x2="454.02" y2="79.9"/><path class="cls-4" d="M448.51,70.87V66.16h-.89v-.47H449v5.18Z"/><path class="cls-4" d="M451.76,70.87l1.2-1.75h0a1,1,0,0,1-.49.11,1.81,1.81,0,1,1,1.8-1.77c0,.35,0,.67-.64,1.55l-1.27,1.87Zm2-3.47a1.25,1.25,0,1,0-1.25,1.35A1.28,1.28,0,0,0,453.74,67.4Z"/><path class="cls-4" d="M458,69.37a1.65,1.65,0,0,1-3.3,0,1.51,1.51,0,0,1,.89-1.39,1.21,1.21,0,0,1-.61-1,1.37,1.37,0,0,1,2.74,0,1.2,1.2,0,0,1-.61,1A1.52,1.52,0,0,1,458,69.37Zm-.52,0a1.12,1.12,0,0,0-1.15-1.12,1.14,1.14,0,0,0-1.12,1.1,1.14,1.14,0,1,0,2.27,0Zm-1.12-3.3a.85.85,0,1,0,0,1.69.84.84,0,0,0,.84-.84A.85.85,0,0,0,456.38,66.07Z"/><path class="cls-4" d="M462,69a1.74,1.74,0,1,1-3.47,0V67.41a1.74,1.74,0,1,1,3.47,0Zm-.51-1.49c0-1.15-.71-1.48-1.24-1.48s-1.2.36-1.2,1.48V69c0,1.19.61,1.53,1.22,1.53s1.22-.32,1.22-1.5Z"/><line class="cls-5" x1="495.07" y1="81.92" x2="495.07" y2="79.9"/><path class="cls-4" d="M488,70.87V70.4l2.17-2.08a1.67,1.67,0,0,0,.64-1.15,1.13,1.13,0,0,0-1.13-1.1c-.67,0-1.09.48-1.12,1.29h-.51a1.64,1.64,0,1,1,3.27-.18,2.25,2.25,0,0,1-.95,1.63L488.7,70.4h2.6v.47Z"/><path class="cls-4" d="M495.28,69a1.75,1.75,0,1,1-3.48,0V67.41a1.74,1.74,0,1,1,3.48,0Zm-.52-1.49c0-1.15-.71-1.48-1.23-1.48s-1.21.36-1.21,1.48V69c0,1.19.62,1.53,1.22,1.53s1.22-.32,1.22-1.5Z"/><path class="cls-4" d="M499.16,69a1.75,1.75,0,1,1-3.48,0V67.41a1.74,1.74,0,1,1,3.48,0Zm-.52-1.49c0-1.15-.71-1.48-1.23-1.48s-1.21.36-1.21,1.48V69c0,1.19.62,1.53,1.22,1.53s1.22-.32,1.22-1.5Z"/><path class="cls-4" d="M503,69a1.74,1.74,0,1,1-3.47,0V67.41a1.74,1.74,0,1,1,3.47,0Zm-.51-1.49c0-1.15-.71-1.48-1.24-1.48s-1.2.36-1.2,1.48V69c0,1.19.62,1.53,1.22,1.53s1.22-.32,1.22-1.5Z"/><path class="cls-5" d="M207.71,74.84v7.08H534.07V74.84"/><line class="cls-6" x1="412.97" y1="91.96" x2="456.07" y2="91.96"/><circle class="cls-7" cx="412.97" cy="91.96" r="3.03"/><circle class="cls-8" cx="456.07" cy="91.96" r="3.03"/><line class="cls-6" x1="378.08" y1="122.17" x2="382.18" y2="122.17"/><circle class="cls-7" cx="378.08" cy="122.17" r="3.03"/><circle class="cls-8" cx="382.18" cy="122.17" r="3.03"/><line class="cls-6" x1="343.18" y1="152.39" x2="425.28" y2="152.39"/><circle class="cls-7" cx="343.18" cy="152.39" r="3.03"/><circle class="cls-8" cx="425.28" cy="152.39" r="3.03"/><line class="cls-6" x1="314.45" y1="182.6" x2="534.07" y2="182.6"/><circle class="cls-7" cx="314.45" cy="182.6" r="3.03"/><circle class="cls-8" cx="534.07" cy="182.6" r="3.03"/><line class="cls-6" x1="265.19" y1="212.81" x2="534.07" y2="212.81"/><circle class="cls-7" cx="265.19" cy="212.81" r="3.03"/><circle class="cls-8" cx="534.07" cy="212.81" r="3.03"/><line class="cls-6" x1="220.03" y1="243.03" x2="486.86" y2="243.03"/><circle class="cls-7" cx="220.03" cy="243.03" r="3.03"/><circle class="cls-8" cx="486.86" cy="243.03" r="3.03"/><line class="cls-6" x1="215.92" y1="273.24" x2="482.76" y2="273.24"/><circle class="cls-7" cx="215.92" cy="273.24" r="3.03"/><circle class="cls-8" cx="482.76" cy="273.24" r="3.03"/><line class="cls-9" x1="207.71" y1="303.45" x2="246.71" y2="303.45"/><circle class="cls-7" cx="207.71" cy="303.45" r="3.03"/><circle class="cls-8" cx="246.71" cy="303.45" r="3.03"/><path d="M43.92,32.58h-1.8V28.89L37.24,18.18h2L43,26.53l3.7-8.35h2L43.92,29Z"/><path d="M50.17,18.18h8.1V20H52v7.2h4.5V29H52v1.8h6.32v1.8H50.17Z"/><path d="M61.54,32.58H59.67L65,18.18l5.37,14.4H68.46L67,29H63Zm2-5.4h2.88L65,23Z"/><path d="M71.71,18.18l1.8,0a1.32,1.32,0,0,1,.29,0,5.4,5.4,0,0,1,2.85,10l2.54,4.41H77.1L75,28.86A4.83,4.83,0,0,1,73.8,29h-.29v3.6h-1.8ZM73.51,20V27.2h.29a3.59,3.59,0,1,0,0-7.18Z"/><path d="M86.84,19.26,85.5,20.32a1.71,1.71,0,0,0-1.26-.54,1.68,1.68,0,0,0-1.76,1.57v.09c0,.79.56,1.33,1.64,1.4,4.14.25,6,2.2,6,4.77v.18a5.2,5.2,0,0,1-5.35,4.79A5.13,5.13,0,0,1,81,30.89l1.38-1.06a3.32,3.32,0,0,0,2.54,1,3.4,3.4,0,0,0,3.57-3.1v-.13c0-2.41-2.38-2.86-4.43-3.06s-3.28-1.37-3.28-3.08V21.4a3.5,3.5,0,0,1,3.57-3.22A3.39,3.39,0,0,1,86.84,19.26Z"/><path d="M107.62,18.18a7.2,7.2,0,1,1-7.2,7.2A7.2,7.2,0,0,1,107.62,18.18Zm0,12.64a5.42,5.42,0,1,0-5.42-5.42A5.4,5.4,0,0,0,107.64,30.82Z"/><path d="M117.05,18.18h8.11V20h-6.3v7.2h4.5V29h-4.5v3.6h-1.81Z"/><path d="M142.62,18.18a7.2,7.2,0,1,1-7.21,7.2A7.2,7.2,0,0,1,142.62,18.18Zm0,12.64a5.42,5.42,0,1,0-5.42-5.42A5.4,5.4,0,0,0,142.63,30.82Z"/><path d="M152,18.18l1.8,0a1.32,1.32,0,0,1,.29,0,5.4,5.4,0,1,1,0,10.8h-.29v3.6H152Zm1.8,1.85V27.2h.29a3.59,3.59,0,1,0,0-7.18Z"/><path d="M161.75,18.18h8.1V20h-6.3v7.2h4.5V29h-4.5v1.8h6.32v1.8h-8.12Z"/><path d="M172.1,18.18l1.8,0a1.32,1.32,0,0,1,.29,0,5.4,5.4,0,0,1,2.84,10l2.54,4.41h-2.09l-2.14-3.72a4.94,4.94,0,0,1-1.15.12h-.29v3.6h-1.8ZM173.9,20V27.2h.29a3.59,3.59,0,1,0,0-7.18Z"/><path d="M182.85,32.58H181l5.3-14.4,5.36,14.4h-1.87L188.32,29h-4Zm2-5.4h2.88L186.27,23Z"/><path d="M191.05,18.18h7.21V20h-2.71v12.6h-1.8V20h-2.7Z"/><path d="M200.49,18.18h1.79v14.4h-1.79Z"/><path d="M211.72,18.18a7.2,7.2,0,1,1-7.2,7.2A7.2,7.2,0,0,1,211.72,18.18Zm0,12.64a5.42,5.42,0,1,0-5.42-5.42A5.41,5.41,0,0,0,211.74,30.82Z"/><path d="M223,21.73V32.58h-1.8V18.18H223L229.23,29V18.18H231v14.4h-1.8Z"/></svg>