<svg id="Layer_1" data-name="Layer 1" xmlns="http://www.w3.org/2000/svg" xmlns:xlink="http://www.w3.org/1999/xlink" viewBox="0 0 147.27 118.63"><defs><style>.cls-1{fill:url(#radial-gradient);}.cls-2{fill:#ece5cd;}</style><radialGradient id="radial-gradient" cx="161.56" cy="50.34" r="87.21" gradientTransform="translate(-50.71 24.75) scale(0.77 0.69)" gradientUnits="userSpaceOnUse"><stop offset="0" stop-color="#424143"/><stop offset="0.49" stop-color="#424143" stop-opacity="0.97"/><stop offset="0.66" stop-color="#424143" stop-opacity="0.87"/><stop offset="0.79" stop-color="#424143" stop-opacity="0.69"/><stop offset="0.89" stop-color="#424143" stop-opacity="0.44"/><stop offset="0.97" stop-color="#424143" stop-opacity="0.12"/><stop offset="1" stop-color="#424143" stop-opacity="0"/></radialGradient></defs><title>blue-1</title><ellipse class="cls-1" cx="73.6" cy="59.31" rx="73.67" ry="59.31"/><path class="cls-2" d="M139.77,45.42V48.3H7.52V45.42H139.77m.92-.93H6.59v4.74h134.1V44.49Z"/><rect class="cls-2" x="6.97" y="53.5" width="133.33" height="0.93"/><path class="cls-2" d="M52,103.5l-.92-.1.46,0-.46,0s-.17-2.14-8.48-4.73C33.84,96,31.17,89.39,30,86.58l-.17-.42c-.17-.4-.34-.86-.53-1.36-1-2.57-2.33-6.09-4.74-7.69a11.41,11.41,0,0,1-3.81-4.41,11.69,11.69,0,0,0-1.12-1.78c-.48-.6-1-2.16-1.92-4.88-1.46-4.34-3.89-11.62-6.18-11.62V53.5c2.73,0,4.81,5.55,7.06,12.25a26.08,26.08,0,0,0,1.76,4.59,13.31,13.31,0,0,1,1.21,1.9,10.32,10.32,0,0,0,3.52,4.09c2.65,1.77,4.06,5.45,5.08,8.14.19.49.36,1,.52,1.33l.18.44a18.25,18.25,0,0,0,12,11.58C51.87,100.61,52.07,103,52,103.5Z"/><path class="cls-2" d="M93.14,104.8l-.74-.56c.11-.14,2.81-3.59,11.9-6.42a18.24,18.24,0,0,0,12-11.59l.17-.43c.17-.38.34-.83.52-1.33,1-2.68,2.44-6.37,5.09-8.14a10.32,10.32,0,0,0,3.52-4.09,13.31,13.31,0,0,1,1.21-1.9,27.05,27.05,0,0,0,1.77-4.59c2.24-6.7,4.32-12.25,7-12.25v.92c-2.28,0-4.71,7.28-6.17,11.62-.91,2.72-1.44,4.28-1.92,4.88a12.1,12.1,0,0,0-1.12,1.77,11.31,11.31,0,0,1-3.82,4.42c-2.4,1.6-3.75,5.12-4.73,7.69-.19.51-.37,1-.53,1.36l-.17.42C116,89.39,113.36,96,104.58,98.7S93.17,104.77,93.14,104.8Z"/><path class="cls-2" d="M27.52,58.24h-8v.93c1.15,0,2.61,4.37,3.31,6.47A12.37,12.37,0,0,0,24,68.47a7.81,7.81,0,0,1,.62,1A6.57,6.57,0,0,0,26.8,72l.72.48V58.24Zm-.93,12.45A6.58,6.58,0,0,1,25.38,69a8,8,0,0,0-.71-1.11,16.17,16.17,0,0,1-1-2.55c-.9-2.69-1.72-5-2.67-6.17h5.56V70.69Z"/><path class="cls-2" d="M127.58,58.24h-8V72.51l.72-.48a6.65,6.65,0,0,0,2.23-2.58,6.81,6.81,0,0,1,.62-1,12.55,12.55,0,0,0,1.12-2.83c.71-2.1,2.17-6.47,3.32-6.47v-.93Zm-1.52.93c-1,1.2-1.77,3.48-2.67,6.17a16.17,16.17,0,0,1-1,2.55,7.2,7.2,0,0,0-.71,1.11,6.64,6.64,0,0,1-1.22,1.69V59.17Z"/><rect class="cls-2" x="11.1" y="44.49" width="0.93" height="4.73"/><rect class="cls-2" x="15.7" y="44.49" width="0.93" height="4.73"/><rect class="cls-2" x="20.3" y="44.49" width="0.93" height="4.73"/><rect class="cls-2" x="24.89" y="44.49" width="0.93" height="4.73"/><rect class="cls-2" x="29.49" y="44.49" width="0.93" height="4.73"/><rect class="cls-2" x="34.09" y="44.49" width="0.93" height="4.73"/><rect class="cls-2" x="38.69" y="44.49" width="0.93" height="4.73"/><rect class="cls-2" x="43.29" y="44.49" width="0.93" height="4.73"/><rect class="cls-2" x="47.88" y="44.49" width="0.93" height="4.73"/><rect class="cls-2" x="52.48" y="44.49" width="0.93" height="4.73"/><rect class="cls-2" x="57.08" y="44.49" width="0.93" height="4.73"/><rect class="cls-2" x="61.68" y="44.49" width="0.93" height="4.73"/><rect class="cls-2" x="66.27" y="44.49" width="0.93" height="4.73"/><rect class="cls-2" x="70.87" y="44.49" width="0.93" height="4.73"/><rect class="cls-2" x="75.47" y="44.49" width="0.93" height="4.73"/><rect class="cls-2" x="80.07" y="44.49" width="0.93" height="4.73"/><rect class="cls-2" x="84.66" y="44.49" width="0.93" height="4.73"/><rect class="cls-2" x="89.26" y="44.49" width="0.93" height="4.73"/><rect class="cls-2" x="93.86" y="44.49" width="0.93" height="4.73"/><rect class="cls-2" x="98.46" y="44.49" width="0.93" height="4.73"/><rect class="cls-2" x="103.06" y="44.49" width="0.93" height="4.73"/><rect class="cls-2" x="107.65" y="44.49" width="0.93" height="4.73"/><rect class="cls-2" x="112.25" y="44.49" width="0.93" height="4.73"/><rect class="cls-2" x="116.85" y="44.49" width="0.93" height="4.73"/><rect class="cls-2" x="121.45" y="44.49" width="0.93" height="4.73"/><rect class="cls-2" x="126.04" y="44.49" width="0.93" height="4.73"/><rect class="cls-2" x="130.64" y="44.49" width="0.93" height="4.73"/><rect class="cls-2" x="135.24" y="44.49" width="0.93" height="4.73"/><polygon class="cls-2" points="7.36 45 6.57 44.51 17.42 27.31 34.8 13.53 59.82 5.91 87.58 5.93 112.62 13.61 129.95 27.43 140.69 44.51 139.91 45 129.21 27.99 112.11 14.39 87.38 6.84 59.89 6.84 35.15 14.39 18.06 27.99 7.36 45"/><rect class="cls-2" x="17.25" y="27.67" width="0.93" height="17.08"/><rect class="cls-2" x="34.47" y="13.97" width="0.93" height="30.78"/><rect class="cls-2" x="59.36" y="6.37" width="0.93" height="38.38"/><rect class="cls-2" x="86.98" y="6.37" width="0.93" height="38.38"/><rect class="cls-2" x="111.87" y="13.97" width="0.93" height="30.78"/><rect class="cls-2" x="129.09" y="27.67" width="0.93" height="17.08"/><rect class="cls-2" x="25.86" y="24.09" width="0.93" height="24.26" transform="translate(-17.93 29.4) rotate(-45.24)"/><rect class="cls-2" x="46.91" y="9.57" width="0.93" height="39.58" transform="translate(-7.93 36.32) rotate(-38.96)"/><rect class="cls-2" x="80.1" y="28.9" width="39.58" height="0.93" transform="translate(14.23 88.55) rotate(-51.03)"/><rect class="cls-2" x="108.82" y="35.75" width="24.26" height="0.93" transform="translate(9.57 95.67) rotate(-44.76)"/><rect class="cls-2" x="31.33" y="58.24" width="0.93" height="26.26"/><rect class="cls-2" x="114.88" y="58.24" width="0.93" height="26.26"/><path class="cls-2" d="M95.49,112.72c-13.86-10.08-19.8-17.64-18.18-23.14a9.28,9.28,0,0,1,2.17-3.48c.93-1.06,1.73-2,1.74-3.34,0-2.91-3.54-5.91-10.61-9C73.89,76,75.4,78,75.2,79.89,75,82,72.74,83.1,69.92,84.44a27,27,0,0,0-7.17,4.44c-4.55,4.22-6,12.09-4.44,23.4l-.92.13c-1.65-11.63-.06-19.77,4.73-24.21a28.36,28.36,0,0,1,7.4-4.59c2.56-1.22,4.58-2.18,4.76-3.82S72.81,75.36,64,71.3l.34-.85c12,4.07,17.86,8.1,17.83,12.32,0,1.7-1,2.84-2,3.94a8.34,8.34,0,0,0-2,3.13c-1.48,5,4.52,12.45,17.83,22.13Z"/><rect class="cls-2" x="73.17" y="1.92" width="0.93" height="47.29" transform="translate(-1.06 47.83) rotate(-35.74)"/><rect class="cls-2" x="49.99" y="25.1" width="47.29" height="0.93" transform="translate(9.9 70.44) rotate(-54.29)"/><rect class="cls-2" x="31.33" y="58.24" width="84.47" height="0.93"/></svg>