<svg id="Layer_1" data-name="Layer 1" xmlns="http://www.w3.org/2000/svg" xmlns:xlink="http://www.w3.org/1999/xlink" viewBox="0 0 174.36 118.63"><defs><style>.cls-1{fill:url(#radial-gradient);}.cls-2{fill:none;stroke:#ece5cd;stroke-miterlimit:10;}.cls-3{fill:#ece5cd;}</style><radialGradient id="radial-gradient" cx="51.87" cy="192.96" r="87.21" gradientTransform="translate(39.89 -73.18) scale(0.91 0.69)" gradientUnits="userSpaceOnUse"><stop offset="0" stop-color="#424143"/><stop offset="0.49" stop-color="#424143" stop-opacity="0.97"/><stop offset="0.66" stop-color="#424143" stop-opacity="0.87"/><stop offset="0.79" stop-color="#424143" stop-opacity="0.69"/><stop offset="0.89" stop-color="#424143" stop-opacity="0.44"/><stop offset="0.97" stop-color="#424143" stop-opacity="0.12"/><stop offset="1" stop-color="#424143" stop-opacity="0"/></radialGradient></defs><title>cemetery-1</title><ellipse class="cls-1" cx="87.14" cy="59.31" rx="87.22" ry="59.31"/><path class="cls-2" d="M121.23,66.48a120.38,120.38,0,0,1,47.67,47.67"/><path class="cls-2" d="M114.42,114.15c-24.27-17.93-29.24-28-27.24-34.05,2.33-7,14.23-8.91,13.62-13.62-.65-5-14.75-7.25-14.85-7s8,2,8,4.44c-.07,3.18-14,2-20.66,8.74-4.87,4.91-7.43,15.5,1.49,40.05"/><path class="cls-2" d="M5.46,114.15A87.26,87.26,0,0,1,87.18,59.67"/><polyline class="cls-2" points="100.8 86.91 100.8 80.1 121.23 80.1 121.23 86.91"/><path class="cls-3" d="M113.53,51.37l2.8,25.24H105.7l2.81-25.24h5m.89-1h-6.81l-3,27.24h12.86l-3-27.24Z"/><path class="cls-2" d="M125.29,65.94V59.13a6.81,6.81,0,0,1,6.81-6.81h0a6.81,6.81,0,0,1,6.81,6.81V72.75"/><polyline class="cls-2" points="71.2 59.04 71.2 50.64 96.41 50.64 96.41 59.04"/><path class="cls-3" d="M87.11,15.57l3.51,31.6H77l3.51-31.6h6.61m.9-1H79.6l-3.73,33.6H91.74L88,14.57Z"/><path class="cls-3" d="M83.81,6.65l2.55,4.91h-5.1l2.55-4.91m0-2.17-4.19,8.08H88l-4.2-8.08Z"/><path class="cls-2" d="M54.43,63.07V56.26a6.8,6.8,0,0,0-6.81-6.81h0a6.81,6.81,0,0,0-6.81,6.81V69.88"/><polyline class="cls-2" points="39.67 103.55 39.67 96.74 60.1 96.74 60.1 103.55"/><path class="cls-3" d="M49.89,75.87A6.14,6.14,0,0,1,56,82V93.24H43.75V82a6.15,6.15,0,0,1,6.14-6.13m0-1A7.14,7.14,0,0,0,42.75,82V94.24H57V82a7.13,7.13,0,0,0-7.13-7.13Z"/></svg>