<svg xmlns="http://www.w3.org/2000/svg" viewBox="0 0 269.69 269.69"><defs><style>.cls-1{fill:#ece5cd;}</style></defs><title>compass</title><g id="Layer_3" data-name="Layer 3"><path class="cls-1" d="M199,125.47,238.72,135,199,144.53V125.47m-1-1.27v21.6L243,135l-45-10.8Z"/><path class="cls-1" d="M71,125.47v19.06L31.28,135,71,125.47m1-1.27L27,135l45,10.8V124.2Z"/><path class="cls-1" d="M74,118.27v33.46L4.29,135,74,118.27M75,117,0,135l75,18V117Z"/><path class="cls-1" d="M196,118.27,265.72,135,196,151.73V118.27M195,117v36l75-18-75-18Z"/><path class="cls-1" d="M135,82a53,53,0,1,1-53,53,53.07,53.07,0,0,1,53-53m0-1a54,54,0,1,0,54,54,54,54,0,0,0-54-54Z"/><path class="cls-1" d="M135,91a44,44,0,1,1-44,44,44.05,44.05,0,0,1,44-44m0-1a45,45,0,1,0,45,45,45,45,0,0,0-45-45Z"/><path class="cls-1" d="M135,31.29,144.53,71H125.47L135,31.29M135,27,124.2,72h21.6L135,27Z"/><path class="cls-1" d="M144.53,199,135,238.71,125.47,199h19.06m1.27-1H124.2L135,243l10.8-45Z"/><path class="cls-1" d="M151.73,196,135,265.71,118.27,196h33.46m1.27-1H117l18,75,18-75Z"/><path class="cls-1" d="M135,4.29,151.73,74H118.27L135,4.29M135,0,117,75h36L135,0Z"/><rect class="cls-1" x="33.18" y="134.5" width="203.65" height="1" transform="translate(-55.92 135) rotate(-45)"/><rect class="cls-1" x="134.5" y="33.18" width="1" height="203.65" transform="translate(-55.92 135) rotate(-45)"/><path class="cls-1" d="M161,109v52H109V109h52m1-1H108v54h54V108Z"/><path class="cls-1" d="M153.09,116.91v36.18H116.91V116.91h36.18m1-1H115.91v38.18h38.18V115.91Z"/><path class="cls-1" d="M207.5,82.21,187.79,62.5H207.5ZM190.21,63.5,206.5,79.79V63.5Z"/><path class="cls-1" d="M82.21,207.5H62.5V187.79Zm-18.71-1H79.79L63.5,190.21Z"/><path class="cls-1" d="M207.5,207.5H187.79l19.71-19.71Zm-17.29-1H206.5V190.21Z"/><path class="cls-1" d="M62.5,82.21V62.5H82.21Zm1-18.71V79.79L79.79,63.5Z"/><rect class="cls-1" x="134.5" y="72" width="1" height="126"/><rect class="cls-1" x="72" y="134.5" width="126" height="1"/><path class="cls-1" d="M132.54,59.77V67h-1.2V57.41h1.22l4.16,7.18V57.41h1.2V67h-1.2Z"/><path class="cls-1" d="M135.92,203.72l-.88.71a1.15,1.15,0,0,0-.84-.36,1.11,1.11,0,0,0-1.18,1v.06c0,.53.37.89,1.09.94,2.76.16,4,1.46,4,3.17v.12a3.57,3.57,0,0,1-6.14,2.07l.93-.71a2.15,2.15,0,0,0,1.69.68,2.25,2.25,0,0,0,2.37-2.06v-.08c0-1.61-1.58-1.91-3-2a2.15,2.15,0,0,1-2.18-2v-.06a2.32,2.32,0,0,1,2.37-2.15A2.25,2.25,0,0,1,135.92,203.72Z"/><path class="cls-1" d="M203,130.2h5.4v1.2h-4.2v4.8h3v1.2h-3v1.2h4.21v1.2H203Z"/><path class="cls-1" d="M65.75,130.2H67l-3.57,9.6-2-3.6-1.93,3.6-3.57-9.6h1.25l2.51,6.67,1.7-3.13,1.82,3.13Z"/></g></svg>