<svg id="Layer_1" data-name="Layer 1" xmlns="http://www.w3.org/2000/svg" xmlns:xlink="http://www.w3.org/1999/xlink" viewBox="0 0 191.5 155.48"><defs><style>.cls-1{fill:url(#radial-gradient);}.cls-2{fill:#ece5cd;}.cls-3{fill:none;stroke:#ece5cd;stroke-miterlimit:10;}</style><radialGradient id="radial-gradient" cx="161.19" cy="77.74" r="87.21" gradientTransform="translate(-65.31 7.77) scale(1 0.9)" gradientUnits="userSpaceOnUse"><stop offset="0" stop-color="#424143"/><stop offset="0.49" stop-color="#424143" stop-opacity="0.97"/><stop offset="0.66" stop-color="#424143" stop-opacity="0.87"/><stop offset="0.79" stop-color="#424143" stop-opacity="0.69"/><stop offset="0.89" stop-color="#424143" stop-opacity="0.44"/><stop offset="0.97" stop-color="#424143" stop-opacity="0.12"/><stop offset="1" stop-color="#424143" stop-opacity="0"/></radialGradient></defs><title>dupont-1</title><ellipse class="cls-1" cx="95.55" cy="77.74" rx="95.55" ry="77.74"/><path class="cls-2" d="M57.63,70.63v78H41.83v-78h15.8m1-1H40.83v80h17.8v-80Z"/><path class="cls-2" d="M80,70.63v78H64.2v-78H80m1-1H63.2v80H81v-80Z"/><path class="cls-2" d="M102.36,70.63v78H86.56v-78h15.8m1-1H85.56v80h17.8v-80Z"/><path class="cls-2" d="M124.72,70.63v78H108.93v-78h15.79m1-1H107.93v80h17.79v-80Z"/><path class="cls-2" d="M52.13,6.86l3.22,57.2H44.11l3.22-57.2h4.8m.94-1H46.39l-3.34,59.2H56.41L53.07,5.86Z"/><path class="cls-2" d="M74.49,6.86l3.22,57.2H66.48L69.7,6.86h4.79m1-1H68.75l-3.33,59.2H78.77L75.44,5.86Z"/><path class="cls-2" d="M96.86,6.86l3.22,57.2H88.84l3.22-57.2h4.8m1-1H91.12l-3.33,59.2h13.35L97.81,5.86Z"/><path class="cls-2" d="M119.23,6.86l3.22,57.2H111.21l3.22-57.2h4.8m.94-1h-6.69l-3.33,59.2H123.5l-3.33-59.2Z"/><path class="cls-2" d="M35.26,90.49v58.13H11.86V90.49h23.4m1-1H10.86v60.13h25.4V89.49Z"/><path class="cls-2" d="M131.3,71.82l48.35,42v9.44l-48.35-42V71.82m-1-2.19V81.72l50.35,43.77v-12.1L130.3,69.63Z"/><path class="cls-2" d="M149.23,108l8,40.57H141.29L149.23,108m0-5.21-9.16,46.78h18.32l-9.16-46.78Z"/><path class="cls-2" d="M170,124.12l7.79,24.46H162.16L170,124.12m0-3.29-9.15,28.75h18.31L170,120.83Z"/><path class="cls-2" d="M51,129.34v2.59H48.44v-2.59H51m1-1H47.44v4.59H52v-4.59Z"/><path class="cls-2" d="M73.39,129.34v2.59H70.8v-2.59h2.59m1-1H69.8v4.59h4.59v-4.59Z"/><path class="cls-2" d="M95.76,129.34v2.59H93.17v-2.59h2.59m1-1H92.17v4.59h4.59v-4.59Z"/><path class="cls-2" d="M118.12,129.34v2.59h-2.59v-2.59h2.59m1-1h-4.59v4.59h4.59v-4.59Z"/><line class="cls-3" x1="141.25" y1="148.9" x2="154.08" y2="129.57"/><line class="cls-3" x1="157.22" y1="148.9" x2="144.44" y2="129.57"/><line class="cls-3" x1="162.03" y1="148.7" x2="172.98" y2="132.22"/><line class="cls-3" x1="177.87" y1="148.7" x2="166.96" y2="132.18"/><path class="cls-2" d="M29.56,129.34V144h-12v-14.7h12m1-1h-14V145h14v-16.7Z"/></svg>