<svg id="Layer_1" data-name="Layer 1" xmlns="http://www.w3.org/2000/svg" xmlns:xlink="http://www.w3.org/1999/xlink" viewBox="0 0 132.31 155.48"><defs><style>.cls-1{fill:url(#radial-gradient);}.cls-2{fill:#ece5cd;}</style><radialGradient id="radial-gradient" cx="95.42" cy="77.74" r="87.21" gradientTransform="translate(-0.1 7.77) scale(0.69 0.9)" gradientUnits="userSpaceOnUse"><stop offset="0" stop-color="#424143"/><stop offset="0.49" stop-color="#424143" stop-opacity="0.97"/><stop offset="0.66" stop-color="#424143" stop-opacity="0.87"/><stop offset="0.79" stop-color="#424143" stop-opacity="0.69"/><stop offset="0.89" stop-color="#424143" stop-opacity="0.44"/><stop offset="0.97" stop-color="#424143" stop-opacity="0.12"/><stop offset="1" stop-color="#424143" stop-opacity="0"/></radialGradient></defs><title>lake-1</title><ellipse class="cls-1" cx="65.99" cy="77.74" rx="66.32" ry="77.74"/><path class="cls-2" d="M101.67,79.58v-22l12.36-4L114,53.2l-.19-.78-12.45,4-13-17.84L96,28.07h-1.4L87.44,38l-21-6.82V16.56H65.34V31.14L44.37,38l-7.18-9.89H35.78l7.67,10.55-13,17.84-12-3.89-2.17-.71.09-.34,1.42-5.69H4.2l2.27,9.11h9.11l.5-2,2.16.7,11.9,3.87v22L20,82.87l-.32,1.3,10.79-3.51,13,17.84-7.77,10.7h1.4l7.29-10L55,102.62l-5.81,18.14L39,117.46l-.24,1,0,.16,10.09,3.27L39.72,150.3H92.08L83,121.84l10-3.25,0-.16-.24-1-10.1,3.28-5.81-18.14,10.63-3.45,7.29,10h1.4L88.36,98.5l13-17.84,11.34,3.69-.32-1.3ZM15.35,51.17l-.27,1.11-.38,1.53H7.36L5.65,47H16.4Zm66.19,69.94L75,123.25l0,.13-.3,1.17,7.25-2.36,8.64,27H66.47V134.22H65.34v14.95H41.28l8.64-27,7.24,2.36-.29-1.17,0-.13-6.57-2.14L56.08,103l9.26,3v14.58h1.13V106l9.26-3Zm19-41.89L76.37,71.37v.51l-.4.55,24.21,7.87L87.65,97.53l-15-20.59-.23.31-.77.25,15,20.7-10.27,3.34L69,78.37,68,78.72l7.43,23.17-8.92,2.9V79.2l-.31.11L65.34,79v25.75l-8.92-2.9,7.47-23.32-1.08-.35-7.47,23.32L45.07,98.2,60.2,77.37l-.36-.12-.48-.65L44.15,97.53,31.63,80.3l24.61-8-.3-.42V71.2l-24.66,8V57.91l24.66,8v-.68l.3-.41-24.61-8L44.15,39.59,59.36,60.53l.48-.66.36-.12L45.07,38.92l20.27-6.58V58.09l.82-.27.31.1V32.34l20.27,6.58-15,20.7.77.25.23.31,15-20.59,12.53,17.24L76,64.69l.4.55v.52l24.16-7.85Z"/><polygon class="cls-2" points="115.49 93.57 104.13 109.2 105.53 109.2 116.89 93.57 116.72 93.57 115.49 93.57"/><polygon class="cls-2" points="58.68 13.1 58.44 12.16 40.29 18.06 39.96 19.36 58.72 13.26 58.68 13.1"/><rect class="cls-2" x="9.96" y="57.21" width="1.14" height="22.7"/><polygon class="cls-2" points="16.32 43.56 27.57 28.07 26.9 28.07 26.17 28.07 14.92 43.56 15.81 43.56 16.32 43.56"/><polygon class="cls-2" points="27.68 109.2 16.32 93.57 15.59 93.57 14.92 93.57 26.28 109.2 27.68 109.2"/><polygon class="cls-2" points="120.72 57.21 120.72 79.91 121.28 79.91 121.85 79.91 121.85 57.21 121.28 57.21 120.72 57.21"/><polygon class="cls-2" points="104.84 28.07 104.24 28.07 115.49 43.56 116.57 43.56 116.89 43.56 105.64 28.07 104.84 28.07"/><polygon class="cls-2" points="91.45 18.04 73.31 12.14 73.07 13.1 73.03 13.25 91.78 19.34 91.45 18.04"/><path class="cls-2" d="M94.32,20.16l1.41,5.64h9.11l2.27-9.11H93.45L94,18.86Zm11.34-2.34L104,24.67H96.61l-1-4.09-.32-1.3-.36-1.46Z"/><path class="cls-2" d="M116.57,45.83h-2.12l1.43,5.71,0,.17.23.94,0,.17.53,2.12h9.11l2.27-9.11H116.57Zm.82,1.13h9.27L125,53.81h-7.34l-.37-1.51L117,51.19l-1-4.23Z"/><path class="cls-2" d="M121.28,82.18h-6.83l.43,1.7.05.2.27,1.1,0,.2,1.44,5.76,0,.16h9.11l2.27-9.12h-6.83Zm3.67,8h-7.34l0-.22-1-4.15-.32-1.3-.29-1.17h10.75Z"/><path class="cls-2" d="M102.48,111.47H93.56l1.32,5.31.28,1.1.67,2.71H105l2.27-9.12h-4.74Zm1.58,8H96.72l-.48-1.92-.27-1.1-1-3.82h10.75Z"/><path class="cls-2" d="M65.34,122.83H59.08l.31,1.25.32,1.3L61.35,132h9.11l1.64-6.57.32-1.3.31-1.25H65.34Zm5.81,1.66-.32,1.3-1.26,5H62.23l-1.25-5-.32-1.3-.13-.52H71.28Z"/><path class="cls-2" d="M60.61,11.46l.27,1.09h0l.44,1.73h9.11l.44-1.74.27-1.1L72.7,5.18H59.05l1.56,6.27ZM71.25,6.31,70.06,11.1l-.28,1.1-.24,1H62.2l-.24-1-.27-1.1L60.5,6.31Z"/><path class="cls-2" d="M27.82,25.8H36l1.4-5.61.32-1.3.55-2.2H24.63L26.9,25.8Zm9-8-.37,1.48-.33,1.3-1,4.07H27.79l-1.71-6.85Z"/><path class="cls-2" d="M15.64,91.07l1.41-5.67.1-.4.23-.9.1-.4.38-1.52H4.2L6.47,91.3h9.11Zm-.94-.91H7.36L5.65,83.32H16.4l-.3,1.19-.32,1.3-1,4.06Z"/><path class="cls-2" d="M34,111.47H24.52l2.27,9.12h9.12l.68-2.73.27-1.1,1.32-5.29H34Zm1.75,4.94-.28,1.1L35,119.45H27.68L26,112.61H36.73Z"/><path class="cls-2" d="M76,64.69,72.7,60.18l-.23-.31-.77-.25-5.23-1.7-.31-.1-.82.27L60.2,59.75l-.36.12-.48.66-3.12,4.3-.3.41v6.64l.3.42,3.12,4.3.48.65.36.12,2.61.85,1.08.35,1.45.47.82.27.31-.11L68,78.72,69,78.37l2.66-.87.77-.25.23-.31L76,72.43l.4-.55V65.24Zm-.73,1.44v5.38l-.4.55L72,76l-.22.31-.77.25-2.3.75-1.08.35L66.47,78l-.31.1-.82-.26-1.1-.36-1.08-.35-2.25-.73-.37-.12-.47-.66-2.69-3.7-.31-.42v-5.9l.31-.42,2.69-3.7.47-.65.37-.12,4.43-1.44.82-.27.31.11L71,60.59l.77.25.22.31,2.85,3.91.4.55Z"/></svg>