<svg id="Layer_1" data-name="Layer 1" xmlns="http://www.w3.org/2000/svg" viewBox="0 0 155.52 155.48"><defs><style>.cls-1{fill:#ece5cd;}.cls-2{fill:none;stroke:#ece5cd;stroke-miterlimit:10;}</style></defs><title>lightbulb</title><path class="cls-1" d="M77.76,19.83q.64,0,1.29,0a29.5,29.5,0,0,1,24.19,14.55c5.61,9.4,5,21.6-1.46,31.07A71.28,71.28,0,0,0,93,83.16c-3.12,9.34-3.74,13.69-3.66,19H66.21c.08-5.35-.54-9.7-3.66-19a71.28,71.28,0,0,0-8.81-17.68C47.25,56,46.67,43.81,52.27,34.41a29.53,29.53,0,0,1,24.2-14.55q.65,0,1.29,0m0-1c-.45,0-.89,0-1.33,0a30.4,30.4,0,0,0-25,15c-6,10-5.08,22.57,1.5,32.16A70.33,70.33,0,0,1,61.6,83.47c3.32,9.93,3.75,14.11,3.59,19.73H90.33c-.16-5.62.27-9.8,3.59-19.73a70.33,70.33,0,0,1,8.68-17.42c6.58-9.59,7.46-22.17,1.5-32.16a30.4,30.4,0,0,0-25-15c-.44,0-.88,0-1.33,0Z"/><path class="cls-1" d="M89.55,107.41v5.87H66.19v-5.87H89.55m1-1H65.19v7.87H90.55v-7.87Z"/><path class="cls-1" d="M89.55,118.49v5.87H66.19v-5.87H89.55m1-1H65.19v7.87H90.55v-7.87Z"/><path class="cls-1" d="M85.55,129.57a7.08,7.08,0,0,1-14,0h14m1.07-1H70.46a8.08,8.08,0,1,0,16.16,0Z"/><path class="cls-2" d="M73.72,100c0-3.71,0-4.79,0-11.65s0-7.33,0-8.08c-.13-5.53-1.66-13.6-8.08-24.24,0,0,5.64,4.45,10.16,2.54S82,50.87,89.88,56c-6.42,10.64-7.95,18.71-8.08,24.24,0,.75,0,1.32,0,8.08s0,7.94,0,11.65"/><path class="cls-1" d="M77.74,1A76.74,76.74,0,1,1,1,77.74,76.83,76.83,0,0,1,77.74,1m0-1a77.74,77.74,0,1,0,77.74,77.74A77.75,77.75,0,0,0,77.74,0Z"/><path class="cls-1" d="M77.74,6.74a71,71,0,1,1-71,71,71.08,71.08,0,0,1,71-71m0-1a72,72,0,1,0,72,72,72,72,0,0,0-72-72Z"/></svg>