<svg id="Layer_1" data-name="Layer 1" xmlns="http://www.w3.org/2000/svg" viewBox="0 0 507.3 155.76"><defs><style>.cls-1{fill:#010101;}.cls-2{fill:#fff;}.cls-3{fill:none;}.cls-4{fill:#231f20;}</style></defs><title>logo</title><path class="cls-1" d="M77.88,1.57A76.31,76.31,0,1,1,1.57,77.88,76.4,76.4,0,0,1,77.88,1.57m0-1.57a77.88,77.88,0,1,0,77.88,77.88A77.88,77.88,0,0,0,77.88,0Z"/><path class="cls-2" d="M77.87,26.41l-5.51,37.4h11Zm0,10.79,3.69,25H74.18Z"/><path class="cls-1" d="M77.87,26.41l-5.51,37.4h11l-5.51-37.4ZM74.18,62.24l3.69-25,3.69,25Z"/><path class="cls-2" d="M84.27,65.5H71.06a4.1,4.1,0,1,0,0,8.2H84.27a4.1,4.1,0,1,0,0-8.2Zm0,6.62H71.06a2.53,2.53,0,1,1,0-5.05H84.27a2.53,2.53,0,0,1,0,5.05Z"/><path class="cls-1" d="M84.27,65.5H71.06a4.1,4.1,0,1,0,0,8.2H84.27a4.1,4.1,0,1,0,0-8.2ZM71.06,72.12a2.53,2.53,0,1,1,0-5.05H84.27a2.53,2.53,0,0,1,0,5.05Z"/><path class="cls-2" d="M83.22,75.94l-.17-.56H72.69l-.17.56c-1.51,4.87-3,9-4.53,13a182.4,182.4,0,0,1-10.73,22.53H52.39v6.16h12l.74-.13L65,116.36a8.77,8.77,0,0,1-.1-1.15,13,13,0,0,1,.23-2.34l.09-.47a12.72,12.72,0,0,1,.66-2.12l.16-.34a14.72,14.72,0,0,1,1.11-2,12.59,12.59,0,0,1,1.46-1.76l.26-.25a12.72,12.72,0,0,1,1.51-1.26,7,7,0,0,1,.64-.41l.22-.13a12.31,12.31,0,0,1,1.13-.61,9.19,9.19,0,0,1,.85-.38,12.56,12.56,0,0,1,1.82-.56l.3-.09a13,13,0,0,1,15.6,12.76,8.77,8.77,0,0,1-.1,1.15l-.16,1.31h12.71v-6.16H98.49A178.49,178.49,0,0,1,87.78,89.06C86.18,85,84.74,80.85,83.22,75.94Zm14.35,37.14h4.2v3H92.42a8.67,8.67,0,0,0,.06-.89,14.61,14.61,0,0,0-14.6-14.59,14.86,14.86,0,0,0-2.9.29l-.33.09a14.37,14.37,0,0,0-2,.63c-.32.13-.64.28-1,.42s-.86.45-1.28.7l-.21.12c-.25.16-.51.31-.75.49a15,15,0,0,0-1.73,1.44l-.25.24a14.59,14.59,0,0,0-1.62,2l-.1.17a14.46,14.46,0,0,0-1.21,2.24l-.12.27a13.72,13.72,0,0,0-.75,2.38l-.09.52a14.49,14.49,0,0,0-.27,2.63,8.87,8.87,0,0,0,.06.89H54v-3h4.22l.23-.4a182.39,182.39,0,0,0,11-23.13c1.54-3.9,2.94-7.92,4.4-12.59h8c1.46,4.7,2.87,8.75,4.42,12.68a182,182,0,0,0,11,23Z"/><path class="cls-1" d="M83.05,75.38H72.69l-.17.56c-1.51,4.87-3,9-4.53,13a182.4,182.4,0,0,1-10.73,22.53H52.39v6.16h12l.74-.13L65,116.36a8.77,8.77,0,0,1-.1-1.15,13,13,0,0,1,.23-2.34l.09-.47a12.72,12.72,0,0,1,.66-2.12l.16-.34a14.72,14.72,0,0,1,1.11-2,12.59,12.59,0,0,1,1.46-1.76l.26-.25a12.72,12.72,0,0,1,1.51-1.26,7,7,0,0,1,.64-.41l.22-.13a12.31,12.31,0,0,1,1.13-.61,9.19,9.19,0,0,1,.85-.38,12.56,12.56,0,0,1,1.82-.56l.3-.09a13,13,0,0,1,15.6,12.76,8.77,8.77,0,0,1-.1,1.15l-.16,1.31h12.71v-6.16H98.49A178.49,178.49,0,0,1,87.78,89.06c-1.6-4-3-8.21-4.56-13.12l-.17-.56ZM54,116.1v-3h4.22l.23-.4a182.39,182.39,0,0,0,11-23.13c1.54-3.9,2.94-7.92,4.4-12.59h8c1.46,4.7,2.87,8.75,4.42,12.68a182,182,0,0,0,11,23l.22.4h4.2v3H92.42a8.67,8.67,0,0,0,.06-.89,14.61,14.61,0,0,0-14.6-14.59,14.86,14.86,0,0,0-2.9.29l-.33.09a14.37,14.37,0,0,0-2,.63c-.32.13-.64.28-1,.42s-.86.45-1.28.7l-.21.12c-.25.16-.51.31-.75.49a15,15,0,0,0-1.73,1.44l-.25.24a14.59,14.59,0,0,0-1.62,2l-.1.17a14.46,14.46,0,0,0-1.21,2.24l-.12.27a13.72,13.72,0,0,0-.75,2.38l-.09.52a14.49,14.49,0,0,0-.27,2.63,8.87,8.87,0,0,0,.06.89Z"/><path class="cls-2" d="M77.88,103.87a11.49,11.49,0,0,0-2,.21l-.23,0a4.31,4.31,0,0,0-.5.16,9.5,9.5,0,0,0-1.15.35c-.29.11-.59.23-.87.36s-.48.25-.81.44l-.24.12a4.29,4.29,0,0,0-.5.29l-.15.12a11.13,11.13,0,0,0-1.69,1.47,6.26,6.26,0,0,0-.41.49l-.15.18a11.16,11.16,0,0,0-.95,1.34c-.16.26-.3.54-.44.82a10.33,10.33,0,0,0-.63,1.59l-.07.22a4.11,4.11,0,0,0-.17.57,11.21,11.21,0,0,0-.33,2.59,11.07,11.07,0,0,0,.18,1.79,1.72,1.72,0,0,0,0,.18l.1.81.46,1.26a6.27,6.27,0,0,0,.35.74l.13.28a1.45,1.45,0,0,0,.14.29,11.85,11.85,0,0,0,1.42,2.06l.31.34a9.86,9.86,0,0,0,1.72,1.53l.15.13.35.19a12.47,12.47,0,0,0,1.35.73l.6.24a15,15,0,0,0,1.46.46l.29.08.23,0a11.26,11.26,0,0,0,2.06.2,11.77,11.77,0,0,0,1.65-.12l.54-.11.34-.08.69-.16c.32-.1.63-.23,1.08-.4l.36-.15c.35-.16.69-.35,1.13-.6l.21-.13a11,11,0,0,0,1-.74l.19-.15a10.61,10.61,0,0,0,.91-.86l.2-.22c.27-.3.53-.62.78-1l.22-.33c.21-.31.41-.63.65-1a2.21,2.21,0,0,0,.13-.31l.1-.2a5,5,0,0,0,.34-.74l.42-1.08L89,117a11.14,11.14,0,0,0-11.16-13.14Zm9.61,12.89-.14.94-.38,1a6.54,6.54,0,0,1-.28.6l-.27.55a8.66,8.66,0,0,1-.57.92l-.13.2c-.21.29-.44.56-.67.82l-.17.19c-.26.26-.52.51-.8.75l-.18.14a9.79,9.79,0,0,1-.86.62l-.28.16a9.09,9.09,0,0,1-.87.47l-.27.11-.17.06c-.27.11-.53.22-.8.3l-.56.13-.39.09-.39.08a9.05,9.05,0,0,1-3.19-.07l-.29,0-.24-.07a10.54,10.54,0,0,1-1.25-.4,3.66,3.66,0,0,1-.46-.18,9,9,0,0,1-1.15-.62.43.43,0,0,0-.2-.09h0l-.14-.12a9.9,9.9,0,0,1-1.6-1.42l-.23-.25a11.38,11.38,0,0,1-1.29-1.91l-.19-.41c-.1-.2-.2-.39-.28-.59l-.38-1-.09-.74a1.17,1.17,0,0,0,0-.2,10.19,10.19,0,0,1-.16-1.55A9.76,9.76,0,0,1,68.4,113a3.06,3.06,0,0,1,.13-.43l.08-.25a9.32,9.32,0,0,1,.54-1.37c.12-.24.24-.47.38-.71a10,10,0,0,1,.82-1.14l.16-.21a3.68,3.68,0,0,1,.32-.37,9.37,9.37,0,0,1,1.47-1.28.68.68,0,0,0,.12-.11l.32-.17.41-.22c.2-.11.39-.23.6-.32s.5-.22.75-.32.65-.21,1-.3a1.31,1.31,0,0,0,.28-.09l.15,0,.21,0a9,9,0,0,1,1.76-.18,9.78,9.78,0,0,1,9.77,9.76A10.19,10.19,0,0,1,87.49,116.76Z"/><path class="cls-1" d="M77.88,103.87a11.49,11.49,0,0,0-2,.21l-.23,0a4.31,4.31,0,0,0-.5.16,9.5,9.5,0,0,0-1.15.35c-.29.11-.59.23-.87.36s-.48.25-.81.44l-.24.12a4.29,4.29,0,0,0-.5.29l-.15.12a11.13,11.13,0,0,0-1.69,1.47,6.26,6.26,0,0,0-.41.49l-.15.18a11.16,11.16,0,0,0-.95,1.34c-.16.26-.3.54-.44.82a10.33,10.33,0,0,0-.63,1.59l-.07.22a4.11,4.11,0,0,0-.17.57,11.21,11.21,0,0,0-.33,2.59,11.07,11.07,0,0,0,.18,1.79,1.72,1.72,0,0,0,0,.18l.1.81.46,1.26a6.27,6.27,0,0,0,.35.74l.13.28a1.45,1.45,0,0,0,.14.29,11.85,11.85,0,0,0,1.42,2.06l.31.34a9.86,9.86,0,0,0,1.72,1.53l.15.13.35.19a12.47,12.47,0,0,0,1.35.73l.6.24a15,15,0,0,0,1.46.46l.29.08.23,0a11.26,11.26,0,0,0,2.06.2,11.77,11.77,0,0,0,1.65-.12l.54-.11.34-.08.69-.16c.32-.1.63-.23,1.08-.4l.36-.15c.35-.16.69-.35,1.13-.6l.21-.13a11,11,0,0,0,1-.74l.19-.15a10.61,10.61,0,0,0,.91-.86l.2-.22c.27-.3.53-.62.78-1l.22-.33c.21-.31.41-.63.65-1a2.21,2.21,0,0,0,.13-.31l.1-.2a5,5,0,0,0,.34-.74l.42-1.08L89,117a11.14,11.14,0,0,0-11.16-13.14Zm-5.36,19.52-.14-.12a9.9,9.9,0,0,1-1.6-1.42l-.23-.25a11.38,11.38,0,0,1-1.29-1.91l-.19-.41c-.1-.2-.2-.39-.28-.59l-.38-1-.09-.74a1.17,1.17,0,0,0,0-.2,10.19,10.19,0,0,1-.16-1.55A9.76,9.76,0,0,1,68.4,113a3.06,3.06,0,0,1,.13-.43l.08-.25a9.32,9.32,0,0,1,.54-1.37c.12-.24.24-.47.38-.71a10,10,0,0,1,.82-1.14l.16-.21a3.68,3.68,0,0,1,.32-.37,9.37,9.37,0,0,1,1.47-1.28.68.68,0,0,0,.12-.11l.32-.17.41-.22c.2-.11.39-.23.6-.32s.5-.22.75-.32.65-.21,1-.3a1.31,1.31,0,0,0,.28-.09l.15,0,.21,0a9,9,0,0,1,1.76-.18,9.78,9.78,0,0,1,9.77,9.76,10.19,10.19,0,0,1-.16,1.55l-.14.94-.38,1a6.54,6.54,0,0,1-.28.6l-.27.55a8.66,8.66,0,0,1-.57.92l-.13.2c-.21.29-.44.56-.67.82l-.17.19c-.26.26-.52.51-.8.75l-.18.14a9.79,9.79,0,0,1-.86.62l-.28.16a9.09,9.09,0,0,1-.87.47l-.27.11-.17.06c-.27.11-.53.22-.8.3l-.56.13-.39.09-.39.08a10,10,0,0,1-1.4.11,9.86,9.86,0,0,1-1.79-.18l-.29,0-.24-.07a10.54,10.54,0,0,1-1.25-.4,3.66,3.66,0,0,1-.46-.18,9,9,0,0,1-1.15-.62.43.43,0,0,0-.2-.09Z"/><path class="cls-1" d="M77.77,149.2a73,73,0,0,1-7.49-.39l-.7-.08V134.29H85.25V148.8l-.71.07C82.21,149.09,79.94,149.2,77.77,149.2Zm-6.62-1.89a67.92,67.92,0,0,0,12.52.06V135.86H71.15Z"/><path class="cls-3" d="M55.55,86.18a2.1,2.1,0,0,0-1.11-.29c-.74-.08-1.38.06-2.12,0,.74,0,1.5,0,2.24.1Z"/><path class="cls-3" d="M39,85a2.67,2.67,0,0,0,.29.42A2.67,2.67,0,0,1,39,85Z"/><path class="cls-3" d="M37.34,83.33a2.77,2.77,0,0,1,1.06.13A2.1,2.1,0,0,0,37.34,83.33Z"/><path class="cls-1" d="M7.87,78.19a69.54,69.54,0,0,1,9.28-34.78A24.32,24.32,0,0,1,16.76,41,71.18,71.18,0,0,0,6.29,78.19v0c.53,0,1,0,1.58,0Z"/><path class="cls-1" d="M57.53,86.36c-.68-1.67-3-1.53-4.46-1.59a45.52,45.52,0,0,0-8.94.33c-.89.11-1.62.23-2.11.32a1.87,1.87,0,0,1-1.81-.68,1.7,1.7,0,0,1-.32-1.09,1.17,1.17,0,0,0,0-.31,1.49,1.49,0,0,0,0-.21,1.47,1.47,0,0,0-1-.76c-2.34-.68-5.65.43-8,.61a41.44,41.44,0,0,1-4.46.11c-.64,0-3.72.24-3.36-.87.17-.5,2-1.28,2.39-1.43s1.21-.23,1.74-.47A1.49,1.49,0,0,0,28.3,79c.35-4.15-7.43-1.69-9.27-1.47a86.63,86.63,0,0,1-11.16.69c0,.4,0,.79,0,1.19,2.84,0,5.69-.18,8.5-.42,1.71-.16,3.43-.34,5.12-.63.68-.11,1.34-.28,2-.41a6.88,6.88,0,0,1,1.86-.19l.78.13c1.32.07.51,1.53-.39,1.53-1.25.87-3.27.94-4,2.58-.53,1.21.55,1.83,1.57,2a30,30,0,0,0,7.21.13c1.16-.08,2.3-.22,3.45-.38a26.3,26.3,0,0,1,3.33-.48,2.1,2.1,0,0,1,1.06.13.86.86,0,0,1,.31.19c-.12-.14.07.89.08.94A1.94,1.94,0,0,0,39,85a2.67,2.67,0,0,0,.29.42,2.79,2.79,0,0,0,1.27.87,8.3,8.3,0,0,0,3.61,0c1.48-.17,3-.28,4.46-.34,1.24,0,2.49,0,3.73,0,.74,0,1.39,0,2.12,0a2.1,2.1,0,0,1,1.11.29l.06,0,.07,0c.41.49.37,1.08-.25,1.65-.44.65-3.39.83-4.15,1-1.59.26-3.19.44-4.79.64s-9.88.6-9.19,3.41c.13.52.58.76,1,1,.66.41,3.53,1,1.78,2-.94.55-3,.36-4.13.48l-5,.54-5,.55-1.54.16c-.44.06-.89.1-1.33.14-1.43-.63-1.61-1.18-.54-1.66.9-.75,1.62-2,.41-2.85-1.6-1.11-4.4-.3-6.12.08a35.92,35.92,0,0,1-7.1.84c.09.4.2.79.3,1.19A29.72,29.72,0,0,0,15,95a46.78,46.78,0,0,1,4.86-.92c1.11-.07,2.82-.52,1.69,1.37-.17.29-.59.45-.79.76a1.79,1.79,0,0,0,1,2.68,7.83,7.83,0,0,0,3.37-.08l4.6-.5,9.22-1c1.07-.12,3-.3,3.14-1.74.19-1.67-3.81-2.39-3.37-3.19.33-.61,3-.9,3.66-1,1.81-.37,3.65-.58,5.48-.81S59,90,57.53,86.36Z"/><path class="cls-1" d="M34,83.81c1.09-.17,2.39-.43,3.33-.48A26.3,26.3,0,0,0,34,83.81Z"/><path class="cls-1" d="M38.79,84.59s-.2-1.08-.08-.94a.86.86,0,0,0-.31-.19.36.36,0,0,1,.17.15C38.63,83.75,38.62,84,38.79,84.59Z"/><path class="cls-1" d="M39,85a1.94,1.94,0,0,1-.17-.41A2.29,2.29,0,0,0,39,85Z"/><path class="cls-1" d="M30.56,84.19c2.21-.16,3.31-.36,3.45-.38C32.86,84,31.72,84.11,30.56,84.19Z"/><path class="cls-1" d="M6.29,78.23c0,.19,0,.38,0,.57l.74.63.84,0c0-.4,0-.79,0-1.19C7.34,78.26,6.82,78.25,6.29,78.23Z"/><path class="cls-1" d="M9.73,94.24c-.54,0-1.08,0-1.62,0,.09.41.19.81.29,1.21.54,0,1.08,0,1.63,0C9.93,95,9.82,94.64,9.73,94.24Z"/><path class="cls-1" d="M6.32,79.41l.73,0-.74-.63C6.31,79,6.31,79.21,6.32,79.41Z"/><path class="cls-1" d="M64.38,38.36a23.08,23.08,0,0,1-46,2.93c-.43.7-.84,1.41-1.25,2.12A24.66,24.66,0,1,0,48.34,14.74c-.74.34-1.46.69-2.18,1.06A23.12,23.12,0,0,1,64.38,38.36Z"/><path class="cls-1" d="M18.4,41.29a24.47,24.47,0,0,1-.19-2.58c-.49.74-1,1.5-1.45,2.26a24.32,24.32,0,0,0,.39,2.44C17.56,42.7,18,42,18.4,41.29Z"/><path class="cls-1" d="M46.16,15.8c.72-.37,1.44-.72,2.18-1.06a24.71,24.71,0,0,0-2.4-.59c-.79.4-1.57.81-2.35,1.24A21.84,21.84,0,0,1,46.16,15.8Z"/><path class="cls-1" d="M32.38,37.57a2,2,0,1,1-2,2,2,2,0,0,1,2-2m0-1.57a3.56,3.56,0,1,0,3.56,3.56A3.56,3.56,0,0,0,32.38,36Z"/><path class="cls-1" d="M50.81,29.46a4.89,4.89,0,1,1-4.88,4.88,4.89,4.89,0,0,1,4.88-4.88m0-1.57a6.46,6.46,0,1,0,6.46,6.45,6.45,6.45,0,0,0-6.46-6.45Z"/><path class="cls-1" d="M42.48,49.72a.7.7,0,0,1,.7.71.7.7,0,0,1-.7.7.7.7,0,0,1-.71-.7.71.71,0,0,1,.71-.71m0-1.57a2.28,2.28,0,1,0,2.28,2.28,2.28,2.28,0,0,0-2.28-2.28Z"/><path class="cls-1" d="M147.22,87.81a10.8,10.8,0,0,0-3.85.17,20.24,20.24,0,0,0-2.39.78,17.06,17.06,0,0,1-2.27.73,4,4,0,0,1-3.84-.72,1.11,1.11,0,0,1-.38-.86c.09-.41.73-.73,1.29-1l2.52-1.06a3.61,3.61,0,0,0,2.31-2c.49-1.61-.9-3-2.4-3.63a10.41,10.41,0,0,0-6.92-.37h0c-5.13,1.78-10.81,1.13-16.31.5l-.93-.11c-7.12-.8-14.36-1.31-21.53-1.52A5.23,5.23,0,0,1,89.41,78a1.61,1.61,0,0,1-.56-1.28.71.71,0,0,1,.31-.6A2.18,2.18,0,0,1,90.29,76c2.4,0,4.71.17,6.95.3,6.32.36,12.29.7,18.84-1.18l.44-.09c1.49-.29,2.58-.55,3-1.27a1.23,1.23,0,0,0,.12-1c-.43-1.39-2.08-1.78-2.62-1.91a4.9,4.9,0,0,1-1.9-1c-.15-.12-.2-.21-.2-.24s.36-.57,1.09-1a5.16,5.16,0,0,1,2.55-.36l15.16.25c2.28,0,4.59-.17,5.92-1.88a4.36,4.36,0,0,0-2.56-6.94c-.64-.21-1.36-.46-1.43-.83.24-.32,1.89-.31,2.52-.31h.67l7.79-.14-.23-.82A71.74,71.74,0,0,0,84.57,6.93c-2.2-.21-4.43-.33-6.69-.33a72.3,72.3,0,0,0-7.4.39,70.91,70.91,0,0,0-24.54,7.16,24.71,24.71,0,0,1,2.4.59A69.3,69.3,0,0,1,70.48,8.57a72.3,72.3,0,0,1,7.4-.39c2.26,0,4.49.12,6.69.33a70.18,70.18,0,0,1,60,48.3l-5.72.12h-.62c-1.42,0-3,0-3.74.88a1.62,1.62,0,0,0-.32,1.39c.24,1.19,1.41,1.59,2.45,1.94a3.67,3.67,0,0,1,1.7.89,3.14,3.14,0,0,1,.13,3.59c-1,1.23-2.89,1.3-4.65,1.27l-15.17-.25a6.59,6.59,0,0,0-3.33.57c-.82.45-1.81,1.2-1.9,2.22a1.83,1.83,0,0,0,.8,1.61,6.46,6.46,0,0,0,2.51,1.33A2.59,2.59,0,0,1,118,73a10.44,10.44,0,0,1-1.81.47l-.52.1c-6.36,1.82-12.2,1.49-18.38,1.14-2.26-.13-4.59-.27-7-.3a3.57,3.57,0,0,0-2,.38,2.27,2.27,0,0,0-1.07,1.85,3.16,3.16,0,0,0,1.16,2.62,6.77,6.77,0,0,0,4,1c7.12.21,14.32.72,21.4,1.52l.93.1c5.68.65,11.55,1.32,17-.58h0a9,9,0,0,1,5.78.34c.74.31,1.7,1,1.5,1.72-.14.45-.76.77-1.42,1l-2.52,1.06c-.64.27-2,.83-2.22,2.12a2.54,2.54,0,0,0,.78,2.24,4.92,4.92,0,0,0,3.63,1.38,7.8,7.8,0,0,0,1.7-.2,19.27,19.27,0,0,0,2.47-.8,20.85,20.85,0,0,1,2.2-.72,8.92,8.92,0,0,1,3.26-.14,70,70,0,0,1-45.54,54.74V119.35H90.16l-.2.5a9.75,9.75,0,0,1-.45,1.05l-.11.23c0,.09-.08.18-.13.27-.15.28-.32.54-.56.91l-.11.17c-.11.17-.22.34-.34.5s-.4.49-.66.79-.36.42-.56.62-.45.42-.68.63-.46.4-.71.58-.49.35-.74.52-.53.33-.81.48a8.46,8.46,0,0,1-.79.41c-.3.14-.61.26-1,.42-.22.09-.45.17-.68.24a10.76,10.76,0,0,1-1.09.26l-.29.07-.43.09a12.27,12.27,0,0,1-4.26-.09l-.53-.13-.24-.06a11.66,11.66,0,0,1-1.42-.44,8.36,8.36,0,0,1-.87-.36,10.12,10.12,0,0,1-1.17-.63A13,13,0,0,1,69,124.7l-.14-.14a12.93,12.93,0,0,1-1-1.1c-.13-.15-.26-.31-.38-.47s-.4-.59-.59-.9l-.09-.13c-.11-.18-.23-.36-.33-.54l-.12-.27-.12-.25q-.25-.53-.45-1.05l-.25-.5H54.3v24.76A70,70,0,0,1,10,95.43c-.55,0-1.09,0-1.63,0A71.56,71.56,0,0,0,54.84,146l1,.35v-25.4h8.65c.1.22.2.44.31.66l.09.21c.06.12.11.24.18.37s.25.42.46.75a11.61,11.61,0,0,0,.67,1c.13.18.27.36.41.53a13.48,13.48,0,0,0,1.16,1.27l.12.13a14.79,14.79,0,0,0,2.55,1.88,12.87,12.87,0,0,0,1.32.71c.32.15.65.28,1,.4a14.82,14.82,0,0,0,1.6.5l.23.06.63.14a13.32,13.32,0,0,0,4.78.1l.56-.11.24-.06c.42-.08.83-.17,1.24-.29s.52-.18.9-.32.69-.27,1-.42.6-.3.89-.46.61-.35.91-.54.56-.38.83-.58.54-.43.8-.66.52-.46.76-.7.43-.46.68-.76.47-.54.68-.82.27-.39.4-.59l.17-.26c.2-.3.39-.6.56-.91l.19-.38.08-.18c.11-.23.21-.45.31-.68h8.65v25.39l1-.35a71.56,71.56,0,0,0,47.61-56.25l.29-1.66Z"/><rect class="cls-1" x="76.63" y="109.77" width="1.57" height="7.12"/><rect class="cls-1" x="76.63" y="115.32" width="9.01" height="1.57"/><path class="cls-4" d="M205.79,42.1l-3.15,2.51a4.08,4.08,0,0,0-3-1.27,4,4,0,0,0-4.17,3.7v.21c0,1.88,1.32,3.16,3.88,3.33,9.79.59,14.31,5.19,14.31,11.28v.43c-.21,6.31-5.88,11.33-12.65,11.33a12.17,12.17,0,0,1-9.16-4l3.28-2.52a7.76,7.76,0,0,0,6,2.43c4.48,0,8.31-3.11,8.44-7.32v-.3c0-5.71-5.62-6.78-10.48-7.24-4.52-.43-7.75-3.24-7.75-7.29v-.21c.13-4.22,4-7.62,8.43-7.62A8,8,0,0,1,205.79,42.1Z"/><path class="cls-4" d="M216.6,39.55l4.26,0a3.77,3.77,0,0,1,.69,0,12.78,12.78,0,0,1,0,25.55h-.69v8.52H216.6Zm4.26,4.38v17h.69a8.5,8.5,0,1,0,0-17A3.77,3.77,0,0,0,220.86,43.93Z"/><path class="cls-4" d="M254.21,39.55a17,17,0,1,1-17,17A17,17,0,0,1,254.21,39.55Zm0,29.9a12.83,12.83,0,1,0-12.83-12.83A12.78,12.78,0,0,0,254.26,69.45Z"/><path class="cls-4" d="M291.18,39.55a17,17,0,1,1-17,17A17,17,0,0,1,291.18,39.55Zm.05,29.9a12.83,12.83,0,1,0-12.82-12.83A12.78,12.78,0,0,0,291.23,69.45Z"/><path class="cls-4" d="M312.82,39.55h4.26V60.88l12.27-21.33h4.94l-9.8,17,9.8,17h-4.94L322,60.88l-4.94,8.61v4.13h-4.26Z"/><path class="cls-4" d="M352.47,73.62h-4.26V64.89L336.67,39.55h4.81l8.82,19.76,8.78-19.76h4.68L352.47,65.14Z"/><path class="cls-4" d="M401.2,42.1l-3.15,2.51a4.08,4.08,0,0,0-3-1.27,4,4,0,0,0-4.17,3.7v.21c0,1.88,1.32,3.16,3.88,3.33,9.79.59,14.31,5.19,14.31,11.28v.43c-.21,6.31-5.88,11.33-12.65,11.33a12.17,12.17,0,0,1-9.16-4l3.28-2.52a7.77,7.77,0,0,0,6,2.43c4.48,0,8.31-3.11,8.44-7.32v-.3c0-5.71-5.62-6.78-10.48-7.24-4.51-.43-7.75-3.24-7.75-7.29v-.21c.13-4.22,4-7.62,8.43-7.62A8,8,0,0,1,401.2,42.1Z"/><path class="cls-4" d="M412,39.55l4.26,0a3.77,3.77,0,0,1,.69,0,12.78,12.78,0,0,1,0,25.55h-.69v8.52H412Zm4.26,4.38v17H417a8.5,8.5,0,1,0,0-17A3.77,3.77,0,0,0,416.27,43.93Z"/><path class="cls-4" d="M449.63,39.55a17,17,0,1,1-17,17A17,17,0,0,1,449.63,39.55Zm0,29.9a12.83,12.83,0,1,0-12.82-12.83A12.78,12.78,0,0,0,449.67,69.45Z"/><path class="cls-4" d="M466.62,39.55h17V43.8h-6.39V73.62H473V43.8h-6.39Z"/><path class="cls-4" d="M499.42,42.1l-3.16,2.51a4,4,0,0,0-3-1.27,4,4,0,0,0-4.17,3.7v.21c0,1.88,1.32,3.16,3.87,3.33,9.8.59,14.32,5.19,14.32,11.28v.43c-.22,6.31-5.88,11.33-12.65,11.33a12.17,12.17,0,0,1-9.16-4l3.28-2.52a7.76,7.76,0,0,0,6,2.43c4.48,0,8.31-3.11,8.44-7.32v-.3c0-5.71-5.62-6.78-10.48-7.24-4.52-.43-7.75-3.24-7.75-7.29v-.21c.12-4.22,4-7.62,8.43-7.62A8,8,0,0,1,499.42,42.1Z"/><path class="cls-4" d="M201.72,93.49a11.36,11.36,0,1,1-11.37,11.36A11.36,11.36,0,0,1,201.72,93.49Zm0,19.94a8.55,8.55,0,1,0-8.56-8.55A8.53,8.53,0,0,0,201.75,113.43Z"/><path class="cls-4" d="M216.16,93.49H229v2.84H219v11.36h7.1v2.84H219v5.68h-2.85Z"/><path class="cls-4" d="M267.57,93.49h2.95l-8.46,22.72-4.74-8.52-4.58,8.52-8.46-22.72h2.95l6,15.79,4-7.41,4.32,7.41Z"/><path class="cls-4" d="M272.5,93.49h12.79v2.84h-10v11.36h7.1v2.84h-7.1v2.84h10v2.84H272.5Z"/><path class="cls-4" d="M296.7,95.19l-2.1,1.68a2.72,2.72,0,0,0-2-.85,2.65,2.65,0,0,0-2.79,2.47v.14c0,1.25.88,2.1,2.59,2.22,6.53.39,9.54,3.46,9.54,7.52v.29c-.14,4.2-3.92,7.55-8.43,7.55a8.13,8.13,0,0,1-6.11-2.67l2.19-1.67a5.17,5.17,0,0,0,4,1.62,5.36,5.36,0,0,0,5.63-4.89v-.2c0-3.8-3.75-4.52-7-4.83-3-.28-5.17-2.16-5.17-4.86v-.14a5.51,5.51,0,0,1,5.62-5.08A5.36,5.36,0,0,1,296.7,95.19Z"/><path class="cls-4" d="M300.81,93.49h11.37v2.84h-4.27v19.88h-2.84V96.33h-4.26Z"/><path class="cls-4" d="M330.46,93.49l5.39,15.14,5.51-15.14h3l-8.47,22.72L327.5,93.49Z"/><path class="cls-4" d="M346.3,93.49h2.84v22.72H346.3Z"/><path class="cls-4" d="M353.11,93.49l2.84,0a2.27,2.27,0,0,1,.46,0,8.52,8.52,0,0,1,4.49,15.76l4,7h-3.29l-3.38-5.88a7.41,7.41,0,0,1-1.82.2H356v5.68h-2.84ZM356,96.41v11.31h.46a5.67,5.67,0,1,0,0-11.33A3.39,3.39,0,0,0,356,96.41Z"/><path class="cls-4" d="M387.37,116.21h-2.84v-2a11,11,0,0,1-6.28,2,11.36,11.36,0,1,1,8.49-18.91l-2.1,1.87a8.55,8.55,0,1,0-6.36,14.26,8.22,8.22,0,0,0,6.25-2.87h-7.7v-2.84l10.54,0Z"/><path class="cls-4" d="M391.33,93.49h2.84v22.72h-2.84Z"/><path class="cls-4" d="M401,99.08v17.13h-2.84V93.49H401l9.86,17v-17h2.84v22.72H410.9Z"/><path class="cls-4" d="M417.71,93.49h2.84v22.72h-2.84Z"/><path class="cls-4" d="M425.49,116.21h-2.95l8.35-22.72,8.46,22.72h-3l-2.27-5.68h-6.4Zm3.18-8.52h4.55l-2.33-6.62Z"/></svg>