<svg id="Layer_1" data-name="Layer 1" xmlns="http://www.w3.org/2000/svg" xmlns:xlink="http://www.w3.org/1999/xlink" viewBox="0 0 166.68 112.45"><defs><style>.cls-1{fill:url(#radial-gradient);}.cls-2{fill:#ece5cd;}</style><radialGradient id="radial-gradient" cx="71.2" cy="193.92" r="87.21" gradientTransform="translate(21.31 -70) scale(0.87 0.65)" gradientUnits="userSpaceOnUse"><stop offset="0" stop-color="#424143"/><stop offset="0.49" stop-color="#424143" stop-opacity="0.97"/><stop offset="0.66" stop-color="#424143" stop-opacity="0.87"/><stop offset="0.79" stop-color="#424143" stop-opacity="0.69"/><stop offset="0.89" stop-color="#424143" stop-opacity="0.44"/><stop offset="0.97" stop-color="#424143" stop-opacity="0.12"/><stop offset="1" stop-color="#424143" stop-opacity="0"/></radialGradient></defs><title>prison-1</title><ellipse class="cls-1" cx="83.3" cy="56.23" rx="83.38" ry="56.23"/><path class="cls-2" d="M22.76,10.94l1.92.42V18l.85.13a39.71,39.71,0,0,1,4.54.95l1.26.35V13l1.92.65V24.45a62.78,62.78,0,0,0-27.64,0V13.6L7.53,13v6.46l1.26-.35a41,41,0,0,1,4.54-.95l.85-.13V11.36l1.92-.42v6.82l1.06-.06c.77,0,1.48-.06,2.16-.07h.11c.74,0,1.51,0,2.27.07l1.06.06V10.94m-1-1.25v7c-.76,0-1.54-.07-2.33-.07h-.11c-.76,0-1.49,0-2.22.07v-7l-3.92.87v6.56a40.53,40.53,0,0,0-4.65,1V11.56L4.61,12.88V25.71a61.91,61.91,0,0,1,29.64,0V12.88l-3.92-1.32V18.1a40.53,40.53,0,0,0-4.65-1V10.56l-3.92-.87Z"/><path class="cls-2" d="M143.92,10.94v6.82L145,17.7c.77,0,1.48-.06,2.16-.07h.11c.74,0,1.51,0,2.27.07l1.06.06V10.94l1.92.42V18l.85.13a39.71,39.71,0,0,1,4.54.95l1.26.35V13l1.92.65V24.45a62.78,62.78,0,0,0-27.64,0V13.6l1.92-.65v6.46l1.26-.35a41,41,0,0,1,4.54-.95L142,18V11.36l1.92-.42m5.66-1.25v7c-.76,0-1.54-.07-2.33-.07h-.11c-.76,0-1.49,0-2.22.07v-7l-3.92.87v6.56a40.53,40.53,0,0,0-4.65,1V11.56l-3.92,1.32V25.71a61.91,61.91,0,0,1,29.64,0V12.88l-3.92-1.32V18.1a40.53,40.53,0,0,0-4.65-1V10.56l-3.92-.87Z"/><path class="cls-2" d="M64.69,19.42V71.13H45.37v35.73H37V33.07h24.9V19.42h2.75m-16.95,32H54V39.58H47.74V51.45m0,14.4H54V54H47.74V65.85M65.69,18.42H60.94V32.07H36v75.79H46.37V72.13H65.69V18.42Zm-16.95,32V40.58H53v9.87Zm0,14.4V55H53v9.87Z"/><path class="cls-2" d="M104.74,19.42V33.07h24.9v73.79h-8.33V71.13H102V19.42h2.74m8,32h6.24V39.58H112.7V51.45m0,14.4h6.24V54H112.7V65.85m-7-47.43H101V72.13h19.31v35.73h10.33V32.07h-24.9V18.42Zm8,32V40.58h4.24v9.87Zm0,14.4V55h4.24v9.87Z"/><path class="cls-2" d="M83.34,27.55a2.29,2.29,0,1,1-2.29,2.29,2.29,2.29,0,0,1,2.29-2.29m0-1a3.29,3.29,0,1,0,3.29,3.29,3.29,3.29,0,0,0-3.29-3.29Z"/><path class="cls-2" d="M19.43,26.7a61.23,61.23,0,0,1,13.82,1.58V107a73.7,73.7,0,0,1-13.82,1.32h-.18A73.47,73.47,0,0,1,5.61,107V28.28A61.17,61.17,0,0,1,19.3,26.7h.13M16.05,54.78h6.24V42.9H16.05V54.78m.26,27.86h6.24V70.76H16.31V82.64M19.43,25.7h-.14A62.89,62.89,0,0,0,4.61,27.49v80.37a74.64,74.64,0,0,0,14.63,1.48h.19a74.63,74.63,0,0,0,14.82-1.49V27.49A62.26,62.26,0,0,0,19.43,25.7ZM17.05,53.78V43.9h4.24v9.88Zm.26,27.86V71.76h4.24v9.88Z"/><path class="cls-2" d="M147.25,26.7a61.23,61.23,0,0,1,13.82,1.58V107a73.7,73.7,0,0,1-13.82,1.32h-.18A73.47,73.47,0,0,1,133.43,107V28.28a61.17,61.17,0,0,1,13.69-1.58h.13m-3.38,28.08h6.24V42.9h-6.24V54.78m.26,27.86h6.24V70.76h-6.24V82.64m3.12-56.94h-.14a62.89,62.89,0,0,0-14.68,1.79v80.37a74.64,74.64,0,0,0,14.63,1.48h.19a74.63,74.63,0,0,0,14.82-1.49V27.49a62.26,62.26,0,0,0-14.82-1.79Zm-2.38,28.08V43.9h4.24v9.88Zm.26,27.86V71.76h4.24v9.88Z"/><path class="cls-2" d="M117.51,74.92v31.94h-3.1V91.25l0-.11a8,8,0,0,0-2.11-3.82,13.84,13.84,0,0,0-7-3.59l-.2,0-.21,0a13.84,13.84,0,0,0-7,3.59,8.15,8.15,0,0,0-2.1,3.82l0,.11v15.61h-3.1V91.25l0-.11a8.17,8.17,0,0,0-2.11-3.82,13.84,13.84,0,0,0-7-3.59l-.2,0-.21,0a13.84,13.84,0,0,0-7,3.59A8,8,0,0,0,74,91.14l0,.11v15.61h-3.1V91.25l0-.11a8.17,8.17,0,0,0-2.11-3.82,13.84,13.84,0,0,0-7-3.59l-.2,0-.21,0a13.84,13.84,0,0,0-7,3.59,8.15,8.15,0,0,0-2.1,3.82l0,.11v15.61h-3.1V74.92h68.35m1-1H48.16v33.94h5.1V91.36A7.18,7.18,0,0,1,55.11,88a12.89,12.89,0,0,1,6.48-3.3A12.9,12.9,0,0,1,68.06,88a7.09,7.09,0,0,1,1.85,3.35v16.5H75V91.36A7.18,7.18,0,0,1,76.86,88a12.89,12.89,0,0,1,6.48-3.3A12.9,12.9,0,0,1,89.81,88a7,7,0,0,1,1.85,3.35v16.5h5.1V91.36A7.18,7.18,0,0,1,98.61,88a12.89,12.89,0,0,1,6.48-3.3,12.9,12.9,0,0,1,6.47,3.3,7,7,0,0,1,1.85,3.35v16.5h5.1V73.92Z"/><path class="cls-2" d="M84.71,4.11V16l.23.27L98.2,32.43v38.7H68.48V32.43L81.73,16.28,82,16V4.11h2.75M83.34,36.87a7,7,0,1,0-7-7,7,7,0,0,0,7,7m-3,14.58h6.24V39.58H80.38V51.45m0,14.4h6.24V54H80.38V65.85M85.71,3.11H81V15.64L67.48,32.07V72.13H99.2V32.07L85.71,15.63V3.11ZM83.34,35.87a6,6,0,1,1,6-6,6,6,0,0,1-6,6Zm-2,14.58V40.58h4.24v9.87Zm0,14.4V55h4.24v9.87Z"/></svg>