<svg id="Layer_1" data-name="Layer 1" xmlns="http://www.w3.org/2000/svg" xmlns:xlink="http://www.w3.org/1999/xlink" viewBox="0 0 166.68 83.36"><defs><style>.cls-1{fill:url(#radial-gradient);}.cls-2{fill:none;stroke:#ece5cd;stroke-linecap:square;stroke-miterlimit:10;}</style><radialGradient id="radial-gradient" cx="96.88" cy="192.74" r="87.21" gradientTransform="translate(-1.06 -51.32) scale(0.87 0.48)" gradientUnits="userSpaceOnUse"><stop offset="0" stop-color="#424143"/><stop offset="0.49" stop-color="#424143" stop-opacity="0.97"/><stop offset="0.66" stop-color="#424143" stop-opacity="0.87"/><stop offset="0.79" stop-color="#424143" stop-opacity="0.69"/><stop offset="0.89" stop-color="#424143" stop-opacity="0.44"/><stop offset="0.97" stop-color="#424143" stop-opacity="0.12"/><stop offset="1" stop-color="#424143" stop-opacity="0"/></radialGradient></defs><title>ruins-1</title><ellipse class="cls-1" cx="83.3" cy="41.68" rx="83.38" ry="41.68"/><line class="cls-2" x1="40.68" y1="81.12" x2="66.86" y2="81.12"/><line class="cls-2" x1="29.41" y1="69.85" x2="63.22" y2="69.85"/><line class="cls-2" x1="40.68" y1="69.85" x2="40.68" y2="81.12"/><line class="cls-2" x1="63.22" y1="13.51" x2="63.22" y2="81.12"/><line class="cls-2" x1="92.19" y1="13.51" x2="92.19" y2="81.12"/><line class="cls-2" x1="18.15" y1="58.58" x2="63.22" y2="58.58"/><line class="cls-2" x1="29.41" y1="58.58" x2="29.41" y2="69.85"/><line class="cls-2" x1="51.95" y1="58.58" x2="51.95" y2="69.85"/><line class="cls-2" x1="18.15" y1="47.31" x2="63.22" y2="47.31"/><line class="cls-2" x1="40.68" y1="47.31" x2="40.68" y2="58.58"/><line class="cls-2" x1="18.15" y1="47.31" x2="18.15" y2="58.58"/><line class="cls-2" x1="51.95" y1="36.05" x2="51.95" y2="47.31"/><line class="cls-2" x1="40.68" y1="36.05" x2="63.22" y2="36.05"/><line class="cls-2" x1="40.68" y1="24.78" x2="40.68" y2="36.05"/><line class="cls-2" x1="63.22" y1="24.78" x2="40.68" y2="24.78"/><line class="cls-2" x1="51.95" y1="2.24" x2="51.95" y2="13.51"/><line class="cls-2" x1="103.46" y1="13.51" x2="51.95" y2="13.51"/><line class="cls-2" x1="103.46" y1="2.24" x2="51.95" y2="2.24"/><line class="cls-2" x1="137.27" y1="81.12" x2="88.57" y2="81.12"/><line class="cls-2" x1="148.54" y1="69.85" x2="92.19" y2="69.85"/><line class="cls-2" x1="137.27" y1="69.85" x2="137.27" y2="81.12"/><line class="cls-2" x1="114.73" y1="69.85" x2="114.73" y2="81.12"/><line class="cls-2" x1="148.51" y1="58.58" x2="92.19" y2="58.58"/><line class="cls-2" x1="148.54" y1="58.58" x2="148.54" y2="69.85"/><line class="cls-2" x1="126" y1="58.58" x2="126" y2="69.85"/><line class="cls-2" x1="103.46" y1="58.58" x2="103.46" y2="69.85"/><line class="cls-2" x1="114.73" y1="47.32" x2="92.19" y2="47.32"/><line class="cls-2" x1="114.73" y1="47.31" x2="114.73" y2="58.58"/><line class="cls-2" x1="103.46" y1="36.05" x2="103.46" y2="47.31"/><line class="cls-2" x1="114.73" y1="36.05" x2="92.19" y2="36.05"/><line class="cls-2" x1="114.73" y1="24.78" x2="114.73" y2="36.05"/><line class="cls-2" x1="92.19" y1="24.78" x2="114.73" y2="24.78"/><line class="cls-2" x1="103.46" y1="2.24" x2="103.46" y2="24.78"/><polyline class="cls-2" points="66.86 81.12 66.86 17.16 88.57 17.16 88.57 81.12"/></svg>