<svg id="Layer_1" data-name="Layer 1" xmlns="http://www.w3.org/2000/svg" xmlns:xlink="http://www.w3.org/1999/xlink" viewBox="0 0 132.31 155.48"><defs><style>.cls-1{fill:url(#radial-gradient);}.cls-2{fill:#ece5cd;}.cls-3{fill:none;stroke:#ece5cd;stroke-miterlimit:10;}</style><radialGradient id="radial-gradient" cx="128.9" cy="77.74" r="87.21" gradientTransform="translate(-22.9 7.77) scale(0.69 0.9)" gradientUnits="userSpaceOnUse"><stop offset="0" stop-color="#424143"/><stop offset="0.49" stop-color="#424143" stop-opacity="0.97"/><stop offset="0.66" stop-color="#424143" stop-opacity="0.87"/><stop offset="0.79" stop-color="#424143" stop-opacity="0.69"/><stop offset="0.89" stop-color="#424143" stop-opacity="0.44"/><stop offset="0.97" stop-color="#424143" stop-opacity="0.12"/><stop offset="1" stop-color="#424143" stop-opacity="0"/></radialGradient></defs><title>thurmond-1</title><ellipse class="cls-1" cx="66.16" cy="77.74" rx="66.16" ry="77.74"/><path class="cls-2" d="M114.17,112.57v14.12H52.89V112.57h61.28m1-1H51.89v16.12h63.28V111.57Z"/><line class="cls-3" x1="114.61" y1="78.73" x2="114.61" y2="127.69"/><path class="cls-2" d="M123.42,62.42l1.87,1.87-8.1,8.11-.71.7.71.71,8.1,8.11-1.87,1.87-8.1-8.11-.71-.71-.7.71-8.11,8.11-1.87-1.87L112,73.81l.7-.71-.7-.7-8.11-8.11,1.87-1.87,8.11,8.11.7.7.71-.7,8.1-8.11m0-1.41-8.81,8.81L105.8,61l-3.28,3.28,8.81,8.81-8.81,8.82,3.28,3.28,8.81-8.81,8.81,8.81,3.29-3.28L117.9,73.1l8.81-8.81L123.42,61Z"/><path class="cls-2" d="M106.47,91.53a4.23,4.23,0,1,1-4.23,4.22,4.22,4.22,0,0,1,4.23-4.22m0-1a5.23,5.23,0,1,0,5.22,5.22,5.23,5.23,0,0,0-5.22-5.22Z"/><path class="cls-2" d="M122.77,91.53a4.23,4.23,0,1,1-4.22,4.22,4.23,4.23,0,0,1,4.22-4.22m0-1A5.23,5.23,0,1,0,128,95.75a5.22,5.22,0,0,0-5.23-5.22Z"/><line class="cls-3" x1="62.54" y1="111.57" x2="62.54" y2="127.69"/><line class="cls-3" x1="72.95" y1="111.57" x2="72.95" y2="127.69"/><line class="cls-3" x1="83.36" y1="111.57" x2="83.36" y2="127.69"/><line class="cls-3" x1="93.77" y1="111.57" x2="93.77" y2="127.69"/><line class="cls-3" x1="104.18" y1="111.57" x2="104.18" y2="127.69"/><path class="cls-2" d="M77.16,34.69v13H68.5v-13h8.66m1-1H67.5v15H78.16v-15Z"/><path class="cls-2" d="M87.38,60.9v2.78H58V60.9h29.4m1-1H57v4.78h31.4V59.9Z"/><path class="cls-2" d="M77.16,76.89v13H68.5v-13h8.66m1-1H67.5v15H78.16v-15Z"/><line class="cls-3" x1="57.34" y1="111.57" x2="57.34" y2="127.69"/><line class="cls-3" x1="67.75" y1="111.57" x2="67.75" y2="127.69"/><line class="cls-3" x1="78.16" y1="111.57" x2="78.16" y2="127.69"/><line class="cls-3" x1="88.57" y1="111.57" x2="88.57" y2="127.69"/><line class="cls-3" x1="98.98" y1="111.57" x2="98.98" y2="127.69"/><line class="cls-3" x1="109.39" y1="111.57" x2="109.39" y2="127.69"/><line class="cls-3" x1="50.6" y1="69.38" x2="47.26" y2="66.03"/><path class="cls-2" d="M72.8,8.29l19,19,.29.3h4.19V30.4h-3.6V86.09l0,1v21.07H52.89V56.83l-1.71,1.71-8.7,8.7-2-2L52.6,53.19l.29-.29V30.4h-3.6V27.62h4.19l.29-.3,19-19m0-1.41L53.06,26.62H48.29V31.4h3.6V52.49L39.1,65.28l3.38,3.38,9.41-9.41v49.91H93.74V86.09h0V31.4h3.6V26.62H92.54L72.8,6.88Z"/><path class="cls-2" d="M43.78,79.3v68.3H6L43.78,79.3m1-3.87L4.31,148.6H44.78V75.43Z"/><path class="cls-2" d="M46.17,137.64v4H6.9l2.21-4H46.17m1-1H8.52l-3.31,6h42v-6Z"/><path class="cls-2" d="M46.17,128.47v4H12l2.2-4h32m1-1H13.59l-3.31,6H47.17v-6Z"/><path class="cls-2" d="M46.17,119.29v4H17.05l2.2-4H46.17m1-1H18.66l-3.31,6H47.17v-6Z"/><path class="cls-2" d="M46.17,110.12v4h-24l2.21-4H46.17m1-1H23.74l-3.31,6H47.17v-6Z"/><path class="cls-2" d="M46.17,101v4h-19l2.21-4H46.17m1-1H28.81l-3.31,6H47.17v-6Z"/><path class="cls-2" d="M46.17,91.78v4H32.27l2.2-4h11.7m1-1H33.88l-3.31,6h16.6v-6Z"/><path class="cls-2" d="M46.17,82.61v4H37.34l2.2-4h6.63m1-1H39l-3.31,6H47.17v-6Z"/></svg>