<svg id="Layer_1" data-name="Layer 1" xmlns="http://www.w3.org/2000/svg" xmlns:xlink="http://www.w3.org/1999/xlink" viewBox="0 0 193.49 96.38"><defs><style>.cls-1{fill:url(#radial-gradient);}.cls-2{fill:#ece5cd;}.cls-3{fill:none;stroke:#ece5cd;stroke-miterlimit:10;}</style><radialGradient id="radial-gradient" cx="54.07" cy="181.89" r="87.21" gradientTransform="translate(42.06 -53.29) scale(1.01 0.56)" gradientUnits="userSpaceOnUse"><stop offset="0" stop-color="#424143"/><stop offset="0.49" stop-color="#424143" stop-opacity="0.97"/><stop offset="0.66" stop-color="#424143" stop-opacity="0.87"/><stop offset="0.79" stop-color="#424143" stop-opacity="0.69"/><stop offset="0.89" stop-color="#424143" stop-opacity="0.44"/><stop offset="0.97" stop-color="#424143" stop-opacity="0.12"/><stop offset="1" stop-color="#424143" stop-opacity="0"/></radialGradient></defs><title>tunnel-1</title><ellipse class="cls-1" cx="96.71" cy="48.19" rx="96.78" ry="48.19"/><path class="cls-2" d="M186.82,3.66v8.12H6.69V3.66H186.82m1-1H5.69V12.78H187.82V2.66Z"/><path class="cls-2" d="M96.76,18.84a28.54,28.54,0,0,1,28.51,28.51V92.72h-6.43V47.35a22.08,22.08,0,0,0-44.16,0V92.72H68.24V47.35A28.55,28.55,0,0,1,96.76,18.84m0-1A29.55,29.55,0,0,0,67.24,47.35V93.72h8.44V47.35a21.08,21.08,0,0,1,42.16,0V93.72h8.43V47.35A29.55,29.55,0,0,0,96.76,17.84Z"/><path class="cls-2" d="M69.22,27.1a30.28,30.28,0,0,0-7.17,19.62v33H50.69a7.07,7.07,0,0,1-7.07-7.06V27.1h25.6m2.26-1H42.62V72.65a8.06,8.06,0,0,0,8.07,8.06H63.05v-34A29.39,29.39,0,0,1,71.48,26.1Z"/><path class="cls-2" d="M150.75,27.1V72.61a7.1,7.1,0,0,1-7.1,7.1H132.33v-33a30.29,30.29,0,0,0-7.18-19.62h25.6m1-1H122.89a29.36,29.36,0,0,1,8.44,20.62v34h12.32a8.1,8.1,0,0,0,8.1-8.1V26.1Z"/><path class="cls-3" d="M76.52,15.67H5.69S4.86,29.23,13.91,35.8s14.58,6.82,16.63,20.41,7.58,31.68,14,32.56,12.51,5,12.51,5"/><line class="cls-3" x1="116.99" y1="15.67" x2="187.82" y2="15.67"/><path class="cls-2" d="M96.76,40.36a2.82,2.82,0,0,1,2.82,2.82V53.65H93.93V43.18a2.83,2.83,0,0,1,2.83-2.82m0-1a3.82,3.82,0,0,0-3.83,3.82V54.65h7.65V43.18a3.82,3.82,0,0,0-3.82-3.82Z"/><line class="cls-3" x1="94.36" y1="53.41" x2="75.04" y2="93.35"/><line class="cls-3" x1="99.2" y1="53.41" x2="118.53" y2="93.35"/><path class="cls-3" d="M116.33,15.67h70.83s.83,13.56-8.22,20.13-14.58,6.82-16.63,20.41-7.58,31.68-14,32.56-12.51,5-12.51,5"/></svg>