<svg id="Layer_1" data-name="Layer 1" xmlns="http://www.w3.org/2000/svg" xmlns:xlink="http://www.w3.org/1999/xlink" viewBox="0 0 191.5 155.48"><defs><style>.cls-1{fill:url(#radial-gradient);}.cls-2{fill:#ece5cd;}</style><radialGradient id="radial-gradient" cx="95.75" cy="77.74" r="87.21" gradientTransform="translate(0 7.77) scale(1 0.9)" gradientUnits="userSpaceOnUse"><stop offset="0" stop-color="#424143"/><stop offset="0.49" stop-color="#424143" stop-opacity="0.97"/><stop offset="0.66" stop-color="#424143" stop-opacity="0.87"/><stop offset="0.79" stop-color="#424143" stop-opacity="0.69"/><stop offset="0.89" stop-color="#424143" stop-opacity="0.44"/><stop offset="0.97" stop-color="#424143" stop-opacity="0.12"/><stop offset="1" stop-color="#424143" stop-opacity="0"/></radialGradient></defs><title>weston-1</title><ellipse class="cls-1" cx="95.75" cy="77.74" rx="95.75" ry="77.74"/><path class="cls-2" d="M95.75,13.41l1.52,10.31h-3l1.52-10.31m0-6.86L93.07,24.72h5.35L95.75,6.55Z"/><path class="cls-2" d="M100.23,130.08v17.85h-9V130.08h9m1-1h-11v19.85h11V129.08Z"/><path class="cls-2" d="M179.19,108.69v35.43H141.3V108.69h37.89m-13.82,13.6h7.38V112.15h-7.38v10.14m-15.73,0H157V112.15h-7.39v10.14m15.73,15.65h7.38V127.81h-7.38v10.13m-15.73,0H157V127.81h-7.39v10.13m30.55-30.25H140.3v37.43h39.89V107.69Zm-13.82,13.6v-8.14h5.38v8.14Zm-15.73,0v-8.14H156v8.14Zm15.73,15.65v-8.13h5.38v8.13Zm-15.73,0v-8.13H156v8.13Z"/><path class="cls-2" d="M50.2,108.69v35.43H12.31V108.69H50.2m-15.72,13.6h7.38V112.15H34.48v10.14m-15.72,0h7.38V112.15H18.76v10.14m15.72,15.65h7.38V127.81H34.48v10.13m-15.72,0h7.38V127.81H18.76v10.13M51.2,107.69H11.31v37.43H51.2V107.69Zm-15.72,13.6v-8.14h5.38v8.14Zm-15.72,0v-8.14h5.38v8.14Zm15.72,15.65v-8.13h5.38v8.13Zm-15.72,0v-8.13h5.38v8.13Z"/><path class="cls-2" d="M108,59V76.22h4.17c-.59.92-1.23,1.93-1.84,3-.81,1.35-1.64,2.81-2.62,4.6-1.13,2.08-2.1,4-3,5.77-.29.59-.57,1.18-.85,1.78l-1.39-2.42-4.27-7.38-1.64-2.85-.87-1.5-.86,1.5-1.65,2.85L89,88.91l-1.42,2.45c-.84-1.79-1.72-3.58-2.63-5.33-1.22-2.33-2.51-4.64-3.86-6.89-.59-1-1.21-2-1.84-2.92h4.26V59h4.14a.36.36,0,0,1,0,.09l0,.09.12.26c.07.13.15.26.23.38l.06.09c.13.21.26.42.41.62s.17.22.26.32a8.43,8.43,0,0,0,.71.79l.08.08a9.26,9.26,0,0,0,1.58,1.17c.23.13.5.29.82.44s.4.17.6.25.63.21,1,.3l.11,0,.42.1a8.9,8.9,0,0,0,1.64.16,8.66,8.66,0,0,0,1.32-.1l.37-.07.13,0a7.67,7.67,0,0,0,.76-.19l.49-.17.08,0,.63-.27a5.68,5.68,0,0,0,.55-.28,6.42,6.42,0,0,0,.56-.34,4.67,4.67,0,0,0,.51-.36,6.25,6.25,0,0,0,.5-.4l.47-.44c.14-.14.27-.29.43-.47l.42-.5.25-.37.06-.1,0-.07c.12-.18.24-.36.35-.56l.12-.25,0-.09,0-.09H108m1-1h-5.81a5.3,5.3,0,0,1-.28.65c-.05.1-.09.21-.14.31s-.23.37-.35.55-.18.29-.28.42-.25.31-.38.47-.24.27-.37.4l-.42.39-.44.36-.46.32-.5.3-.48.25-.57.23c-.16.06-.32.13-.49.18l-.68.16c-.15,0-.29.07-.44.09a7.72,7.72,0,0,1-1.18.09A8.81,8.81,0,0,1,94.29,63c-.16,0-.31-.08-.47-.12a6.87,6.87,0,0,1-.88-.27l-.54-.22Q92,62.2,91.68,62a8,8,0,0,1-1.4-1l-.09-.09c-.22-.21-.42-.44-.62-.67l-.23-.3a5.21,5.21,0,0,1-.36-.55c-.09-.14-.18-.27-.26-.42l-.15-.31c-.1-.22-.19-.43-.28-.65h-5.8V75.22h-5.1c1,1.47,1.93,2.94,2.82,4.43v0c1.34,2.23,2.61,4.51,3.82,6.82s2.35,4.67,3.42,7.05l2.39-4.13L94.11,82l1.64-2.85L97.39,82l4.27,7.38L104,93.52c.53-1.19,1.07-2.37,1.64-3.54.93-1.93,1.92-3.84,2.94-5.72.84-1.54,1.7-3.07,2.59-4.57s1.7-2.74,2.59-4.09c.08-.13.15-.25.24-.38h-5V58Z"/><path class="cls-2" d="M99.47,27.62a.93.93,0,1,1,0,1.85H91.78a.93.93,0,0,1,0-1.85h7.69m0-1H91.78a1.93,1.93,0,0,0,0,3.85h7.69a1.93,1.93,0,1,0,0-3.85Z"/><path class="cls-2" d="M100.23,130.08v17.85h-9V130.08h9m1-1h-11v19.85h11V129.08Z"/><path class="cls-2" d="M97.69,33.37c.81,2.59,1.6,4.84,2.47,7a105.86,105.86,0,0,0,6.45,13.48l.29.51h2.22v.67h-4.33A9,9,0,0,0,94,46.24l-.21.06a8.23,8.23,0,0,0-1.26.39,6.21,6.21,0,0,0-.59.26c-.25.12-.51.26-.79.43l-.11.06a5.14,5.14,0,0,0-.49.32,9.52,9.52,0,0,0-1.06.88l-.16.16a8,8,0,0,0-1,1.22l-.06.09a9.23,9.23,0,0,0-.71,1.32l0,.06a1.42,1.42,0,0,0-.08.18,8.2,8.2,0,0,0-.46,1.48c0,.08,0,.16,0,.24v.07a9.81,9.81,0,0,0-.17,1.61H82.37V54.4H84.6l.29-.51a107.2,107.2,0,0,0,6.46-13.53c.86-2.18,1.64-4.41,2.45-7h3.89m.73-1H93.07c-.76,2.45-1.61,5-2.65,7.62A105.6,105.6,0,0,1,84,53.4H81.37v2.67h6.44a8,8,0,0,1-.1-1,7.86,7.86,0,0,1,.15-1.46c0-.09,0-.18,0-.28a8.3,8.3,0,0,1,.41-1.31l.1-.21a7.37,7.37,0,0,1,.64-1.17.41.41,0,0,1,0-.09,7.66,7.66,0,0,1,.9-1.09l.15-.15a8.84,8.84,0,0,1,.94-.78c.17-.12.35-.22.53-.33a7.8,7.8,0,0,1,.7-.38l.52-.23A9.06,9.06,0,0,1,94,47.27l.19-.05a7.59,7.59,0,0,1,1.59-.16,7.74,7.74,0,0,1,7.94,9h6.43V53.4h-2.64A106.13,106.13,0,0,1,101.09,40c-1-2.66-1.91-5.21-2.67-7.67Z"/><path class="cls-2" d="M95.75,50a5.15,5.15,0,0,1,5.14,5.15,5.37,5.37,0,0,1-.07.77.65.65,0,0,0,0,.13v.06l0,.35-.2.51a1.51,1.51,0,0,1-.13.29l-.07.14a.69.69,0,0,0,0,.13h0l0,0c-.08.15-.18.29-.28.44l0,.07-.06.08a4.35,4.35,0,0,1-.38.46l-.06.07A3.88,3.88,0,0,1,99,59l-.09.08a4.25,4.25,0,0,1-.46.32l-.07.05-.07,0a4,4,0,0,1-.46.24l-.13,0-.1,0-.42.15-.27.06-.11,0-.14,0-.19,0a4.93,4.93,0,0,1-.75.06,4.69,4.69,0,0,1-.93-.1h-.11l-.16-.05a4.21,4.21,0,0,1-.63-.2l-.07,0-.2-.08a5.58,5.58,0,0,1-.61-.34l-.16-.08,0,0a4.75,4.75,0,0,1-.82-.72l0,0h0l-.11-.12a5.34,5.34,0,0,1-.65-1l0,0a.35.35,0,0,0-.06-.14l-.06-.14a2.59,2.59,0,0,1-.14-.29l-.2-.51,0-.35V56l0-.13a5.45,5.45,0,0,1-.08-.77,5.22,5.22,0,0,1,.15-1.18l.06-.2.05-.16a4.9,4.9,0,0,1,.29-.72l.2-.37a4.89,4.89,0,0,1,.43-.6l.1-.13c0-.06.09-.12.15-.18a5.36,5.36,0,0,1,.77-.67l.11-.08.08-.05.21-.11.05,0,.32-.18.4-.16.51-.16.2-.06.13,0a4.84,4.84,0,0,1,.93-.1m0-1a6.61,6.61,0,0,0-1.1.11l-.14,0-.26.08-.62.19-.48.2a4.77,4.77,0,0,0-.44.24c-.13.07-.27.13-.39.21l-.09.07a7,7,0,0,0-.92.8l-.3.37a5.46,5.46,0,0,0-.51.72,3.75,3.75,0,0,0-.24.44,5.69,5.69,0,0,0-.34.86c0,.15-.1.29-.13.43a5.92,5.92,0,0,0-.18,1.41,6.25,6.25,0,0,0,.1,1,.45.45,0,0,0,0,.11l.05.47.25.63a3.38,3.38,0,0,0,.24.51.87.87,0,0,0,.07.17s0,0,0,0a7.18,7.18,0,0,0,.77,1.12l.17.18a5.05,5.05,0,0,0,1,.87l0,0,.19.1a5.68,5.68,0,0,0,.73.4l.32.13a5.94,5.94,0,0,0,.75.23,1.52,1.52,0,0,0,.2.06h.13a5.8,5.8,0,0,0,1.11.12,6.56,6.56,0,0,0,.9-.07l.39-.09.45-.1a4.45,4.45,0,0,0,.51-.19l.28-.11a4.14,4.14,0,0,0,.55-.29l.17-.1a5.3,5.3,0,0,0,.54-.39l.12-.09.5-.47.1-.12a5.17,5.17,0,0,0,.42-.51l.12-.18a4.72,4.72,0,0,0,.33-.53s0,0,0,0,0-.11.08-.17.17-.33.24-.51l.24-.63.06-.47a.45.45,0,0,1,0-.11,6.25,6.25,0,0,0,.09-1A6.14,6.14,0,0,0,95.75,49Z"/><path class="cls-2" d="M53.09,90.53c-.73,1.54-1.36,3-1.93,4.32H47.53v8.46H50.2v1.49H9.07v-.67h3.52l.29-.51,7.44-13.09H53.09m1.58-1H19.74L12,103.13H8.07v2.67H51.2v-3.49H48.53V95.85h3.29c.88-2.13,1.85-4.23,2.85-6.32Z"/><path class="cls-2" d="M121.35,69.83a115,115,0,0,1,7.77,11.35c1.7,2.84,3.3,5.79,4.76,8.79,1.3,2.67,2.51,5.41,3.6,8.15l.25.63h2.35v.67h-2.67v48.51H104.9V130.08h3.58v-4.67H83v4.67h3.59v17.85H54.1V99.42H51.43v-.67h2.35l.25-.63c1.09-2.74,2.31-5.48,3.62-8.15,1.47-3,3.07-6,4.77-8.79a120.54,120.54,0,0,1,7.73-11.34c1.11,1.5,2.29,3.17,3.53,5,.09.15.19.29.29.43l.35.51c1.28,1.92,2.39,3.67,3.42,5.39.7,1.17,1.45,2.48,2.28,4l.6,1.1.13.25c.47.88.93,1.76,1.37,2.62l.08.15.66,1.32q.65,1.3,1.23,2.58l.23.47c.12.27.25.54.37.8l.07.16.06.13,1.52,3.37.8,1.78,1-1.69L90,95l2.38-4.13L95.75,85l3.4,5.89,1.71,3,.66,1.14,1.86,3.23,1,1.7.8-1.8,1.51-3.4.06-.11.06-.14.36-.77.22-.47c.39-.86.79-1.72,1.22-2.6.21-.43.42-.85.64-1.27l.09-.19c.44-.86.9-1.74,1.36-2.62l.09-.16.64-1.19c.85-1.54,1.57-2.81,2.28-4,.52-.86,1-1.68,1.47-2.37l.84-1.3.2-.32q.47-.72.93-1.41c1.4-2.1,2.82-4.09,4.22-6m-3.67,36.81h7.39V97.5a3.7,3.7,0,0,0-7.39,0v9.14m-25.62,0h7.38V97.5a3.69,3.69,0,0,0-7.38,0v9.14m-25.59,0h7.39V97.5a3.7,3.7,0,0,0-7.39,0v9.14m51.21,15.65h7.39V112.15h-7.39v10.14m-25.67,0H99.4V112.15H92v10.14m-25.54,0h7.39V112.15H66.47v10.14m51.21,15.65h7.39V127.81h-7.39v10.13m-51.21,0h7.39V127.81H66.47v10.13M121.34,68.2c-1.65,2.13-3.34,4.49-5,7L115.16,77l-.85,1.31c-.49.78-1,1.57-1.48,2.4-.81,1.36-1.57,2.69-2.3,4-.24.45-.49.9-.73,1.36-.47.89-.93,1.77-1.37,2.64-.25.49-.49,1-.73,1.47-.44.89-.84,1.76-1.24,2.62-.19.42-.39.83-.58,1.25l-.12.26-1.51,3.4-1.86-3.23-.67-1.14-1.7-3L95.75,83l-4.26,7.39L89.1,94.49l-1.85,3.2-1.52-3.37c0-.1-.09-.19-.13-.29L85,92.75c-.4-.86-.81-1.72-1.24-2.6L83,88.67c-.44-.87-.9-1.76-1.38-2.65l-.73-1.35c-.75-1.36-1.51-2.71-2.3-4l0,0c-1.14-1.89-2.28-3.67-3.42-5.39-.22-.33-.44-.63-.66-1-1.46-2.15-2.91-4.2-4.34-6.07a117.23,117.23,0,0,0-8.59,12.47c-1.83,3-3.42,6-4.82,8.86s-2.62,5.64-3.65,8.22H50.43v2.67H53.1v48.51H87.61V129.08H84v-2.67h23.46v2.67H103.9v19.85h34.51V100.42h2.67V97.75h-2.67c-1-2.57-2.22-5.33-3.63-8.22s-3-5.81-4.8-8.86a114.6,114.6,0,0,0-8.64-12.47Zm-2.66,37.44V97.5a2.7,2.7,0,0,1,5.39,0v8.14Zm-25.62,0V97.5a2.69,2.69,0,0,1,5.38,0v8.14Zm-25.59,0V97.5a2.7,2.7,0,0,1,5.39,0v8.14Zm51.21,15.65v-8.14h5.39v8.14Zm-25.67,0v-8.14H98.4v8.14Zm-25.54,0v-8.14h5.39v8.14Zm51.21,15.65v-8.13h5.39v8.13Zm-51.21,0v-8.13h5.39v8.13Z"/><path class="cls-2" d="M171.18,90.53l7.43,13.07.29.5h3.54v.7H141.3v-1.49H144V94.85h-3.61c-.57-1.35-1.2-2.78-1.92-4.32h32.74m.58-1h-34.9c1,2.09,2,4.19,2.83,6.32H143v6.46H140.3v3.49h43.14v-2.7h-4l-7.72-13.57Z"/></svg>