<svg id="Layer_1" data-name="Layer 1" xmlns="http://www.w3.org/2000/svg" viewBox="0 0 468 216"><defs><style>.cls-1{fill:none;stroke:gray;stroke-miterlimit:10;stroke-width:2px;}.cls-2{fill:#1e222c;}.cls-3{fill:#e6e6e6;}.cls-4{fill:#353e55;}.cls-5{fill:#466080;}.cls-6{fill:#6e95af;}.cls-11,.cls-7,.cls-9{font-size:14px;font-family:ITCAvantGardePro-Bk, ITC Avant Garde Gothic Pro;}.cls-7{fill:#b3b3b3;}.cls-12,.cls-7,.cls-9{letter-spacing:0.01em;}.cls-8{letter-spacing:0.03em;}.cls-10{letter-spacing:-0.06em;}.cls-11{letter-spacing:-0.06em;}</style></defs><title>p-chart</title><line class="cls-1" x1="234" y1="142.13" x2="234" y2="204.08"/><rect class="cls-2" x="236.69" y="167.72" width="48.48" height="12.12"/><path class="cls-3" d="M130.64,168.72v10.12H84.16V168.72h46.48m1-1H83.16v12.12h48.48V167.72Z"/><path class="cls-3" d="M230.31,168.72v10.12H183.82V168.72h46.49m1-1H182.82v12.12h48.49V167.72Z"/><path class="cls-3" d="M180.48,168.72v10.12H134V168.72h46.49m1-1H133v12.12h48.49V167.72Z"/><path class="cls-3" d="M80.81,168.72v10.12H34.33V168.72H80.81m1-1H33.33v12.12H81.81V167.72Z"/><rect class="cls-4" x="286.53" y="167.72" width="48.48" height="12.12"/><rect class="cls-5" x="336.36" y="167.72" width="48.48" height="12.12"/><rect class="cls-6" x="386.19" y="167.72" width="48.48" height="12.12"/><text class="cls-7" transform="translate(43.24 158.16) rotate(-70)">F<tspan class="cls-8" x="7" y="0">L</tspan><tspan x="13.82" y="0">ASHLIGHTS REQUIRED</tspan></text><text class="cls-9" transform="translate(93.07 158.16) rotate(-70)">TRESS<tspan class="cls-10" x="36.96" y="0">P</tspan><tspan x="44.42" y="0">ASSING</tspan></text><text class="cls-9" transform="translate(142.9 158.16) rotate(-70)">SELF GUIDED</text><text class="cls-9" transform="matrix(0.34, -0.94, 0.94, 0.34, 192.73, 158.16)">HIKING</text><text class="cls-7" transform="matrix(0.34, -0.94, 0.94, 0.34, 434.67, 158.16)">GIFT SHOP</text><text class="cls-7" transform="matrix(0.34, -0.94, 0.94, 0.34, 384.84, 158.16)">ADMISSION FEE</text><text class="cls-7" transform="matrix(0.34, -0.94, 0.94, 0.34, 335.01, 158.16)">TOUR GUIDE</text><text class="cls-11" transform="matrix(0.34, -0.94, 0.94, 0.34, 285.18, 158.16)">P<tspan class="cls-12" x="7.46" y="0">ARKING</tspan></text></svg>